<?xml version="1.0" encoding="UTF-8"?>
<svg version="1.1" viewBox="0 0 1600 1600" width="1280" height="1280" xmlns="http://www.w3.org/2000/svg">
<path transform="translate(217 350)" d="m0 0c1.04-0 2.07-0.01 3.14-0.01 3.47-0.01 6.93 0.01 10.4 0.02 2.48 0 4.97 0 7.46-0.01 6.05 0 12.1 0.01 18.1 0.03 7.05 0.01 14.1 0.01 21.1 0.01 12.6 0.01 25.1 0.02 37.7 0.05 12.2 0.02 24.4 0.03 36.6 0.04h2.28 4.54 2.26 2.26c11.6 0 23.2 0.02 34.9 0.03 4.22 0 8.43 0.01 12.6 0.01 7.31 0 14.6 0.01 21.9 0.03 2.42 0 4.85 0.01 7.28 0.01 3.31 0 6.61 0.01 9.92 0.02 0.97 0 1.94 0 2.93-0.01 0.89 0.01 1.77 0.01 2.69 0.02h2.31c3.57 0.22 5.51 0.51 8.05 3.13 2.42 2.34 3.82 2.42 7.06 3 1.56 1.43 1.56 1.43 3 3 0.66 0.29 1.32 0.57 2 0.87 2.7 1.52 3.45 3.47 5 6.13 0.87 0.86 1.73 1.73 2.63 2.62 2.37 2.38 2.37 2.38 3.37 5.38 1.18 0.46 1.18 0.46 2.38 0.93 3.07 1.25 3.94 2.26 5.62 5.07 0.33 0.86 0.66 1.73 1 2.62 0.88 2.69 0.88 2.69 4 4.38l-1 1c0.48 0.37 0.96 0.75 1.46 1.13 3.79 3.07 5.93 5.16 7.54 9.87 0.99 0.33 1.98 0.66 3 1l3 3c0.68 0.22 1.36 0.45 2.06 0.68 3.22 2.18 3.21 5.68 3.94 9.32l1 3c0.58 0.29 1.16 0.57 1.75 0.87 5.68 2.84 10.9 9.23 13.2 15.1v3h4c0.12 0.57 0.25 1.15 0.38 1.75 0.65 2.35 1.31 4.18 2.62 6.25 1.85 1.05 1.85 1.05 4 2 4.84 3.26 4.84 3.26 5.56 6.62 0.15 0.79 0.29 1.57 0.44 2.38 0.64 0.31 1.28 0.62 1.94 0.93 2.06 1.07 2.06 1.07 3.31 4.19 0.37 1.43 0.37 1.43 0.75 2.88h2c1.55 1.57 1.55 1.57 3.31 3.68 2.06 2.44 4.04 4.64 6.38 6.82 2.05 2.22 2.87 3.52 4.06 6.18 2.23 4.88 5.74 8.38 9.42 12.2 1.83 2.1 1.83 2.1 1.83 4.1h2c0.21 0.88 0.41 1.77 0.63 2.68 1.42 3.44 2.85 4.81 5.77 7.02 2.64 2.14 4.56 4.6 6.6 7.3v2c0.99 0.33 1.98 0.66 3 1 1.13 1.74 1.13 1.74 2.13 3.87 0.49 1.05 0.49 1.05 1 2.12 0.87 2.01 0.87 2.01 1.87 5.01 1.31 0.7 2.65 1.36 4 2 4.28 2.96 7.4 6.5 10 11v2c0.6 0.2 1.2 0.41 1.81 0.62 3.03 1.9 3.84 4.13 5.19 7.38v2c0.99 0.33 1.98 0.66 3 1 1.68 1.7 1.68 1.7 3.44 3.81 1.94 2.3 3.84 4.46 6 6.56 1.56 1.63 1.56 1.63 1.56 3.63h2c0.25 0.9 0.5 1.81 0.75 2.75 1.3 3.38 2.65 4.82 5.25 7.25v2c0.59 0.25 1.17 0.5 1.77 0.76 2.53 1.4 3.98 2.92 5.86 5.11 0.88 1.02 0.88 1.02 1.78 2.06 2.39 3.11 3.59 5.1 3.59 9.07h2c5 5.47 5 5.47 5 8 0.76 0.06 1.52 0.13 2.3 0.2 2.7 0.8 2.7 0.8 4.4 2.91 0.7 1.3 0.7 1.3 1.43 2.64 0.47 0.86 0.95 1.72 1.44 2.61 0.71 1.3 0.71 1.3 1.43 2.64 3.5 6.09 8.18 10.2 13.6 14.7 1.45 1.33 1.45 1.33 2.45 3.33 0.04 2 0.04 4 0 6 0.84 0.31 0.84 0.31 1.69 0.62 2.6 1.55 4.16 3.45 6.03 5.8 2.65 3.26 5.52 6.05 8.97 8.45 3.01 2.77 3.45 5.18 4.31 9.13 0.65 3.07 0.65 3.07 2.81 4 1.09 0.49 1.09 0.49 2.19 1 2.25 1.5 2.25 1.5 4 3v2h2c0.41 0.76 0.82 1.52 1.24 2.3 0.54 0.99 1.08 1.99 1.64 3.01 0.8 1.48 0.8 1.48 1.61 2.99 1.93 3.45 3.18 5.48 6.51 7.7 3.52 3.23 6.8 6.67 9.81 10.4 1.92 2.66 1.92 2.66 4.19 3.63v2h2l1 7h2v3c0.84 0.31 0.84 0.31 1.69 0.62 2.62 1.56 4.21 3.49 6.08 5.87 1.3 1.67 1.3 1.67 3.42 3.44 2.43 2.77 2.99 5.52 3.81 9.07h2v2c0.59 0.09 1.18 0.18 1.79 0.28 6.32 2.05 10.5 10.5 13.8 15.8 1.39 2.16 1.39 2.16 4.36 3.89 0.39 1.07 0.78 2.14 1.19 3.25 1.29 3.33 2.79 4.66 5.75 6.62 5.58 3.81 7 8.96 9.06 15.1 2.02 0.73 2.02 0.73 4 1v2l2 1c0.99 1.71 1.97 3.42 2.91 5.16 1.16 2.07 1.16 2.07 3.34 4.52 1.75 2.32 1.75 2.32 1.75 6.32-2.62 1.91-4.93 2.97-8 4l-1 5c-0.99 0.33-1.98 0.66-3 1l-1 2c-0.99 0.33-1.98 0.66-3 1-0.33 0.82-0.66 1.65-1 2.5-0.33 0.82-0.66 1.65-1 2.5-0.99 0.33-1.98 0.66-3 1l-1 7c-0.99 0.33-1.98 0.66-3 1l-1 3-3 2c-0.72 2.06-0.72 2.06-1 4-0.93 0.06-0.93 0.06-1.87 0.12-0.71 0.29-1.41 0.58-2.13 0.88-0.72 1.98-1.38 3.98-2 6l-3 2c-0.72 2.06-0.72 2.06-1 4h-4l-1 4-4 1v3l-3 2c-0.29 1.09-0.58 2.18-0.87 3.31-1.28 4.18-2.79 5.93-6.13 8.69h-2c-0.27 0.8-0.54 1.61-0.81 2.43-0.59 1.27-0.59 1.27-1.19 2.57-0.99 0.33-1.98 0.66-3 1-0.73 2.01-0.73 2.01-1 4h-2l-1 7h-5l-2 5h-3v5h-3c-0.27 0.64-0.54 1.28-0.81 1.93-1.19 2.07-1.19 2.07-4.19 3.07l-1 7c-0.99 0.33-1.98 0.66-3 1l-1 3c-2.06 0.68-2.06 0.68-4 1-0.06 0.93-0.12 1.85-0.19 2.81-0.81 3.19-0.81 3.19-3.25 4.94-1.27 0.62-1.27 0.62-2.56 1.25-2.46 2.46-3 4.7-4 8h-2l-1 6c-1.98-0.33-3.96-0.66-6-1v5h-3l-1 5c-0.99 0.33-1.98 0.66-3 1-1.23 3.51-1.23 3.51-2 7h-4v5c-0.99 0.33-1.98 0.66-3 1l-1 3h-4l-1 5h-3l-2 8-4 1c-0.12 0.57-0.25 1.15-0.37 1.75-0.64 2.27-1.52 4.17-2.63 6.25h-5l-1 5c-0.99 0.33-1.98 0.66-3 1l-1 9-4 1-1 2-3 2c-0.8 0.99-1.61 1.98-2.44 3-2.35 2.76-3.5 3.47-6.56 5-0.36 1.32-0.7 2.66-1 4-0.99 0.33-1.98 0.66-3 1-0.78 1.7-1.56 3.4-2.25 5.15-1.01 2.48-2.2 4.66-3.75 6.85-0.99 0.33-1.98 0.66-3 1-0.7 1.31-1.37 2.65-2 4l-2 1c-1.13 2.01-1.13 2.01-2 4h-3l-1 8c-0.96 0.18-0.96 0.18-1.94 0.37-0.68 0.21-1.36 0.41-2.06 0.63l-1 2h-3v5c-0.6 0.27-1.2 0.53-1.81 0.81-2.23 1.08-2.23 1.08-3.81 2.81l-1.38 1.38h-2v4c-0.62 0.18-1.24 0.37-1.87 0.56-3.15 2.13-3.16 4.88-4.13 8.44-0.99 0.33-1.98 0.66-3 1-0.34 1.33-0.68 2.66-1 4l-3 2-1 3h-4v4l-4 1-1 8h-5l1 3h-4c0.1 0.76 0.21 1.52 0.31 2.31-0.1 0.89-0.2 1.77-0.31 2.69-2.31 1.62-2.31 1.62-5 3-2.73 2.26-3.66 4.32-4.69 7.68-0.25 0.81-0.5 1.62-0.76 2.45-0.18 0.62-0.36 1.23-0.55 1.87h-2v2c-0.74 0.14-1.48 0.29-2.25 0.43-3.74 2.13-4.29 4.62-5.66 8.57-0.36 0.66-0.72 1.32-1.09 2-2.05 0.59-2.05 0.59-4 1-0.72 1.98-1.38 3.98-2 6l-3 2-1 3h-3v4c-0.8 0.27-1.61 0.53-2.44 0.81-0.84 0.39-1.69 0.78-2.56 1.19l-1 3h-3c-0.12 1.11-0.25 2.22-0.37 3.37-0.63 3.63-0.63 3.63-2.63 5.63h-3c-0.12 0.8-0.25 1.61-0.37 2.43-0.31 1.27-0.31 1.27-0.63 2.57l-2 1-1 3h-4c-0.31 0.8-0.62 1.61-0.94 2.43-1.06 2.57-1.06 2.57-2.06 3.57-0.37 2.33-0.7 4.66-1 7-0.8 0.27-1.61 0.53-2.44 0.81-0.84 0.39-1.69 0.78-2.56 1.19l-1 3h-4v5h-3c-0.4 0.96-0.4 0.96-0.81 1.93-1.19 2.07-1.19 2.07-4.19 3.07l-1 8h-3v3l-5 1-1 5h-4v4l-4-1c-0.12 0.78-0.25 1.56-0.37 2.37-0.63 2.63-0.63 2.63-2.63 4.63-0.12 0.99-0.25 1.98-0.37 3-0.31 1.48-0.31 1.48-0.63 3-1.81 1.12-1.81 1.12-4 2-2.66 2.35-3.86 3.59-5 7-2.06 0.68-2.06 0.68-4 1l-1 4c-2.97 0.33-5.94 0.66-9 1v3c-35.8 0.11-71.6 0.2-107 0.25-4.22 0.01-8.45 0.02-12.7 0.02-0.84 0-1.68 0-2.55 0.01-13.6 0.02-27.2 0.06-40.9 0.1-14 0.05-28 0.08-41.9 0.09-8.63 0-17.3 0.03-25.9 0.07-5.91 0.02-11.8 0.03-17.8 0.02-3.41 0-6.82 0.01-10.2 0.03-3.7 0.03-7.4 0.02-11.1 0.01-1.08 0.01-2.16 0.03-3.27 0.04-6.71-0.06-10.3-1.01-15.3-5.64v-2h-3c-3.6-2.96-5.87-5.77-6.37-10.4 0.12-0.85 0.24-1.69 0.37-2.56 0.64-0.19 1.28-0.37 1.94-0.57 0.68-0.47 1.36-0.94 2.06-1.43 0.25-1.74 0.25-1.74 0.5-3.5 0.25-1.74 0.25-1.74 0.5-3.5 1.94-1.19 1.94-1.19 4-2 1.11-1.89 1.11-1.89 2-4 1.96-2.98 2.53-3.84 6-5 1.01-1.33 2.01-2.66 3-4h2c0.27-0.62 0.54-1.24 0.81-1.88 1.19-2.12 1.19-2.12 4.19-4.12 1.18-1.52 1.18-1.52 2.38-3.07 2.62-2.93 2.62-2.93 5.18-3.81 2.15-0.11 4.29-0.12 6.44-0.12 0.27-0.75 0.54-1.49 0.81-2.25 1.15-2.66 2.27-4.6 4.19-6.75 0.99-0.33 1.98-0.66 3-1 1.21-2 1.21-2 2-4h3l2-4h5c0.25-0.64 0.5-1.28 0.75-1.94 1.25-2.06 1.25-2.06 3.31-2.63 0.64-0.14 1.28-0.28 1.94-0.43l1-3c5.47-5 5.47-5 8-5 0.08-0.62 0.17-1.24 0.25-1.88 0.75-2.12 0.75-2.12 2.63-3.19 0.7-0.3 1.4-0.61 2.12-0.93 0.5-0.52 0.99-1.03 1.5-1.57 1.5-1.43 1.5-1.43 3.5-1.87 2.72-0.76 3.41-2.32 5-4.56h2l2-4h3c0.23-0.75 0.45-1.49 0.69-2.25 1.58-3.32 3.38-4.59 6.31-6.75 0.7-0.75 1.4-1.49 2.13-2.25 1.87-1.75 1.87-1.75 4.87-1.75 0.22-0.96 0.22-0.96 0.44-1.94 0.56-2.06 0.56-2.06 1.56-3.06 2.33-0.04 4.67-0.04 7 0 0.29-0.79 0.58-1.57 0.88-2.38 1.12-2.62 1.12-2.62 3.12-4.62h3c0.27-0.81 0.54-1.61 0.81-2.44 0.39-0.85 0.79-1.69 1.19-2.56 0.99-0.33 1.98-0.66 3-1 1.01-1.66 2.01-3.33 3-5h2l2-4c0.74 0.1 1.49 0.2 2.25 0.31 2.99-0.02 2.99-0.02 4.88-2.81 0.61-0.83 1.23-1.65 1.87-2.5h3v-3l4-1v-3h4c0.14-0.81 0.29-1.61 0.44-2.44 0.56-2.56 0.56-2.56 1.56-3.56 0.93 0.1 1.86 0.2 2.81 0.31 1.58-0.15 1.58-0.15 3.19-0.31 1.4-1.96 2.73-3.96 4-6 1.65-0.71 3.32-1.38 5-2 1.34-2.02 1.34-2.02 2-4h3c0.27-0.81 0.54-1.61 0.81-2.44 0.39-0.85 0.79-1.69 1.19-2.56 0.99-0.33 1.98-0.66 3-1l1-3c2-0.67 4-1.34 6-2 1.37-1.3 2.71-2.63 4-4 0.99-0.33 1.98-0.66 3-1 1.37-1.64 1.37-1.64 2.56-3.57 1.26-1.94 1.26-1.94 2.44-3.43h2c0.06-0.62 0.12-1.24 0.19-1.88 0.81-2.12 0.81-2.12 3.19-3.19 0.86-0.3 1.73-0.61 2.62-0.93 0.45-0.48 0.91-0.95 1.38-1.44 2.48-2.39 5.47-3.21 8.66-4.4 2.16-0.98 2.16-0.98 2.55-3.23 0.13-0.64 0.27-1.28 0.41-1.93 0.99-0.33 1.98-0.66 3-1 0.46-0.96 0.46-0.96 0.94-1.94 1.31-2.54 2.51-2.91 5.06-4.06l1-2c2.33-1 4.67-2 7-3l1-2c0.62-0.29 1.24-0.58 1.88-0.88 2.49-1.32 3.47-2.88 5.12-5.12h2v-2c0.99-0.33 1.98-0.66 3-1 0.5-0.83 0.99-1.65 1.5-2.5 1.5-2.5 1.5-2.5 4.5-3.5 0.68-0.75 0.68-0.75 1.38-1.5 1.62-1.5 1.62-1.5 4.18-2 2.8-0.28 2.8-0.28 4.44-3.5h3l1-4h4v-5c0.99-0.33 1.98-0.66 3-1l2-3c1.16-0.31 2.31-0.62 3.5-0.94 3.57-0.68 3.57-0.68 4.94-3.19 0.18-0.62 0.37-1.24 0.56-1.87h3l2-4h2c0.31-0.84 0.31-0.84 0.63-1.69 1.88-3.17 4.53-4.99 7.37-7.31 0.45-0.75 0.91-1.49 1.38-2.25 2.63-2.84 5.85-2.39 9.62-2.75l1-2h2c0.08-0.79 0.17-1.57 0.25-2.38 0.25-0.86 0.5-1.73 0.75-2.62 1.94-1.07 1.94-1.07 4-2 0.68-1.33 1.35-2.66 2-4 0.99-0.33 1.98-0.66 3-1 0.72-0.95 1.44-1.9 2.19-2.88 2.56-3.27 5.1-4.28 9.04-5.38 2.15-0.71 2.15-0.71 3.77-3.74h2c0.37-0.87 0.37-0.87 0.75-1.75 1.46-2.62 2.93-4.35 5.25-6.25h4c0.02-0.6 0.04-1.2 0.06-1.82 0.94-2.18 0.94-2.18 4.32-3.87 2.19-0.8 4.4-1.57 6.62-2.31 0.14-0.64 0.29-1.28 0.44-1.94 0.18-0.68 0.37-1.36 0.56-2.06 1.33-0.67 2.67-1.34 4-2 1.05-1.64 2.05-3.31 3-5 2.06-2.41 2.89-2.97 6-4 0.45-0.68 0.91-1.36 1.38-2.07 1.62-1.93 1.62-1.93 4.31-2.18 0.76 0.08 1.52 0.16 2.31 0.25l1-4c1.14-0.1 1.14-0.1 2.31-0.19 2.88-0.57 2.88-0.57 4.38-3.19 0.43-0.86 0.86-1.73 1.31-2.62 2.09-3.13 2.81-3.46 6-5 1.58-1.42 1.58-1.42 3-3 1.56-1.69 1.56-1.69 3-3h2l1-5c1.07-0.25 2.15-0.5 3.25-0.75 3.8-1.27 5.15-2.36 7.75-5.25h2l2-4h3c0.06-0.56 0.12-1.12 0.19-1.69 1.2-3.42 3-5.07 5.81-7.31h6c1.72-2.45 1.72-2.45 3-5h3v-3c4.23-4 4.23-4 8-4 0.27-0.6 0.54-1.2 0.81-1.82 1.18-2.17 2.46-3.45 4.19-5.18l1-3c0.93-0.09 1.86-0.17 2.81-0.25 3.71-0.87 4.14-1.73 6.19-4.75h3v-3c0.62-0.09 1.24-0.17 1.88-0.25 0.7-0.25 1.4-0.5 2.12-0.75 0.27-0.64 0.54-1.28 0.81-1.94 0.39-0.68 0.79-1.36 1.19-2.06 1.61-0.4 1.61-0.4 3.25-0.82 4.43-1.4 5.74-3.07 8.39-6.72 0.45-0.48 0.9-0.97 1.36-1.46h3c0.06-0.56 0.12-1.12 0.19-1.69 1.17-3.33 3.16-5.04 5.81-7.31h3c0.37-8.07 0.37-8.07-2.67-15.2-2.04-1.72-4.14-3.24-6.33-4.75-0.82-0.89-1.65-1.78-2.5-2.69-2.25-2.08-3.79-3.04-6.5-4.31-4.46-2.1-7.29-4.93-10.4-8.74-3.22-3.9-6.31-6.45-10.6-9.26-0.33-0.72-0.66-1.45-1-2.19-0.33-0.6-0.66-1.2-1-1.81-0.99-0.17-1.98-0.33-3-0.5-0.99-0.17-1.98-0.33-3-0.5-1.37-2.07-1.37-2.07-2-4h-3c-1.17-1.68-2.34-3.35-3.46-5.05-2.22-2.82-4.93-4.67-7.87-6.69-1.67-1.26-1.67-1.26-2.67-3.26-0.99-0.33-1.98-0.66-3-1-3-3.45-3-3.45-3-6h-6v-2l-2-1-3-2v-2c-0.76-0.06-1.53-0.13-2.31-0.19-2.69-0.81-2.69-0.81-4.44-3.13-1.05-2.26-1.8-4.23-2.25-6.68h-4v-2h-2v-2c-0.97-0.27-1.94-0.54-2.94-0.82-1.01-0.39-2.02-0.78-3.06-1.18l-1-3c-0.64-0.15-1.28-0.29-1.94-0.44-0.68-0.19-1.36-0.37-2.06-0.56-0.31-0.64-0.62-1.28-0.94-1.94-1.45-2.82-3.16-2.93-6.06-4.06-3-3.31-3-3.31-3-6-0.66-0.06-1.32-0.13-2-0.19-4.12-1.12-7.66-3.15-11-5.81v-2c-0.76-0.04-1.53-0.09-2.31-0.13-2.69-0.87-2.69-0.87-4.38-3.81-0.43-1.01-0.86-2.02-1.31-3.06-1.91-2.22-1.91-2.22-4.94-2.94-2.92-1.01-4.24-1.63-6.06-4.06v-2c-0.76-0.27-1.53-0.54-2.31-0.82-2.58-1.13-3.96-2-5.69-4.18v-2l-4-1c-0.09-0.93-0.09-0.93-0.19-1.88-0.27-0.7-0.53-1.4-0.81-2.12-1.65-0.7-3.32-1.37-5-2l-1-3c-0.99-0.33-1.98-0.66-3-1v-2c-0.72-0.11-1.44-0.21-2.19-0.32-5.62-1.37-8.38-4.18-11.8-8.68-5.27-5.7-11-9.74-18-13v-2c-0.84-0.37-0.84-0.37-1.69-0.75-4.03-2.18-7.12-4.91-10-8.44-2-2.83-2-2.83-4.31-3.81v-3c-1.14-0.19-1.14-0.19-2.31-0.38-2.69-0.62-2.69-0.62-5.69-2.62v-2c-0.74-0.06-1.48-0.13-2.25-0.19-3.63-1.07-4.46-2.84-6.75-5.81-1.79-1.39-3.62-2.65-5.51-3.89-1.49-1.11-1.49-1.11-2.49-3.11-1.07-0.44-2.14-0.87-3.25-1.32-3.75-1.51-6.12-3.57-8.75-6.68v-2c-0.99-0.33-1.98-0.66-3-1v-3h-5c-3.87-6.75-3.87-6.75-5-9-2.33-0.35-4.66-0.69-7-1-2.44-1.07-2.44-1.07-4-2v-2l-2-1c-4-4.59-4-4.59-4-7h-3v-2c-1.98-1.01-3.97-1.99-6-2.9-4.51-2.07-7.1-3.96-10-8.1-0.74-0.72-1.48-1.45-2.25-2.19-1.75-1.81-1.75-1.81-1.75-3.81l-5-2v-2c-2.28-1.17-4.57-2.26-6.91-3.3-1.04-0.48-2.08-0.96-3.15-1.45-1.05-0.47-2.09-0.94-3.16-1.42-3.36-2.22-4.13-4.23-5.78-7.83-1.81-1.76-1.81-1.76-3.87-3.07-2.57-1.78-4.51-3.33-6.69-5.62-2.24-2.12-3.43-2.86-6.19-3.94-1.07-0.45-2.14-0.91-3.25-1.37l-1-3c-0.99-0.33-1.98-0.66-3-1v-3l-4-2v-2c-1.21-0.19-1.21-0.19-2.44-0.38-0.84-0.2-1.69-0.41-2.56-0.62l-1-2c-2.31-1.06-4.64-2.06-7-3v-2l-5-1c-0.25-0.95-0.49-1.9-0.75-2.88-1.46-3.64-1.91-3.57-5.25-5.12-1.17-0.97-2.32-1.97-3.44-3-2.75-2.44-5.11-3.7-8.56-5-1.37-1.3-2.71-2.63-4-4l-2-1v-2h-2v-2l-2-1c-1.56-1.29-3.1-2.6-4.62-3.94-0.82-0.71-1.64-1.42-2.48-2.15-1.9-1.91-1.9-1.91-1.9-3.91h-3v-2c-1.28-0.21-2.56-0.42-3.87-0.63-2.23-0.54-2.23-0.54-4.13-1.37-1.25-3-1.25-3-2-6-1.8-1.28-1.8-1.28-4-2-4.18-2.09-6.55-4.69-9.46-8.22-3.33-3.85-6.52-6.61-11.5-7.78-1.94-1.75-1.94-1.75-4-4-0.8-0.81-1.61-1.61-2.44-2.44-1.71-1.71-3.39-3.44-5.06-5.19-2.34-2.42-2.34-2.42-5-3.75-2.98-1.94-4.3-4.07-6.25-6.99-1.71-2.23-3.82-3.26-6.25-4.63-2.88-2.89-3.94-4.2-4.25-8.32 0.08-0.88 0.17-1.77 0.25-2.68-0.99-0.33-1.98-0.66-3-1l-1-7c0.97-0.34 0.97-0.34 1.96-0.69 2.28-1.13 2.28-1.13 2.61-3.63 0.04-0.88 0.08-1.77 0.12-2.68 0.25-4.87 0.25-4.87 1.31-7 4.89-1.49 9.53-2.26 14.6-2.56 2.56-0.36 2.56-0.36 5.37-1.95 4.74-2.05 9.32-1.9 14.4-1.86zm454 446v5h1v-5h-1zm-5 11 1 2zm-9 8 1 3zm-80 63 1 3zm-23 22 1 2zm-22 18 1 3zm-164 133 1 2zm-80 68 1 2zm-116 97 1 2z" fill="#39C6FA"/>
<path transform="translate(862,871)" d="m0 0h5v4l8 1v5h6v4h3v4h5v4h4v5h5v4l5 1v3c1.98 0.5 1.98 0.5 4 1v4h8c0.5 1.98 0.5 1.98 1 4l5 1v5h3l1 3c2.02 0.73 2.02 0.73 4 1v4h4v4l5 1v4h5v4l8 1v4h4v4h6v5h3v5h5v3l5 1v4h4v4l8 1v4h5c0.1 0.64 0.21 1.28 0.31 1.94 0.34 1.02 0.34 1.02 0.69 2.06 0.99 0.33 1.98 0.66 3 1v4h6v4h3l1 4 4 1v5h4l1 3c2.02 0.73 2.02 0.73 4 1v4h5v4h4v4l8 1 1 4 5 1v4h3v4h5v5h4v5h5v4h4v4h5v4l8 1v4h6v4h3v5h5v4h4v5h5v5h4v3l5 1v4h4v4l5 1v3l8 1 1 4 4 1v4h4v4l5 1v4h4v5h5v3h4v5h5v4c1.24 0.08 2.47 0.16 3.75 0.25 3.05 0.38 4.15 0.67 6.69 2.56 1.53 2.14 2.19 3.61 2.56 6.19l4 1v4h4v4h5v5h5v4h4l1 4 4 1v4h4v4l5 1v3l8 1v4l5 1v4h4v4l5 1v4h4v4h5v4h4v5h5v4l8 1v4h4v4h5v5h5v4h4l1 4 4 1v4h4v4l5 1v3l8 1v5h4l1 3c2.02 0.73 2.02 0.73 4 1v4l5 1v4h4v4l5 1v4h5v4h4v4l8 1v4h4c0.12 0.93 0.12 0.93 0.25 1.88 0.56 2.3 0.56 2.3 2.81 3.37 0.96 0.37 0.96 0.37 1.94 0.75v2l2 2 2-1v4c0.96 0.4 0.96 0.4 1.94 0.81 2.06 1.19 2.06 1.19 3.06 4.19h4v4h6v4l4 1v5h8v4h4l1 3c2.02 0.73 2.02 0.73 4 1 0.15 0.96 0.15 0.96 0.31 1.94 0.23 0.68 0.46 1.36 0.69 2.06 0.99 0.33 1.98 0.66 3 1l1 3c2.02 0.73 2.02 0.73 4 1v4h4l1 4 5 1v4l4 1v3l4 1v5h8l1 3c2.02 0.73 2.02 0.73 4 1v4h4l1 4 4 1v4h4v4h6v5h3v4h5v5h4v5h5v3h4l1 5c2.31 0.33 4.62 0.66 7 1l1 4h4v4h6v4h3l1 4 4 1v4h4l1 4 4 1v5h4v4h4l1 9h4c0.03 2.1 0.05 4.21 0.06 6.31 0.01 1.17 0.03 2.35 0.04 3.55-0.1 3.14-0.1 3.14-1.1 6.14l-8 1v4c-19.3 0.89-38.6 1.14-58 1.12-4.02-0.01-8.03-0.01-12-0.01h-20.8c-10-0.01-20-0.02-30-0.02-16.3 0-32.5-0.01-48.8-0.01-15.8-0.01-31.6-0.02-47.3-0.03h-2.96-14.7c-40.5-0.01-81-0.03-121-0.05v5h-3v-5c-0.68-0.05-1.35-0.1-2.05-0.15-0.89-0.07-1.78-0.15-2.7-0.23-1.32-0.1-1.32-0.1-2.67-0.21-2.57-0.41-4.34-1.12-6.58-2.41v-2c-0.63-0.09-1.25-0.17-1.89-0.26-2.11-0.74-2.11-0.74-3.12-2.45-0.34-1.04-0.34-1.04-0.68-2.1-0.23-0.69-0.46-1.38-0.7-2.08-0.59-2.03-1.12-4.06-1.61-6.11-0.93-0.19-0.93-0.19-1.88-0.38-2.12-0.62-2.12-0.62-4.12-2.62-0.12-3.12-0.12-3.12 0-6h-4c-0.1-0.64-0.21-1.28-0.31-1.94-0.23-0.68-0.46-1.36-0.69-2.06-0.99-0.33-1.98-0.66-3-1-0.84-1.96-0.84-1.96-1.5-4.38-1.37-4.99-3.22-6.76-7.5-9.62-1.1-3.29-0.8-4.71 0-8h-4l-2-9h-2c-0.08-0.78-0.16-1.57-0.25-2.38-0.25-0.86-0.49-1.73-0.75-2.62-1.32-0.7-2.65-1.37-4-2-0.35-1.33-0.69-2.66-1-4-0.7-0.6-1.4-1.2-2.12-1.81-1.88-2.19-1.88-2.19-1.63-5.94 0.37-1.61 0.37-1.61 0.75-3.25-0.7-0.19-1.4-0.37-2.12-0.56-3.93-1.97-6.45-4.8-8.88-8.44-0.36-1.33-0.69-2.66-1-4l-2-3c-0.12-3.19-0.12-3.19 0-6h-5v-5h-4l-1-8c-0.99-0.33-1.98-0.66-3-1l-1-8h-4v-4h-2c-2.13-3.19-2.5-5.27-3-9-0.99-0.33-1.98-0.66-3-1v-8h-5v-4h-5v-10h-4l-1-8-4-1c-0.1-0.76-0.21-1.53-0.31-2.31-0.45-2.72-0.45-2.72-2.25-4.19-1.44-1.5-1.44-1.5-1.63-4.19 0.06-0.76 0.13-1.52 0.19-2.31l-4-1-1-8h-4v-5h-4l-1-8c-0.99-0.33-1.98-0.66-3-1v-8c-0.62-0.08-1.24-0.16-1.88-0.25-2.12-0.75-2.12-0.75-3.37-2.56-0.75-2.19-0.75-2.19-0.75-6.19h-4v-5h-2c-2.74-2.95-3-3.77-3-8-0.99-0.33-1.98-0.66-3-1l-1-8h-4v-5h-4c-0.11-0.63-0.22-1.25-0.33-1.9-0.16-0.82-0.32-1.63-0.48-2.48-0.15-0.81-0.3-1.62-0.46-2.46-0.61-2.52-0.61-2.52-3.73-4.16-0.19-3.12-0.19-3.12 0-6h-4v-5h-3c-1.48-2.96-1.06-5.74-1-9h-5l-1-8-4-1v-5l-4-2v-6l-5-1v-8h-4v-5h-4l-1-9-4-1v-7h-4l-1-9h-3v-5h-5v-8l-5-1v-4h-4v-9h-4c-0.5-4.45-0.5-4.45-1-9h-4l-1-8-4-1v-3h-4v-10h-4c-0.12-0.64-0.24-1.28-0.37-1.93-0.16-0.83-0.33-1.66-0.51-2.51-0.16-0.82-0.32-1.64-0.49-2.49-0.31-1.03-0.31-1.03-0.63-2.07l-2-1v-4h-5v-8h-5v-8h-4v-6h-4l-1-8h-4v-9h-4c-0.5-4.45-0.5-4.45-1-9h-4v-5h-4l-1-8h-3v-5h-5v-9h-4l-1-9h-4v-8l-5-1v-3h-4v-10h-4l-1-4-4-1v-17c1.98-0.5 1.98-0.5 4-1l1-3h4v-4h4v-5h5v-5h4l1-5h3l1-4h5v-8c0.99-0.33 1.98-0.66 3-1 0.73-2.02 0.73-2.02 1-4h4v-4c0.64-0.1 1.28-0.21 1.94-0.31 0.68-0.23 1.36-0.46 2.06-0.69l1-3h4v-6h4v-4zm508 451 2 2v-2h-2z" fill="#000002"/>
<path transform="translate(1169,125)" d="m0 0h312v4h17v4h4v5h4c0.79 2.8 1.13 5.28 1.13 8.19 0 0.78 0.01 1.56 0.01 2.36-0.01 0.81-0.01 1.62-0.02 2.45 0.01 0.81 0.01 1.61 0.02 2.45 0 0.78-0.01 1.56-0.01 2.36v2.15c-0.13 2.12-0.55 4-1.13 6.04h-4v5h-5v4l-8 1v4h-5v4h-3v5h-5v4h-5v4l-4 1-1 5h-4v3h-2v-2h-3v6l-8 1-1 5h-3l-1 4h-3v4h-5l-1 5h-4v4c-0.64 0.1-1.28 0.21-1.94 0.31-0.68 0.23-1.36 0.46-2.06 0.69l-1 3h-4v6h-5v3l-8 1v4h-5v4h-3v5h-6v4h-4v4l-4 1-1 4h-8l-1 5h-4v5h-4v3l-4 1-1 4h-3v4h-6v5h-4v4h-5v4l-8 1v4h-4l-1 5h-4v4h-5v4h-3v5h-6v4h-4v4c-2.97 0.33-5.94 0.66-9 1v4h-4l-1 5h-4v4h-4v4l-4 1-1 5h-4v3h-5v5h-8v4l-4 1-1 4h-4v4h-5v5h-4v4h-5v4h-4v6h-8l-1 4h-4v4h-5v4h-4l-1 5h-4v4h-4v4h-5v5h-8l-1 5h-4v5h-4v3h-5v5h-4v4h-5v5h-4v4h-5v4l-8 1v4h-5v4h-4v6h-5v3c-0.64 0.1-1.28 0.21-1.94 0.31-1.02 0.34-1.02 0.34-2.06 0.69l-1 3c-0.99 0.33-1.98 0.66-3 1-0.73 2.02-0.73 2.02-1 4-0.64 0.1-1.28 0.21-1.94 0.31-1.02 0.34-1.02 0.34-2.06 0.69l-1 3c-2.31 0.33-4.62 0.66-7 1v4h-6v4c-0.99 0.33-1.98 0.66-3 1-0.73 2.02-0.73 2.02-1 4h-5v4l-8 1v5h-4l-1 4h-4v4h-5v4h-3v5h-6v4h-4v4l-4 1-1 4h-4v4l-8 1v5h-5v3l-4 1-1 4h-3v4h-6v4h-4v5l-8 1-1 4h-4v4h-5v4h-4v5h-5v4h-3v5h-10v8l-8 1v4h-5l-1 5h-4v4h-4v4l-4 1-1 4h-3v4h-6v4h-4v5l-8 1-1 4h-4v4h-5v4h-4v5h-5v4l-8 1v5h-5v3h-4v5h-5v4h-4c-0.5 2.47-0.5 2.47-1 5h-4v4c-0.96 0.15-0.96 0.15-1.94 0.31-0.68 0.23-1.36 0.46-2.06 0.69l-1 3c-2.31 0.33-4.62 0.66-7 1v4h-5v4c-0.9 0.12-0.9 0.12-1.81 0.25-2.37 0.56-2.37 0.56-3.5 2.81-0.56 0.64-1.12 1.28-1.69 1.94-3.69 0.25-3.69 0.25-7 0-0.29-0.64-0.58-1.28-0.88-1.94-0.95-2.21-0.95-2.21-3.12-3.06v-4h-5v-4h-4v-5h-4l-1-8h-3v-5h-5l-1-4-4-1v-3h-4l-1-9-8-1v-9h-5v-4h-4v-5l-2-1c-2-2-2-2-2.12-4.62 0.04-0.79 0.08-1.57 0.12-2.38l8-1v-4h4l1-8h4v-5l4-1 1-8h4v-5h4l1-8h5v-5h3l1-9h4v-5h4l1-8h4v-9h4l1-5h4v-8h4v-5h4l1-9h5v-5h3l1-8h4v-5h4l1-8c0.99-0.33 1.98-0.66 3-1l1-8h4l1-5h4v-8h4v-5h4l1-8h5v-5h3l1-9h4v-5h4l1-9h4v-8h4v-4h5v-10h4v-4h4l1-9h5v-5h3l1-8h4v-4h4l1-10h4v-5h4v-8l4-1 1-8h4l1-5h4v-8h5v-5h3l1-9h4v-4h4l1-9h4v-5h4v-8l4-1 1-8h4v-5h4l1-9h5v-8h4v-4h4v-6h4l1-8h4v-5h4l1-8c0.99-0.33 1.98-0.66 3-1l1-8h4v-4h5v-10l5 1v-5c1.49-0.5 1.49-0.5 3-1v-7l5-1v-5h4l1-8h4v-4h4v-9l5-1v-8h4v-5h5v-5h5v-8c1.49-0.5 1.49-0.5 3-1 0.73-2.02 0.73-2.02 1-4h4v-9h5v-4h4v-5h4v-4h5v-5h4v-4c5.94-0.33 11.9-0.66 18-1v-3z" fill="#000002"/>
<path transform="translate(217 350)" d="m0 0c1.04-0 2.07-0.01 3.14-0.01 3.47-0.01 6.93 0.01 10.4 0.02 2.48 0 4.97 0 7.46-0.01 6.05 0 12.1 0.01 18.1 0.03 7.05 0.01 14.1 0.01 21.1 0.01 12.6 0.01 25.1 0.02 37.7 0.05 12.2 0.02 24.4 0.03 36.6 0.04h2.28 4.54 2.26 2.26c11.6 0 23.2 0.02 34.9 0.03 4.22 0 8.43 0.01 12.6 0.01 7.31 0 14.6 0.01 21.9 0.03 2.42 0 4.85 0.01 7.28 0.01 3.31 0 6.61 0.01 9.92 0.02 0.97 0 1.94 0 2.93-0.01 0.89 0.01 1.77 0.01 2.69 0.02h2.31c3.57 0.22 5.51 0.51 8.05 3.13 2.42 2.34 3.82 2.42 7.06 3 1.56 1.43 1.56 1.43 3 3 0.66 0.29 1.32 0.57 2 0.87 2.7 1.52 3.45 3.47 5 6.13 0.87 0.86 1.73 1.73 2.63 2.62 2.37 2.38 2.37 2.38 3.37 5.38 1.18 0.46 1.18 0.46 2.38 0.93 3.07 1.25 3.94 2.26 5.62 5.07 0.33 0.86 0.66 1.73 1 2.62 0.88 2.69 0.88 2.69 4 4.38l-1 1c0.48 0.37 0.96 0.75 1.46 1.13 3.79 3.07 5.93 5.16 7.54 9.87 0.99 0.33 1.98 0.66 3 1l3 3c0.68 0.22 1.36 0.45 2.06 0.68 3.22 2.18 3.21 5.68 3.94 9.32l1 3c0.58 0.29 1.16 0.57 1.75 0.87 5.68 2.84 10.9 9.23 13.2 15.1v3h4c0.12 0.57 0.25 1.15 0.38 1.75 0.65 2.35 1.31 4.18 2.62 6.25 1.85 1.05 1.85 1.05 4 2 4.84 3.26 4.84 3.26 5.56 6.62 0.15 0.79 0.29 1.57 0.44 2.38 0.64 0.31 1.28 0.62 1.94 0.93 2.06 1.07 2.06 1.07 3.31 4.19 0.37 1.43 0.37 1.43 0.75 2.88h2c1.55 1.57 1.55 1.57 3.31 3.68 2.06 2.44 4.04 4.64 6.38 6.82 2.05 2.22 2.87 3.52 4.06 6.18 2.23 4.88 5.74 8.38 9.42 12.2 1.83 2.1 1.83 2.1 1.83 4.1h2c0.21 0.88 0.41 1.77 0.63 2.68 1.42 3.44 2.85 4.81 5.77 7.02 2.64 2.14 4.56 4.6 6.6 7.3v2c0.99 0.33 1.98 0.66 3 1 1.13 1.74 1.13 1.74 2.13 3.87 0.49 1.05 0.49 1.05 1 2.12 0.87 2.01 0.87 2.01 1.87 5.01 1.31 0.7 2.65 1.36 4 2 4.28 2.96 7.4 6.5 10 11v2c0.6 0.2 1.2 0.41 1.81 0.62 3.03 1.9 3.84 4.13 5.19 7.38v2c0.99 0.33 1.98 0.66 3 1 1.68 1.7 1.68 1.7 3.44 3.81 1.94 2.3 3.84 4.46 6 6.56 1.56 1.63 1.56 1.63 1.56 3.63h2c0.25 0.9 0.5 1.81 0.75 2.75 1.3 3.38 2.65 4.82 5.25 7.25v2c0.59 0.25 1.17 0.5 1.77 0.76 2.53 1.4 3.98 2.92 5.86 5.11 0.88 1.02 0.88 1.02 1.78 2.06 2.39 3.11 3.59 5.1 3.59 9.07h2c5 5.47 5 5.47 5 8 0.76 0.06 1.52 0.13 2.3 0.2 2.7 0.8 2.7 0.8 4.4 2.91 0.7 1.3 0.7 1.3 1.43 2.64 0.47 0.86 0.95 1.72 1.44 2.61 0.71 1.3 0.71 1.3 1.43 2.64 3.5 6.09 8.18 10.2 13.6 14.7 1.45 1.33 1.45 1.33 2.45 3.33 0.04 2 0.04 4 0 6 0.84 0.31 0.84 0.31 1.69 0.62 2.6 1.55 4.16 3.45 6.03 5.8 2.65 3.26 5.52 6.05 8.97 8.45 3.01 2.77 3.45 5.18 4.31 9.13 0.65 3.07 0.65 3.07 2.81 4 1.09 0.49 1.09 0.49 2.19 1 2.25 1.5 2.25 1.5 4 3v2h2c0.41 0.76 0.82 1.52 1.24 2.3 0.54 0.99 1.08 1.99 1.64 3.01 0.8 1.48 0.8 1.48 1.61 2.99 1.93 3.45 3.18 5.48 6.51 7.7 3.52 3.23 6.8 6.67 9.81 10.4 1.92 2.66 1.92 2.66 4.19 3.63v2h2l1 7h2v3c0.84 0.31 0.84 0.31 1.69 0.62 2.62 1.56 4.21 3.49 6.08 5.87 1.3 1.67 1.3 1.67 3.42 3.44 2.43 2.77 2.99 5.52 3.81 9.07h2v2c0.59 0.09 1.18 0.18 1.79 0.28 6.32 2.05 10.5 10.5 13.8 15.8 1.39 2.16 1.39 2.16 4.36 3.89 0.39 1.07 0.78 2.14 1.19 3.25 1.29 3.33 2.79 4.66 5.75 6.62 5.58 3.81 7 8.96 9.06 15.1 2.02 0.73 2.02 0.73 4 1v2l2 1c0.99 1.71 1.97 3.42 2.91 5.16 1.16 2.07 1.16 2.07 3.34 4.52 1.75 2.32 1.75 2.32 1.75 6.32-2.62 1.91-4.93 2.97-8 4l-1 5c-0.99 0.33-1.98 0.66-3 1l-1 2c-0.99 0.33-1.98 0.66-3 1-0.33 0.82-0.66 1.65-1 2.5-0.33 0.82-0.66 1.65-1 2.5-0.99 0.33-1.98 0.66-3 1l-1 7c-0.99 0.33-1.98 0.66-3 1l-1 3-3 2c-0.72 2.06-0.72 2.06-1 4-0.93 0.06-0.93 0.06-1.87 0.12-0.71 0.29-1.41 0.58-2.13 0.88-0.72 1.98-1.38 3.98-2 6l-3 2c-0.72 2.06-0.72 2.06-1 4h-4l-1 4-4 1v3l-3 2c-0.29 1.09-0.58 2.18-0.87 3.31-1.28 4.18-2.79 5.93-6.13 8.69h-2c-0.27 0.8-0.54 1.61-0.81 2.43-0.59 1.27-0.59 1.27-1.19 2.57-0.99 0.33-1.98 0.66-3 1-0.73 2.01-0.73 2.01-1 4h-2l-1 7h-5l-2 5h-3v5h-3c-0.27 0.64-0.54 1.28-0.81 1.93-1.19 2.07-1.19 2.07-4.19 3.07l-1 7c-0.99 0.33-1.98 0.66-3 1l-1 3c-2.06 0.68-2.06 0.68-4 1-0.06 0.93-0.12 1.85-0.19 2.81-0.81 3.19-0.81 3.19-3.25 4.94-1.27 0.62-1.27 0.62-2.56 1.25-2.46 2.46-3 4.7-4 8h-2l-1 6c-1.98-0.33-3.96-0.66-6-1v5h-3l-1 5c-0.99 0.33-1.98 0.66-3 1-1.23 3.51-1.23 3.51-2 7h-4v5c-0.99 0.33-1.98 0.66-3 1l-1 3h-4l-1 5h-3l-2 8-4 1c-0.12 0.57-0.25 1.15-0.37 1.75-0.64 2.27-1.52 4.17-2.63 6.25h-5l-1 5c-0.99 0.33-1.98 0.66-3 1l-1 9-4 1-1 2-3 2c-0.8 0.99-1.61 1.98-2.44 3-2.35 2.76-3.5 3.47-6.56 5-0.36 1.32-0.7 2.66-1 4-0.99 0.33-1.98 0.66-3 1-0.78 1.7-1.56 3.4-2.25 5.15-1.01 2.48-2.2 4.66-3.75 6.85-0.99 0.33-1.98 0.66-3 1-0.7 1.31-1.37 2.65-2 4l-2 1c-1.13 2.01-1.13 2.01-2 4h-3l-1 8c-0.96 0.18-0.96 0.18-1.94 0.37-0.68 0.21-1.36 0.41-2.06 0.63l-1 2h-3v5c-0.6 0.27-1.2 0.53-1.81 0.81-2.23 1.08-2.23 1.08-3.81 2.81l-1.38 1.38h-2v4c-0.62 0.18-1.24 0.37-1.87 0.56-3.15 2.13-3.16 4.88-4.13 8.44-0.99 0.33-1.98 0.66-3 1-0.34 1.33-0.68 2.66-1 4l-3 2-1 3h-4v4l-4 1-1 8h-5l1 3h-4c0.1 0.76 0.21 1.52 0.31 2.31-0.1 0.89-0.2 1.77-0.31 2.69-2.31 1.62-2.31 1.62-5 3-2.73 2.26-3.66 4.32-4.69 7.68-0.25 0.81-0.5 1.62-0.76 2.45-0.18 0.62-0.36 1.23-0.55 1.87h-2v2c-0.74 0.14-1.48 0.29-2.25 0.43-3.74 2.13-4.29 4.62-5.66 8.57-0.36 0.66-0.72 1.32-1.09 2-2.05 0.59-2.05 0.59-4 1-0.72 1.98-1.38 3.98-2 6l-3 2-1 3h-3v4c-0.8 0.27-1.61 0.53-2.44 0.81-0.84 0.39-1.69 0.78-2.56 1.19l-1 3h-3c-0.12 1.11-0.25 2.22-0.37 3.37-0.63 3.63-0.63 3.63-2.63 5.63h-3c-0.12 0.8-0.25 1.61-0.37 2.43-0.31 1.27-0.31 1.27-0.63 2.57l-2 1-1 3h-4c-0.31 0.8-0.62 1.61-0.94 2.43-1.06 2.57-1.06 2.57-2.06 3.57-0.37 2.33-0.7 4.66-1 7-0.8 0.27-1.61 0.53-2.44 0.81-0.84 0.39-1.69 0.78-2.56 1.19l-1 3h-4v5h-3c-0.4 0.96-0.4 0.96-0.81 1.93-1.19 2.07-1.19 2.07-4.19 3.07l-1 8h-3v3l-5 1-1 5h-4v4l-4-1c-0.12 0.78-0.25 1.56-0.37 2.37-0.63 2.63-0.63 2.63-2.63 4.63-0.12 0.99-0.25 1.98-0.37 3-0.31 1.48-0.31 1.48-0.63 3-1.81 1.12-1.81 1.12-4 2-2.66 2.35-3.86 3.59-5 7-2.06 0.68-2.06 0.68-4 1l-1 4c-2.97 0.33-5.94 0.66-9 1v3c-35.8 0.11-71.6 0.2-107 0.25-4.22 0.01-8.45 0.02-12.7 0.02-0.84 0-1.68 0-2.55 0.01-13.6 0.02-27.2 0.06-40.9 0.1-14 0.05-28 0.08-41.9 0.09-8.63 0-17.3 0.03-25.9 0.07-5.91 0.02-11.8 0.03-17.8 0.02-3.41 0-6.82 0.01-10.2 0.03-3.7 0.03-7.4 0.02-11.1 0.01-1.08 0.01-2.16 0.03-3.27 0.04-6.71-0.06-10.3-1.01-15.3-5.64v-2h-3c-3.6-2.96-5.87-5.77-6.37-10.4 0.12-0.85 0.24-1.69 0.37-2.56 0.64-0.19 1.28-0.37 1.94-0.57 0.68-0.47 1.36-0.94 2.06-1.43 0.25-1.74 0.25-1.74 0.5-3.5 0.25-1.74 0.25-1.74 0.5-3.5 1.94-1.19 1.94-1.19 4-2 1.11-1.89 1.11-1.89 2-4 1.96-2.98 2.53-3.84 6-5 1.01-1.33 2.01-2.66 3-4h2c0.27-0.62 0.54-1.24 0.81-1.88 1.19-2.12 1.19-2.12 4.19-4.12 1.18-1.52 1.18-1.52 2.38-3.07 2.62-2.93 2.62-2.93 5.18-3.81 2.15-0.11 4.29-0.12 6.44-0.12 0.27-0.75 0.54-1.49 0.81-2.25 1.15-2.66 2.27-4.6 4.19-6.75 0.99-0.33 1.98-0.66 3-1 1.21-2 1.21-2 2-4h3l2-4h5c0.25-0.64 0.5-1.28 0.75-1.94 1.25-2.06 1.25-2.06 3.31-2.63 0.64-0.14 1.28-0.28 1.94-0.43l1-3c5.47-5 5.47-5 8-5 0.08-0.62 0.17-1.24 0.25-1.88 0.75-2.12 0.75-2.12 2.63-3.19 0.7-0.3 1.4-0.61 2.12-0.93 0.5-0.52 0.99-1.03 1.5-1.57 1.5-1.43 1.5-1.43 3.5-1.87 2.72-0.76 3.41-2.32 5-4.56h2l2-4h3c0.23-0.75 0.45-1.49 0.69-2.25 1.58-3.32 3.38-4.59 6.31-6.75 0.7-0.75 1.4-1.49 2.13-2.25 1.87-1.75 1.87-1.75 4.87-1.75 0.22-0.96 0.22-0.96 0.44-1.94 0.56-2.06 0.56-2.06 1.56-3.06 2.33-0.04 4.67-0.04 7 0 0.29-0.79 0.58-1.57 0.88-2.38 1.12-2.62 1.12-2.62 3.12-4.62h3c0.27-0.81 0.54-1.61 0.81-2.44 0.39-0.85 0.79-1.69 1.19-2.56 0.99-0.33 1.98-0.66 3-1 1.01-1.66 2.01-3.33 3-5h2l2-4c0.74 0.1 1.49 0.2 2.25 0.31 2.99-0.02 2.99-0.02 4.88-2.81 0.61-0.83 1.23-1.65 1.87-2.5h3v-3l4-1v-3h4c0.14-0.81 0.29-1.61 0.44-2.44 0.56-2.56 0.56-2.56 1.56-3.56 0.93 0.1 1.86 0.2 2.81 0.31 1.58-0.15 1.58-0.15 3.19-0.31 1.4-1.96 2.73-3.96 4-6 1.65-0.71 3.32-1.38 5-2 1.34-2.02 1.34-2.02 2-4h3c0.27-0.81 0.54-1.61 0.81-2.44 0.39-0.85 0.79-1.69 1.19-2.56 0.99-0.33 1.98-0.66 3-1l1-3c2-0.67 4-1.34 6-2 1.37-1.3 2.71-2.63 4-4 0.99-0.33 1.98-0.66 3-1 1.37-1.64 1.37-1.64 2.56-3.57 1.26-1.94 1.26-1.94 2.44-3.43h2c0.06-0.62 0.12-1.24 0.19-1.88 0.81-2.12 0.81-2.12 3.19-3.19 0.86-0.3 1.73-0.61 2.62-0.93 0.45-0.48 0.91-0.95 1.38-1.44 2.48-2.39 5.47-3.21 8.66-4.4 2.16-0.98 2.16-0.98 2.55-3.23 0.13-0.64 0.27-1.28 0.41-1.93 0.99-0.33 1.98-0.66 3-1 0.46-0.96 0.46-0.96 0.94-1.94 1.31-2.54 2.51-2.91 5.06-4.06l1-2c2.33-1 4.67-2 7-3l1-2c0.62-0.29 1.24-0.58 1.88-0.88 2.49-1.32 3.47-2.88 5.12-5.12h2v-2c0.99-0.33 1.98-0.66 3-1 0.5-0.83 0.99-1.65 1.5-2.5 1.5-2.5 1.5-2.5 4.5-3.5 0.68-0.75 0.68-0.75 1.38-1.5 1.62-1.5 1.62-1.5 4.18-2 2.8-0.28 2.8-0.28 4.44-3.5h3l1-4h4v-5c0.99-0.33 1.98-0.66 3-1l2-3c1.16-0.31 2.31-0.62 3.5-0.94 3.57-0.68 3.57-0.68 4.94-3.19 0.18-0.62 0.37-1.24 0.56-1.87h3l2-4h2c0.31-0.84 0.31-0.84 0.63-1.69 1.88-3.17 4.53-4.99 7.37-7.31 0.45-0.75 0.91-1.49 1.38-2.25 2.63-2.84 5.85-2.39 9.62-2.75l1-2h2c0.08-0.79 0.17-1.57 0.25-2.38 0.25-0.86 0.5-1.73 0.75-2.62 1.94-1.07 1.94-1.07 4-2 0.68-1.33 1.35-2.66 2-4 0.99-0.33 1.98-0.66 3-1 0.72-0.95 1.44-1.9 2.19-2.88 2.56-3.27 5.1-4.28 9.04-5.38 2.15-0.71 2.15-0.71 3.77-3.74h2c0.37-0.87 0.37-0.87 0.75-1.75 1.46-2.62 2.93-4.35 5.25-6.25h4c0.02-0.6 0.04-1.2 0.06-1.82 0.94-2.18 0.94-2.18 4.32-3.87 2.19-0.8 4.4-1.57 6.62-2.31 0.14-0.64 0.29-1.28 0.44-1.94 0.18-0.68 0.37-1.36 0.56-2.06 1.33-0.67 2.67-1.34 4-2 1.05-1.64 2.05-3.31 3-5 2.06-2.41 2.89-2.97 6-4 0.45-0.68 0.91-1.36 1.38-2.07 1.62-1.93 1.62-1.93 4.31-2.18 0.76 0.08 1.52 0.16 2.31 0.25l1-4c1.14-0.1 1.14-0.1 2.31-0.19 2.88-0.57 2.88-0.57 4.38-3.19 0.43-0.86 0.86-1.73 1.31-2.62 2.09-3.13 2.81-3.46 6-5 1.58-1.42 1.58-1.42 3-3 1.56-1.69 1.56-1.69 3-3h2l1-5c1.07-0.25 2.15-0.5 3.25-0.75 3.8-1.27 5.15-2.36 7.75-5.25h2l2-4h3c0.06-0.56 0.12-1.12 0.19-1.69 1.2-3.42 3-5.07 5.81-7.31h6c1.72-2.45 1.72-2.45 3-5h3v-3c4.23-4 4.23-4 8-4 0.27-0.6 0.54-1.2 0.81-1.82 1.18-2.17 2.46-3.45 4.19-5.18l1-3c0.93-0.09 1.86-0.17 2.81-0.25 1.05-0.25 2.11-0.5 3.19-0.75 0.43-0.7 0.87-1.41 1.31-2.13 0.56-0.62 1.12-1.24 1.69-1.87 3.07-0.06 5.99 0.42 9 1v-2l5-1v-2h6l1-2c0.99 0.33 1.98 0.66 3 1 0.69 2.06 0.69 2.06 1 4-0.93 0.55-1.86 1.11-2.81 1.68-3.13 2.28-4.49 3.91-6.19 7.32l3 3c-4.75 1-4.75 1-7 1 0.06 0.9 0.12 1.81 0.19 2.75-0.21 3.64-0.93 4.53-3.19 7.25-0.7 2.14-0.7 2.14-1 4h-3c-0.1 0.64-0.21 1.28-0.31 1.93-0.23 0.69-0.46 1.37-0.69 2.07-0.99 0.33-1.98 0.66-3 1l-1 3c-0.99-0.33-1.98-0.66-3-1l-3 2c-0.99 0.33-1.98 0.66-3 1-0.74 0.77-0.74 0.77-1.5 1.56-1.5 1.44-1.5 1.44-4.5 1.44-2.1 1.65-2.1 1.65-4.12 3.81-0.71 0.71-1.41 1.42-2.14 2.14-1.94 2.02-1.94 2.02-2.74 5.05-0.68 0.1-1.36 0.2-2.06 0.31-6.28 1.47-10.2 3.34-13.9 8.69-1.33 1.33-2.67 2.66-4 4-0.74 0.8-1.48 1.61-2.25 2.43-2.81 2.62-5.31 3.92-8.75 5.57-2.51 1.88-4.78 3.78-7 6v3c-0.56 0.27-1.11 0.53-1.69 0.81-3.77 1.94-7.04 3.96-10.3 6.69-3.4 2.83-6.84 4.89-10.8 6.93-2.65 1.85-2.69 2.51-3.25 5.57-0.99 1.34-1.99 2.67-3 4-0.31 0.88-0.62 1.77-0.94 2.68-1.06 2.32-1.06 2.32-3 3.13-2.06 0.19-2.06 0.19-5.06 0.19-2.78 2.51-4.92 4.88-7 8-1.33 1.33-2.67 2.66-4 4-1.01 1.18-2.01 2.37-3 3.56-2.16 2.55-4.26 4.52-7 6.44-0.93 0.96-0.93 0.96-1.87 1.93-2.5 2.42-5.23 4.16-8.13 6.07l-3 3c-1.25 0.98-2.53 1.93-3.81 2.87-2.59 1.91-5.11 3.86-7.56 5.94-2.63 2.19-2.63 2.19-4.63 3.19-0.96 1.15-1.89 2.32-2.81 3.5-2.68 3.22-4.09 3.74-8.19 4.5-2.33 2.96-2.33 2.96-4 6-0.74-0.23-1.48-0.46-2.25-0.69-2.78-0.6-2.78-0.6-4.94 1-1.79 1.66-3.51 3.38-5.21 5.13-2.2 2.14-4.59 4.03-6.98 5.96-1.73 1.53-1.73 1.53-2.62 3.7-1.63 3.09-4.87 3.56-8 4.9-1.09 1.93-1.09 1.93-2 4-2.82 2.07-5.68 3.82-8.75 5.5-2.48 1.65-3.09 2.82-4.25 5.5l-2 1c-3.22 2.9-5.2 4.73-6 9-2.45 4.78-4.88 7.29-10 9h-3c-1.69 0.95-3.36 1.95-5 3l-2 1c-0.41 0.43-0.82 0.86-1.25 1.31-2.35 2.26-5.04 3.88-7.75 5.69-1.71 1.54-1.71 1.54-3 3l-2 2c-0.7 1.31-1.37 2.65-2 4 0.99 1.32 1.98 2.64 3 4-1.05 0.18-1.05 0.18-2.12 0.37-0.95 0.21-1.9 0.41-2.88 0.63-1.34 0.28-1.34 0.28-2.71 0.57-4.64 2.01-7.39 5.26-10.8 8.93-7.36 7.95-7.36 7.95-13.5 9.5-1.15 1.96-1.15 1.96-2 4-3.06 1.97-6.55 2.9-10 4-3.09 0.64-3.09 0.64-4 2.87-0.33 0.7-0.66 1.4-1 2.13l-3 3c-0.45 0.82-0.91 1.65-1.37 2.5-1.87 2.87-3.71 3.8-6.63 5.5l-1 3-2 1c-1.51 1.72-2.94 3.51-4.37 5.31-3.66 3.79-7.57 3.99-12.6 4.69-7.61 2.09-12.9 7.17-18.6 12.5-3.39 3.07-5.87 4.21-10.4 4.54l-1 3c-2.27 1.39-4.5 2.16-7.03 2.97-5.64 2.42-9.58 7.14-13.8 11.5-1.29 1.29-1.29 1.29-2.6 2.61-4.96 5-4.96 5-8.59 11-1.81 1.06-1.81 1.06-4 2-3.72 1.84-3.72 1.84-6 5.12-0.49 0.93-0.49 0.93-1 1.88-2.31 0.56-2.31 0.56-5 1-2.54 1.35-2.54 1.35-5 3-0.85 0.47-1.69 0.95-2.56 1.43-4.42 2.84-6.82 6.09-9.44 10.6-0.7 0.84-1.4 1.69-2.12 2.56-1.97 2.2-1.97 2.2-2.31 4.4-0.86 3.06-2.88 4.42-5.19 6.47-1.64 1.86-2.08 3.12-2.38 5.57 1.01 2.77 1.01 2.77 3 5 2.35 0.77 2.35 0.77 5 1 1.03 0.35 2.06 0.7 3.13 1.06 2.84 1.09 2.84 1.09 5.87 0.94 2 1 2 1 4.44 3.12 0.84 0.62 1.69 1.24 2.56 1.88 0.99-0.33 1.98-0.66 3-1 0.5-2.48 0.5-2.48 1-5 1.67-0.35 3.33-0.68 5-1 1.03-0.23 2.06-0.46 3.13-0.69 2.87-0.31 2.87-0.31 5.87 1.69 0.54-0.37 1.07-0.75 1.63-1.13 3.35-1.23 5.12-0.16 8.37 1.13 1.33 0.35 2.66 0.69 4 1l-1 3v3c2.76 0.59 5.16 1 8 1 0.76 0.04 1.53 0.08 2.31 0.12 3.17-0.14 5.73-1.02 8.69-2.12l1 2-1 2h2l1-4v2c3.01 0.93 3.87 1.04 7 0l1-2c0.6 0.16 1.2 0.33 1.81 0.5 2.3 0.61 2.3 0.61 5.19 0.5l1-3-2-1c0-3 0-3 1-5 0.93 0.02 1.86 0.04 2.81 0.06 3.21 0.1 3.21 0.1 6.19-1.06 2.19 1.43 2.19 1.43 4 3 0.78-0.66 1.57-1.32 2.38-2 2.62-2 2.62-2 4.62-2l1-3c0.76 0.78 1.53 1.56 2.31 2.37 2.6 2.7 2.6 2.7 5.69 4.63l2 2 5-2v-2h-6v-2c5.21-3.47 8.09-2.87 14-2l1-2c3 1 3 1 4 3l2-1 1 4 3-3c2.47 1.15 4.05 2.05 6 4l-1-4c0.99-0.33 1.98-0.66 3-1l1 4c0.76-0.19 1.53-0.37 2.31-0.57 2.69-0.43 2.69-0.43 5.69 0.57l2-1v2c2.45-0.11 2.45-0.11 5-1 1.37-2.48 1.37-2.48 2-5h3c0.99 1.48 0.99 1.48 2 3 2.16-0.95 2.16-0.95 4-3 1.34 0.31 2.67 0.65 4 1 2.05-0.41 2.05-0.41 4-1h11c0.71-0.01 1.42-0.03 2.16-0.04 1.16-0.01 1.16-0.01 2.34-0.03 0.77-0.01 1.55-0.02 2.34-0.03 2.16 0.1 2.16 0.1 5.16 1.1 2.33 0.04 4.67 0.04 7 0l1-2c1.31-1.36 2.65-2.69 4-4l2 2c2.8-2.53 4.46-4.21 5-8h6c2.34-0.64 4.67-1.31 7-2 0.99-0.17 0.99-0.17 2-0.35 2.58-0.84 3.69-2.15 5.5-4.15 2.49-2.76 3.92-3.66 7.5-4.5 0.68-1.66 1.35-3.33 2-5 2.18-1.43 3.4-2 6-2 2.61-1.31 2.68-2.36 3.63-5.07 0.26-0.73 0.52-1.46 0.78-2.22 0.29-0.85 0.29-0.85 0.59-1.71h3l-1 4c0.62-0.19 1.24-0.37 1.88-0.57 2.12-0.43 2.12-0.43 4.12 0.57-0.1-1.05-0.21-2.11-0.31-3.19 0.31-3.81 0.31-3.81 2.69-6.75 2.62-2.06 2.62-2.06 4.62-2.06v-3h2c0.37-0.96 0.37-0.96 0.75-1.94 1.25-2.06 1.25-2.06 3.38-2.81 0.92-0.13 0.92-0.13 1.87-0.25v-3c0.64-0.23 1.28-0.46 1.94-0.69 1.02-0.65 1.02-0.65 2.06-1.31 0.14-0.81 0.29-1.61 0.44-2.44 0.18-0.85 0.37-1.69 0.56-2.56 1.66-1.01 3.33-2.01 5-3 1.99-1.78 3.88-3.55 5.75-5.44 0.49-0.48 0.99-0.96 1.5-1.45 2.61-2.61 4.14-4.45 4.75-8.11 1.67-1.67 3.33-3.34 5-5 3.83 1.45 5.12 3.43 7 7 2.31-0.99 4.62-1.98 7-3 0.08-2.01 0.08-2.01-0.5-3.94-0.5-2.06-0.5-2.06-0.5-5.06-0.98-1.02-1.98-2.02-3-3v-2c4.75-1 4.75-1 7-1l2-2c2.66-1.55 3.85-2 7-2l-2-4c2.2-1.8 4.01-3.01 6.69-4 0.76-0.33 1.52-0.66 2.31-1l1-3c0.99-0.33 1.98-0.66 3-1 0.7-1.32 1.36-2.65 2-4 1.44-1.59 1.44-1.59 3.07-3.1 0.59-0.55 1.17-1.11 1.78-1.68 1.23-1.15 2.47-2.3 3.71-3.45 0.59-0.55 1.17-1.11 1.76-1.68 0.54-0.5 1.08-1 1.63-1.51 1.29-1.55 1.29-1.55 0.72-3.59-0.22-0.66-0.44-1.31-0.67-1.99v-3c1.98-0.66 3.96-1.32 6-2l-1-3c3-2 3-2 6-2l2-1-1-2c0.68-0.84 0.68-0.84 1.38-1.69 3.18-4.53 3.98-8.85 4.62-14.3h3c0.99-0.33 1.98-0.66 3-1h2c0.8-0.83 1.61-1.65 2.44-2.5 2.56-2.5 2.56-2.5 5.56-2.5-0.03-0.7-0.07-1.4-0.11-2.12-0.02-0.91-0.05-1.82-0.08-2.76-0.03-0.9-0.07-1.81-0.1-2.74 0.09-0.79 0.19-1.57 0.29-2.38l3-2c0.79-1.85 0.79-1.85 1.19-3.94 0.24-1.03 0.24-1.03 0.48-2.09 0.41-2.13 0.41-2.13 0.33-4.97h3c2.05-0.1 2.05-0.1 4-1 1.05-1.64 2.05-3.31 3-5 3-2 3-2 5-2 1-3.59 1-3.59 0-7 1.08-0.13 1.08-0.13 2.19-0.25 3.39-0.91 5.12-2.53 7.81-4.75 3.28-1.56 6.43-2.39 10-3 0.08-2.68 0.01-4.95-0.62-7.57-0.45-2.92 0.19-3.92 1.62-6.43v-3c0.99-0.33 1.98-0.66 3-1 0.91-2.48 1-4.34 1-7 0.99 0.33 1.98 0.66 3 1 1.69-0.96 3.36-1.96 5-3 2.15-0.68 3.76-1 6-1 1.5-1.34 1.5-1.34 3-3l3-3-1-3 4-4c-0.49-0.77-0.99-1.53-1.5-2.32-1.5-2.68-1.5-2.68-1.5-5.68l-1-3c1.24-3.72 2.85-4.78 6-7h2c3.16-4.03 4.21-7.03 5-12l3-2c0.73-3.07 0.73-3.07 1-6 2 2 2 2 3 5-0.09-1.43-0.09-1.43-0.19-2.88 0.06-1.03 0.13-2.06 0.19-3.12 3-2 3-2 5-2v-3c0.99 0.33 1.98 0.66 3 1v-3c0.93-0.13 0.93-0.13 1.88-0.25 2.3-0.57 2.3-0.57 3.37-2.82 0.25-0.63 0.5-1.27 0.75-1.93 1.64 0.74 1.64 0.74 3.31 1.5 3.49 1.69 3.49 1.69 6.69 1.5-2.47-2.97-2.47-2.97-5-6 3-2 3-2 5-2l1-4h3c2.97-3.93 5-6.99 5-12l7 5v-4h2v-3l2-1c2.3-5.88 2.1-9.11 0-15 1.61 0.28 3.21 0.57 4.81 0.87 0.9 0.16 1.79 0.33 2.71 0.49 2.48 0.64 2.48 0.64 5.48 2.64 3.28-0.75 3.28-0.75 5-4l2-2 1-2h2v-2h3l1-3c0.45-0.44 0.91-0.87 1.38-1.32 1.85-1.74 1.85-1.74 3.06-4.75 1.69-3.17 2.37-3.64 5.56-4.93 2.64-1.96 2.98-2.89 3.69-6.19 0.1-0.93 0.2-1.86 0.31-2.81h3c0.17-1.01 0.33-2.02 0.5-3.07 1.23-4.48 4.15-6.47 7.66-9.3 2.23-1.98 3.1-3.76 3.84-6.63 1.27-2.55 2.49-2.75 5-4 2.98-2.32 3.5-4.31 4-8l4-1c-0.27-0.72-0.54-1.45-0.81-2.19-0.06-0.93-0.13-1.86-0.19-2.81 2.38-2.63 2.38-2.63 5-5l1-3c-0.47-0.58-0.95-1.16-1.44-1.75-2.15-3.11-1.63-5.54-1.56-9.25l-2-3c-0.19-1.24-0.19-1.24-0.37-2.5-0.39-2.65-0.39-2.65-2.63-4-2.62-1.97-2.37-3.38-3-6.5-1.96-1.83-1.96-1.83-4-3 1.07-2.13 2.29-3.37 4-5l-1-2h2c-1.68-6.15-3.6-10.4-8-15-0.99 0.33-1.98 0.66-3 1l-1-5h-2l-2 3c-2.31-0.07-2.31-0.07-5-1-1.87-3.38-1.87-3.38-3-7l1-3c-0.92-2.37-1.92-4.71-3-7l-1 2-4-4v5c-0.99 0.49-0.99 0.49-2 1l-5-5 1-3c-0.76-0.09-1.53-0.17-2.31-0.25-3.38-0.95-3.78-1.85-5.69-4.75-0.99-1.13-1.99-2.26-3-3.38-3.33-3.85-5.39-7.78-7-12.6-0.99-0.64-1.98-1.28-3-1.94-3.34-2.3-3.23-2.45-4-6.06-4.39-4.9-9.53-9.35-15-13-0.69-2.63-0.69-2.63-1-5-1.09-0.09-2.19-0.17-3.31-0.25-3.69-0.75-3.69-0.75-5.44-2.69-0.62-1.02-0.62-1.02-1.25-2.06l-3-2c0.07-1.98 0.13-3.95 0.21-5.92-0.29-2.91-1.85-4.51-3.83-6.57-2.56-2.81-5.38-6.66-5.38-10.5-0.76-0.56-1.53-1.12-2.31-1.69-3.28-2.82-4.07-5.33-5.69-9.31-0.86-1.27-1.76-2.53-2.69-3.75-2.31-3.25-2.31-3.25-2.31-6.25l-3 3c-5-5.63-5-5.63-5-9-0.16-0.99-0.33-1.98-0.5-3-0.51-3.07-0.5-5.9-0.5-9h-3l-1 4c-1.62 0.75-1.62 0.75-4 1-5.43-2.84-10.2-7.16-14-12-0.31-3.07-0.31-3.07 0-6-0.81-2.46-1.88-4.66-3-7l-4 2c-1.13-0.91-2.26-1.83-3.37-2.75-0.63-0.51-1.26-1.02-1.9-1.55-2.31-2.27-3.56-4.42-3.98-7.64-0.69-2.43-0.69-2.43-3.69-4.5-3.06-2.56-3.06-2.56-4.06-5.25-0.33-0.76-0.66-1.53-1-2.31-1.98-0.72-3.98-1.39-6-2-1.87-2.13-1.87-2.13-3-4l2-3-7-7 2-2c-0.49-0.6-0.99-1.2-1.5-1.82-1.5-2.18-1.5-2.18-1.5-5.18-1.39-1.84-1.39-1.84-3.25-3.57-0.6-0.59-1.21-1.19-1.83-1.81-1.84-1.7-1.84-1.7-4.08-2.64-1.84-0.98-1.84-0.98-3.09-4.11-0.25-0.95-0.49-1.9-0.75-2.87-0.56 0.39-1.11 0.78-1.69 1.18-2.31 0.82-2.31 0.82-4.87-0.18-2.92-2.4-3.84-4.6-5.44-8-2.56-3.6-5.42-6.43-9-9-1.69-1.65-3.36-3.31-5-5l2-2-2-2 2-1c-1.48-1.49-1.48-1.49-3-3l-1 4c-5.7-3.01-9.05-6.83-11-13v-3c-0.85-0.35-0.85-0.35-1.71-0.71-2.82-1.59-4.69-3.57-6.91-5.92-1.42-1.49-2.88-2.96-4.38-4.37h-2c-0.05-0.73-0.1-1.45-0.15-2.2-0.47-9.8-0.47-9.8-5.72-17.6-2.59-1.81-4.06-2.83-7.13-3.18-0.62-3.38-0.62-3.38-1-7l2-2c0.17-3.09 0.17-3.09 0-6-0.61-0.08-1.21-0.16-1.84-0.24-2.91-1.03-3.39-2.3-4.78-5.01-0.42-0.81-0.84-1.62-1.27-2.45-1.16-2.4-2.22-4.8-3.11-7.3l-4 2c-1.2-1.41-2.39-2.83-3.56-4.25-0.66-0.79-1.32-1.58-2.01-2.39-1.43-2.36-1.43-2.36-1.21-4.49 0.26-0.62 0.51-1.24 0.78-1.87 0.35-0.91 0.7-1.82 1.06-2.75 0.31-0.75 0.62-1.49 0.94-2.25l-2-1 1 3h-2v-4h-2l-1-3-2-2 1-2-5-2v-2l-4-1v-4c-0.99-0.33-1.98-0.66-3-1-1.03-1.63-1.03-1.63-2.06-3.57-1.2-1.97-1.2-1.97-2.94-3.43-2.68-0.47-4.99-0.39-7.7-0.15-2.3 0.15-2.3 0.15-5.3-0.85v-2c-0.62-0.11-1.24-0.21-1.87-0.32-2.13-0.68-2.13-0.68-4.13-3.68-1.11-1.1-2.26-2.16-3.44-3.19-0.59-0.53-1.19-1.06-1.81-1.61-1.81-1.49-1.81-1.49-4.75-1.2-1.35-0.64-2.68-1.31-4-2-1.45-0.53-2.91-1.03-4.37-1.5-2.68-0.87-5.35-1.75-8-2.69-2.65-0.96-2.65-0.96-5.63-0.81-0.99-0.33-1.98-0.66-3-1-0.78 0.33-1.57 0.66-2.37 1-3.15 1.2-4.38 0.68-7.63 0-2.7 0.19-5.32 0.59-8 1l-1 3c-0.99-0.33-1.98-0.66-3-1l-2 1-3-2 2-2c-1.26-0.33-2.52-0.66-3.81-1-1.06-0.28-1.06-0.28-2.15-0.57-2.18-0.54-2.18-0.54-5.04-0.43-0.99-0.33-1.98-0.66-3-1-4.24-0.44-5.72 0.44-9 3-4.47 1.57-7.59 0.42-12-1-3.79-1-6.2-0.91-10 0-2.33 0.34-4.66 0.68-7 1l-1 3-3-2v-2c-1.98 0.35-1.98 0.35-4 1l-1 2c-0.91-0.54-1.81-1.08-2.75-1.63-1.07-0.45-2.14-0.91-3.25-1.37-1.98 0.86-1.98 0.86-4 2-3.31-0.32-3.31-0.32-7-1-1.24-0.17-2.47-0.33-3.75-0.5-3.25-0.5-3.25-0.5-6.25-1.5h-3-8l-1-1-2 2c-0.74-0.48-1.48-0.95-2.25-1.44-3.21-1.88-3.21-1.88-6.75-2.56-3.11 1.84-5.5 4.41-8 7-2-3-2-3-2-6h-10c1.44 1.44 3.18 2.12 5 3-3.04 3.5-5.54 4.79-10 6-0.68 0.24-1.36 0.49-2.06 0.75-1.94 0.25-1.94 0.25-4.5-0.82-0.81-0.3-1.61-0.61-2.44-0.93l-3 2c-5.3 1.35-5.3 1.35-7.91 0.03-2.39-1.18-4-1.3-6.65-1.28-0.77-0.01-1.53-0.01-2.32-0.02-2.42 0.14-2.42 0.14-5.12 2.27-1.5-1.25-1.5-1.25-3-3v-4c-1.98-0.33-3.96-0.66-6-1l-2 4c-2.97-1.13-5.33-2.23-8-4-2.16 0.94-2.16 0.94-4 3-0.58 3.91-0.95 6.44 1.13 9.85 1.5 1.85 1.5 1.85 3.87 4.15-1.14 0.86-1.14 0.86-2.31 1.75-3.65 3.05-5.84 5.51-6.69 10.2 3.29 0.8 4.71 1.09 8 0 2.02 1.64 4.02 3.31 6 5h3c2.13 0.56 2.13 0.56 4 2 0.12 1.09 0.25 2.18 0.38 3.31 0.29 3.89 0.29 3.89 3.37 6.5 3.06 2.23 3.06 2.23 6.06 3.31 1.09 0.44 1.09 0.44 2.19 0.88l1 3c2 1.21 2 1.21 4 2-0.49 0.45-0.99 0.9-1.5 1.37-1.73 1.5-1.73 1.5-1.5 3.63 3.37 2.43 4.73 3 9 3v2c0.6 0.18 1.2 0.37 1.81 0.56 2.19 1.44 2.19 1.44 3.63 4.87 1.73 3.94 2.86 4.67 6.56 6.57v2c0.87-0.17 1.73-0.33 2.63-0.5 3.37 0.5 3.37 0.5 4.79 2.17 0.46 0.71 0.92 1.41 1.39 2.14 3.3 4.92 6.66 5.75 12.2 7.19 5.18 2.17 8.86 5.3 13 9 2.15 1.77 3.79 2.91 6.38 3.93 3.2 1.3 5.78 3.11 8.62 5.07 0.85 0.47 1.69 0.95 2.56 1.43 2.9 1.86 5.04 4.11 7.44 6.57 1.31 1.02 2.65 2.02 4 3 2.67 1.95 4.67 3.45 6.38 6.31 3.91 6.47 8.61 9.96 15.6 12.7 1.7 1.28 3.38 2.61 5 4l2 1c0.45 1.11 0.91 2.22 1.38 3.37 1.61 3.6 2.29 4.76 5.62 6.63 0.87 0.31 1.73 0.62 2.63 0.93 2.37 1.07 2.37 1.07 3.68 3.19 0.23 0.62 0.46 1.24 0.69 1.88h2l2 2h2c0.21 0.55 0.41 1.11 0.63 1.68 2.88 4.86 8.16 7.96 12.8 11.1 2.59 1.94 4.49 4.05 6.42 6.64 2.44 2.87 5.06 4.51 8.19 6.57 1.88 2.25 1.88 2.25 3 4 0.7-0.42 1.4-0.83 2.13-1.25 2.87-0.75 2.87-0.75 6 0.87 2.87 2.38 2.87 2.38 4.37 4.44 2.05 2.65 4.5 3.47 7.5 4.94 2.07 1.62 4.03 3.26 6 5 0.64 0.52 1.28 1.04 1.93 1.58 0.64 0.53 1.29 1.06 1.95 1.6 0.59 0.49 1.19 0.98 1.8 1.49 1.32 1.33 1.32 1.33 1.32 3.33h3v2h2v2c0.74-0.06 1.49-0.13 2.25-0.19 3.25 0.22 4.27 1.2 6.75 3.19h3c0.25 0.62 0.51 1.23 0.77 1.87 1.44 2.48 2.39 3 4.98 4.13 6 2.79 13.2 6.45 16 12.8 1.69 3.09 4.17 5.29 6.7 7.69 3.11 2.95 5.68 5.56 7.5 9.5 1.18 0.68 1.18 0.68 2.38 1.37 3.26 2.02 4.51 4.46 6.62 7.63 2.45 1.71 2.45 1.71 5 3 6.48 4.57 6.48 4.57 7.94 8.56 1.3 2.98 2.23 3.07 5.06 4.44 1.05 1.64 2.04 3.31 3 5 3.93 5.09 6.81 7.96 12.9 10.2 3 1.22 5.47 2.97 8.09 4.85 0.97 0.62 1.94 1.23 2.94 1.87 2.37 1.65 4.33 3.25 6.44 5.19 2.47 2.19 4.48 3.39 7.62 4.37 4.74 1.57 8.2 4.43 11 8.57-0.06 2.93-0.06 2.93-1 5 0.89 0.27 1.77 0.53 2.69 0.81 10.6 3.78 18.8 13.1 23.7 22.9 2.14 2.97 4.19 3.17 7.62 4.25 2.1 2.17 2.94 3.81 3.88 6.68 0.37 0.77 0.74 1.53 1.12 2.32 1.65 0.39 3.32 0.72 5 1 1.38 1.29 2.71 2.62 4 4 0.77 0.44 1.53 0.88 2.32 1.34 2.94 1.82 5.09 3.87 7.49 6.34 0.79 0.81 1.58 1.62 2.4 2.45 0.88 0.93 0.88 0.93 1.79 1.87 0.99-0.33 1.98-0.66 3-1 0.39 1.07 0.78 2.14 1.19 3.25 1.57 3.69 3.56 5.37 6.81 7.75 3.39 3.89 6.01 8.01 8.31 12.6 1.59 2.64 1.59 2.64 4.82 3.94 2.87 1.44 2.87 1.44 3.75 3.62 0.06 0.9 0.06 0.9 0.12 1.82 0.76 0.08 1.53 0.16 2.31 0.25 2.69 0.75 2.69 0.75 4.57 2.56 1.37 2.67 0.99 3.4 0.12 6.19 0.23 0.64 0.45 1.28 0.69 1.93 0.31 2.07 0.31 2.07-1.63 4.82-0.68 0.74-1.36 1.48-2.06 2.25l-2-3c-0.58-0.29-1.15-0.58-1.75-0.88-4.19-2.09-7.47-5.28-10.6-8.69-2.32-2.15-3.84-3.13-6.63-4.43-4.46-2.1-7.29-4.93-10.4-8.74-3.22-3.9-6.31-6.45-10.6-9.26-0.33-0.72-0.66-1.45-1-2.19-0.33-0.6-0.66-1.2-1-1.81-0.99-0.17-1.98-0.33-3-0.5-0.99-0.17-1.98-0.33-3-0.5-1.37-2.07-1.37-2.07-2-4h-3c-1.17-1.68-2.34-3.35-3.46-5.05-2.22-2.82-4.93-4.67-7.87-6.69-1.67-1.26-1.67-1.26-2.67-3.26-0.99-0.33-1.98-0.66-3-1-3-3.45-3-3.45-3-6h-6v-2l-2-1-3-2v-2c-0.76-0.06-1.53-0.13-2.31-0.19-2.69-0.81-2.69-0.81-4.44-3.13-1.05-2.26-1.8-4.23-2.25-6.68h-4v-2h-2v-2c-0.97-0.27-1.94-0.54-2.94-0.82-1.01-0.39-2.02-0.78-3.06-1.18l-1-3c-0.64-0.15-1.28-0.29-1.94-0.44-0.68-0.19-1.36-0.37-2.06-0.56-0.31-0.64-0.62-1.28-0.94-1.94-1.45-2.82-3.16-2.93-6.06-4.06-3-3.31-3-3.31-3-6-0.66-0.06-1.32-0.13-2-0.19-4.12-1.12-7.66-3.15-11-5.81v-2c-0.76-0.04-1.53-0.09-2.31-0.13-2.69-0.87-2.69-0.87-4.38-3.81-0.43-1.01-0.86-2.02-1.31-3.06-1.91-2.22-1.91-2.22-4.94-2.94-2.92-1.01-4.24-1.63-6.06-4.06v-2c-0.76-0.27-1.53-0.54-2.31-0.82-2.58-1.13-3.96-2-5.69-4.18v-2l-4-1c-0.09-0.93-0.09-0.93-0.19-1.88-0.27-0.7-0.53-1.4-0.81-2.12-1.65-0.7-3.32-1.37-5-2l-1-3c-0.99-0.33-1.98-0.66-3-1v-2c-0.72-0.11-1.44-0.21-2.19-0.32-5.62-1.37-8.38-4.18-11.8-8.68-5.27-5.7-11-9.74-18-13v-2c-0.84-0.37-0.84-0.37-1.69-0.75-4.03-2.18-7.12-4.91-10-8.44-2-2.83-2-2.83-4.31-3.81v-3c-1.14-0.19-1.14-0.19-2.31-0.38-2.69-0.62-2.69-0.62-5.69-2.62v-2c-0.74-0.06-1.48-0.13-2.25-0.19-3.63-1.07-4.46-2.84-6.75-5.81-1.79-1.39-3.62-2.65-5.51-3.89-1.49-1.11-1.49-1.11-2.49-3.11-1.07-0.44-2.14-0.87-3.25-1.32-3.75-1.51-6.12-3.57-8.75-6.68v-2c-0.99-0.33-1.98-0.66-3-1v-3h-5c-3.87-6.75-3.87-6.75-5-9-2.33-0.35-4.66-0.69-7-1-2.44-1.07-2.44-1.07-4-2v-2l-2-1c-4-4.59-4-4.59-4-7h-3v-2c-1.98-1.01-3.97-1.99-6-2.9-4.51-2.07-7.1-3.96-10-8.1-0.74-0.72-1.48-1.45-2.25-2.19-1.75-1.81-1.75-1.81-1.75-3.81l-5-2v-2c-2.28-1.17-4.57-2.26-6.91-3.3-1.04-0.48-2.08-0.96-3.15-1.45-1.05-0.47-2.09-0.94-3.16-1.42-3.36-2.22-4.13-4.23-5.78-7.83-1.81-1.76-1.81-1.76-3.87-3.07-2.57-1.78-4.51-3.33-6.69-5.62-2.24-2.12-3.43-2.86-6.19-3.94-1.07-0.45-2.14-0.91-3.25-1.37l-1-3c-0.99-0.33-1.98-0.66-3-1v-3l-4-2v-2c-1.21-0.19-1.21-0.19-2.44-0.38-0.84-0.2-1.69-0.41-2.56-0.62l-1-2c-2.31-1.06-4.64-2.06-7-3v-2l-5-1c-0.25-0.95-0.49-1.9-0.75-2.88-1.46-3.64-1.91-3.57-5.25-5.12-1.17-0.97-2.32-1.97-3.44-3-2.75-2.44-5.11-3.7-8.56-5-1.37-1.3-2.71-2.63-4-4l-2-1v-2h-2v-2l-2-1c-1.56-1.29-3.1-2.6-4.62-3.94-0.82-0.71-1.64-1.42-2.48-2.15-1.9-1.91-1.9-1.91-1.9-3.91h-3v-2c-1.28-0.21-2.56-0.42-3.87-0.63-2.23-0.54-2.23-0.54-4.13-1.37-1.25-3-1.25-3-2-6-1.8-1.28-1.8-1.28-4-2-4.18-2.09-6.55-4.69-9.46-8.22-3.33-3.85-6.52-6.61-11.5-7.78-1.94-1.75-1.94-1.75-4-4-0.8-0.81-1.61-1.61-2.44-2.44-1.71-1.71-3.39-3.44-5.06-5.19-2.34-2.42-2.34-2.42-5-3.75-2.98-1.94-4.3-4.07-6.25-6.99-1.71-2.23-3.82-3.26-6.25-4.63-2.88-2.89-3.94-4.2-4.25-8.32 0.08-0.88 0.17-1.77 0.25-2.68-0.99-0.33-1.98-0.66-3-1l-1-7c0.97-0.34 0.97-0.34 1.96-0.69 2.28-1.13 2.28-1.13 2.61-3.63 0.04-0.88 0.08-1.77 0.12-2.68 0.25-4.87 0.25-4.87 1.31-7 4.89-1.49 9.53-2.26 14.6-2.56 2.56-0.36 2.56-0.36 5.37-1.95 4.74-2.05 9.32-1.9 14.4-1.86zm360 528 1 3zm-23 22 1 2zm-22 18 1 3zm-164 133 1 2zm-80 68 1 2zm-116 97 1 2z" fill="#3DCEF9"/>
<path transform="translate(861,571)" d="m0 0h1v5c0.99 0.33 1.98 0.66 3 1h-2c-0.15 1.18-0.15 1.18-0.31 2.38-0.69 2.62-0.69 2.62-3.69 4.62-0.58 2.62-0.58 2.62-0.81 5.62-0.85 5.95-2.6 10.4-7.19 14.4-2.2 0.71-2.2 0.71-4 1 0.2-0.68 0.41-1.35 0.62-2.05 0.41-1.33 0.41-1.33 0.82-2.7 0.26-0.88 0.53-1.76 0.81-2.67 0.77-2.51 0.77-2.51 1.22-4.85 0.18-0.57 0.35-1.14 0.53-1.73l2-1c0.69-2.58 0.69-2.58 1.12-5.56 0.26-1.52 0.26-1.52 0.51-3.07 0.12-0.78 0.25-1.56 0.37-2.37h4l2-8z" fill="#000100"/>
<path transform="translate(600,858)" d="m0 0 4 2v3h-4c-0.27 0.76-0.54 1.53-0.81 2.31-1.15 2.61-1.99 3.93-4.19 5.69-0.99 0.33-1.98 0.66-3 1-0.99 1.49-0.99 1.49-2 3h-3v2l-9 4-1-5c1.07-0.25 2.14-0.5 3.25-0.75 3.8-1.27 5.15-2.36 7.75-5.25h2l2-4h3c0.08-0.58 0.16-1.15 0.25-1.75 0.96-2.87 2.53-4.25 4.75-6.25z" fill="#39C7FA"/>
<path transform="translate(916,492)" d="m0 0h5c0.55 3.73 0.08 4.88-2.19 8-0.92 1.01-1.86 2.01-2.81 3-1.27 1.33-1.27 1.33-2.56 2.69-5.6 5.31-5.6 5.31-8.44 5.31l-1 2c-0.99-0.33-1.98-0.66-3-1 0.5-1.49 0.5-1.49 1-3l1 1c0.25-0.78 0.5-1.57 0.75-2.38 1.46-3.06 2.3-3.24 5.25-4.62 0.68-1.33 1.35-2.66 2-4 0.99-0.33 1.98-0.66 3-1 1.23-3.01 1.23-3.01 2-6z" fill="#000100"/>
<path transform="translate(298,1231)" d="m0 0 6 4c-0.19 0.62-0.37 1.24-0.56 1.88-0.68 2.16-0.68 2.16 0.56 4.12-1.67 0.33-3.33 0.67-5 1-0.87 0.25-1.73 0.49-2.62 0.75-2.38 0.25-2.38 0.25-4.19-1.06-1.19-1.69-1.19-1.69-1.19-3.69l-2-1c0-3 0-3 1-5 0.95 0.02 1.9 0.04 2.88 0.06 3.03 0.17 3.03 0.17 5.12-1.06z" fill="#3DCDFA"/>
<path transform="translate(892,1060)" d="m0 0c4.92 4.31 4.92 4.31 5.31 7.81-0.1 0.72-0.2 1.45-0.31 2.19 0.64 0.21 1.28 0.41 1.94 0.62 2.06 1.38 2.06 1.38 2.81 4.5 0.12 1.43 0.12 1.43 0.25 2.88-0.99 0.33-1.98 0.66-3 1-0.73 2.02-0.73 2.02-1 4l-5-1c-0.03-1.42-0.05-2.83-0.06-4.25-0.01-0.79-0.03-1.58-0.04-2.39 0.1-2.36 0.1-2.36 0.66-4.54 0.61-2.51-0.4-3.56-1.56-5.82-0.12-2.75-0.12-2.75 0-5z" fill="#000100"/>
<path transform="translate(983,1216)" d="m0 0c6.75 0.75 6.75 0.75 9 3 0.41 2.57 0.41 2.57 0.62 5.69 0.12 1.6 0.12 1.6 0.23 3.24 0.17 3.37 0.23 6.7 0.15 10.1h-2c-0.28-0.7-0.55-1.4-0.84-2.12-0.36-0.91-0.72-1.82-1.1-2.76-0.36-0.9-0.72-1.8-1.09-2.74-0.92-2.34-0.92-2.34-1.97-4.38h2l1-4h-6v-6z" fill="#000100"/>
<path transform="translate(213,1179)" d="m0 0h5c-0.38 2.44-0.38 2.44-1 5-0.99 0.49-0.99 0.49-2 1v-2h-2c-0.14 0.89-0.14 0.89-0.29 1.8-0.86 2.67-1.93 3.62-4.09 5.39-0.9 0.76-0.9 0.76-1.83 1.54-1.79 1.27-1.79 1.27-4.79 2.27 0.75-3.38 0.75-3.38 2-7 2-1.19 2-1.19 4-2 1.27-2.03 1.27-2.03 2-4h3v-2z" fill="#39C7FA"/>
<path transform="translate(877,883)" d="m0 0h4v2h2v4c2.44 2.69 2.44 2.69 5 5v1c-3.1-0.01-6-0.2-9-1-2.62-2.81-2.62-2.81-4-6 0.19-2.3 0.37-3.37 2-5z" fill="#000100"/>
<path transform="translate(1125,162)" d="m0 0c2.97 0.5 2.97 0.5 6 1 0 4 0 4-1.46 5.7-0.63 0.51-1.26 1.02-1.92 1.55-0.62 0.52-1.25 1.04-1.89 1.58-1.73 1.17-1.73 1.17-3.73 1.17-1.35-2.71-1.07-5.01-1-8 0.99-0.33 1.98-0.66 3-1l1-2z" fill="#000100"/>
<path transform="translate(809,929)" d="m0 0h4c0.03 2.46 0.05 4.92 0.06 7.38 0.01 0.69 0.02 1.39 0.03 2.11 0.02 5.28 0.02 5.28-1.09 7.51h-3v-17z" fill="#020305"/>
<path transform="translate(1208,1180)" d="m0 0h5v2l5 1v4h4v4c-2.25 0.38-2.25 0.38-5 0-2-2.69-2-2.69-4-6-1.63-1.7-3.29-3.38-5-5z" fill="#000100"/>
<path transform="translate(1121,1101)" d="M0 0 C0.92 0.24 0.92 0.24 1.87 0.48 C3.98 1.04 3.98 1.04 6.12 1.25 C8 2 8 2 9.31 4.31 C10.02 7.08 9.98 8.37 9 11 C6.75 10.56 6.75 10.56 4 9 C2.35 6.12 1.15 3.11 0 0 Z " fill="#000100"/>
<path transform="translate(874,1033)" d="m0 0c1.88 0.25 1.88 0.25 4 1 2.36 3.18 2.17 6.15 2 10-0.56-0.47-1.11-0.95-1.69-1.44-2.49-1.68-4.35-2.15-7.31-2.56l1-5h2v-2z" fill="#000100"/>
<path transform="translate(899,520)" d="m0 0 5 1c-3.75 3.88-3.75 3.88-6 5-0.66 2.53-0.66 2.53-1 5h-4v5c-0.99 0.33-1.98 0.66-3 1v-3h2v-6c0.99-0.33 1.98-0.66 3-1 1.11-1.88 1.11-1.88 2-4l2-3z" fill="#000100"/>
<path transform="translate(620 845)" d="m0 0c0.84 0.37 0.84 0.37 1.69 0.75v3c-0.99 0.33-1.98 0.66-3 1l-1 2h-2l-2 4h-2v-3l-2-1h3v-3c4.1-4.1 4.1-4.1 7.31-3.75z" fill="#38C2F5"/>
<path transform="translate(858,1022)" d="m0 0c2.97 0.32 4.59 0.62 6.81 2.69 1.5 2.91 1.41 5.08 1.19 8.31l-4-2v-4h-4v-5z" fill="#03070A"/>
<path transform="translate(529,921)" d="m0 0h2c-0.19 1.81-0.19 1.81-1 4-4.18 3-4.18 3-7 3v2l-4 1c0.56-2.81 0.56-2.81 2-6 3.56-1.81 3.56-1.81 7-3l1-1z" fill="#39C5F4"/>
<path transform="translate(600,858)" d="m0 0 4 2v3h-4v2h-3c-1.46 1.29-1.46 1.29-3 3-1.66 1.35-3.32 2.68-5 4l-1-2h2l2-4h3c0.08-0.58 0.16-1.15 0.25-1.75 0.96-2.87 2.53-4.25 4.75-6.25z" fill="#3BCAFA"/>
<path transform="translate(862,871)" d="m0 0h5l1 7c-3.9 0-6.38-0.68-10-2l4-1v-4z" fill="#020305"/>
<path transform="translate(1123,1455)" d="m0 0 4 2v2h2l3 6h4v2l-5 2c-1.98-3.46-1.98-3.46-4-7h-2l1-4h-3v-3z" fill="#000100"/>
<path transform="translate(1506,145)" d="m0 0h1v14h-1v-5c-0.62-0.08-1.24-0.16-1.88-0.25-2.12-0.75-2.12-0.75-3.37-2.63-0.75-2.12-0.75-2.12-0.75-5.12 3.88 0.88 3.88 0.88 5 2l1-3z" fill="#000100"/>
<path transform="translate(1120,1437)" d="m0 0 2 1c-0.57 2.87-0.86 3.86-3 6v3c-0.99 0.49-0.99 0.49-2 1v-4l-5-1 1-4 5 1v-2l2-1z" fill="#000100"/>
<path transform="translate(1071,1379)" d="m0 0c7 4.36 7 4.36 9 8l-1 3c-3.21-1.07-4.08-1.88-6.25-4.38-0.54-0.6-1.08-1.21-1.64-1.83-0.37-0.59-0.73-1.18-1.11-1.79l1-3z" fill="#0D2A36"/>
<path transform="translate(1123,1460)" d="m0 0c2.47 0.99 2.47 0.99 5 2-0.02 0.74-0.04 1.48-0.06 2.25 0.05 2.45 0.37 4.41 1.06 6.75l-4-1-2-10z" fill="#0B2631"/>
<path transform="translate(1055,1345)" d="m0 0c1.64 0.25 1.64 0.25 3.31 0.5 3.57 0.57 3.57 0.57 6.69 0.5v3c0.31 1.34 0.63 2.68 1 4h-3l-2-4c-0.99 1.48-0.99 1.48-2 3l-1-4h-3v-3z" fill="#000100"/>
<path transform="translate(1147,136)" d="m0 0h6c0.62 1.81 0.62 1.81 1 4-0.99 1.49-0.99 1.49-2 3h-2v-2l-5-1v-2h2v-2z" fill="#000100"/>
<path transform="translate(1014,1283)" d="m0 0c1.89 0.23 1.89 0.23 4 1 1.05 1.96 1.05 1.96 1.75 4.38 0.24 0.79 0.48 1.58 0.73 2.39 0.52 2.23 0.52 2.23 0.52 5.23h-2l-1-7-4-1v-5z" fill="#071319"/>
<path transform="translate(1060,1049)" d="m0 0 9 5c-4 2-4 2-7.75 1.12-1.07-0.37-2.14-0.74-3.25-1.12v-3h2v-2z" fill="#000100"/>
<path transform="translate(1106,1438)" d="m0 0c1.88 0.25 1.88 0.25 4 1 1.06 1.94 1.06 1.94 2 4l3 2v3h-2v-2c-0.99-0.33-1.98-0.66-3-1-0.99-0.33-1.98-0.66-3-1l-1-6z" fill="#04090C"/>
<path transform="translate(866 715)" d="m0 0c2.8 1.47 3.43 2.41 4.5 5.31h-8l-1-5c2-1 2-1 4.5-0.31z" fill="#3CCBFA"/>
<path transform="translate(1057,276)" d="m0 0 2 3c-2 2-2 2-5.12 2.12-1.43-0.06-1.43-0.06-2.88-0.12l-1-4c2.53-1.27 4.19-1.28 7-1z" fill="#000100"/>
<path transform="translate(1023,1282)" d="m0 0c2.33 3.63 2.16 6.77 2 11-0.99 0.49-0.99 0.49-2 1-0.51-1.27-1-2.54-1.5-3.81-0.28-0.71-0.56-1.42-0.84-2.15-0.66-2.04-0.66-2.04-0.66-5.04 0.99-0.33 1.98-0.66 3-1z" fill="#000100"/>
<path transform="translate(293,1235)" d="m0 0 7 5-3 3c-2.69-0.31-2.69-0.31-5-1-0.04-2-0.04-4 0-6l1-1z" fill="#39C6FA"/>
<path transform="translate(972,1212)" d="m0 0h2v2c0.99 0.33 1.98 0.66 3 1l1 7h-4l-2-10z" fill="#020305"/>
<path transform="translate(1246 1212)" d="m0 0c3.36 1.63 3.84 4.64 5.06 8l-4 2c-0.12-1.67-0.12-1.67-0.25-3.38-0.33-3.68-0.33-3.68-2.81-5.06-0.64-0.18-1.28-0.37-1.94-0.56 2-1 2-1 3.94-1z" fill="#000100"/>
<path transform="translate(1505,1455)" d="m0 0h6l-1 5-2-2c-0.41 0.64-0.83 1.28-1.25 1.94-1.93 2.27-2.86 2.66-5.75 3.06l2-1c0.73-2.31 1.4-4.65 2-7z" fill="#000100"/>
<path transform="translate(907,1106)" d="m0 0c1.75 0.12 1.75 0.12 4 1 2.25 3.06 2.25 3.06 4 6l-4 1v-3h-4v-5z" fill="#040A0D"/>
<path transform="translate(929 1124)" d="m0 0c1.45 0.03 1.45 0.03 2.94 0.06l1 5c-2.88-0.31-2.88-0.31-6-1l-2-3c1-1 1-1 4.06-1.06z" fill="#000100"/>
<path transform="translate(1135,1115)" d="m0 0c2.31 0.33 4.62 0.66 7 1v5c-2.39-0.58-4.67-1.22-7-2v-4z" fill="#000100"/>
<path transform="translate(628,839)" d="m0 0c-0.06 2.31-0.06 2.31-1 5-3.56 1.81-3.56 1.81-7 3 1.34-4.14 3.12-8 8-8z" fill="#3AC9FA"/>
<path transform="translate(862,569)" d="m0 0 10 1v2c-2.65 1.08-5.28 2.09-8 3l-2-6z" fill="#000100"/>
<path transform="translate(1099,1426)" d="m0 0c3.77 1.26 4.26 2.53 6 6v3c-6.77-3.45-6.77-3.45-7.94-6.25-0.02-0.58-0.04-1.15-0.06-1.75l2-1z" fill="#103442"/>
<path transform="translate(543,1121)" d="m0 0 5 3c-1.31 1.5-1.31 1.5-3 3h-3c-0.99 0.49-0.99 0.49-2 1v-4h2l1-3z" fill="#3AC9FA"/>
<path transform="translate(1045,286)" d="m0 0c1.5 1.38 1.5 1.38 3 3v2c-3 2-3 2-5.19 1.62-0.6-0.2-1.19-0.41-1.81-0.62l1-4h2l1-2z" fill="#000100"/>
<path transform="translate(1266,1228)" d="m0 0 1 3h4l2 6c-3.14-0.34-4.05-1.05-6.31-3.38-0.56-0.86-1.12-1.73-1.69-2.62l1-3z" fill="#000100"/>
<path transform="translate(829,638)" d="m0 0c-0.62 4-2.6 6.8-5 10h-2c0.32-3.57 0.64-5.56 2.94-8.38 2.06-1.62 2.06-1.62 4.06-1.62z" fill="#000100"/>
<path transform="translate(831,617)" d="m0 0h8c-1.75 3.88-1.75 3.88-4 5-2.12-0.44-2.12-0.44-4-1v-4z" fill="#000100"/>
<path transform="translate(711,913)" d="m0 0 5 3-1 4c-3.16-1.37-3.99-1.99-6-5l2-2z" fill="#3CCBFA"/>
<path transform="translate(1117,176)" d="m0 0 4 1c-0.99 0.5-0.99 0.5-2 1l1 3-3 3-2-2c0.35-2.26 0.98-3.95 2-6z" fill="#000100"/>
<path transform="translate(1129,1474)" d="m0 0 2 1z" fill="#000002"/>
<path transform="translate(1076,1390)" d="m0 0 2 1z" fill="#000001"/>
<path transform="translate(867,720)" d="m0 0 2 1z" fill="#000002"/>
<path transform="translate(369,545)" d="m0 0 2 1z" fill="#000002"/>
</svg>
