<?xml version="1.0" encoding="UTF-8"?>
<svg version="1.1" viewBox="0 0 1600 1600" width="1280" height="1280" xmlns="http://www.w3.org/2000/svg">
<path transform="translate(668 69.9)" d="m0 0c2.5-0 5-0.01 7.5-0.01 29.2-0.04 29.2-0.04 42.3 0.38 0.73 0.02 1.45 0.05 2.2 0.07 1.1 0.04 1.1 0.04 2.23 0.07 28.9 0.93 57.8 0.54 86.7 0.3 12.4-0.1 24.8-0.19 37.2-0.26 3.64-0.02 7.27-0.04 10.9-0.06 0.91-0.01 1.81-0.01 2.74-0.02 25.4-0.15 50.7-0.32 76.1-0.62 12.1-0.13 24.2-0.24 36.3-0.32 7.66-0.05 15.3-0.13 23-0.25 5.79-0.09 11.6-0.13 17.4-0.15 2.35-0.01 4.69-0.04 7.04-0.09 17.5-0.38 17.5-0.38 22.8 3.31 4.81 5.79 4.81 5.79 4.81 9.77 0.57 0.06 1.15 0.13 1.75 0.19 3.18 1.15 4.35 3.07 6.25 5.81l1 3c0.91 0.22 0.91 0.22 1.84 0.45 2.9 0.74 3.84 2.13 5.72 4.43 2.87 3.47 5.83 6.56 9.12 9.62 2.32 2.5 2.32 2.5 2.32 5.5 1.48-0.49 1.48-0.49 3-1 0.98 1.29 1.96 2.59 2.93 3.88 0.82 1.08 0.82 1.08 1.66 2.18 1.41 1.94 1.41 1.94 2.41 3.94 0.92 0.44 0.92 0.44 1.87 0.88 2.13 1.12 2.13 1.12 3.5 3.06 1.57 2.31 1.57 2.31 4.63 3.5 4.34 2.26 5.49 5.04 7 9.56 0.74 0.02 1.48 0.04 2.25 0.07 3.54 1.2 4.09 3.01 5.72 6.23 1.48 2.46 3.56 3.32 6.03 4.7 1.75 1.98 3.38 3.93 5 6 3.02 4.06 3.02 4.06 7 7v2c0.55 0.23 1.11 0.46 1.68 0.69 2.97 1.69 4.96 3.84 7.32 6.31 0.82 0.83 1.65 1.65 2.5 2.5 12.5 12.5 12.5 12.5 15.1 15.2 2.35 2.43 2.35 2.43 5.38 4.31v3c0.86 0.37 0.86 0.37 1.75 0.75 3.73 2.08 5.89 4.18 7.25 8.25 0.99 0.33 1.98 0.66 3 1 0.68 2.07 0.68 2.07 1 4 0.55 0.06 1.11 0.13 1.68 0.19 4.04 1.42 6.55 4.47 8.63 8.13 0.23 0.55 0.45 1.11 0.69 1.68h2v2h3c1.71 1.94 1.71 1.94 3.5 4.44 2.52 3.71 2.52 3.71 6.5 5.56l1 3c2.51 2.73 5.15 5.13 8 7.5 2.84 2.37 5.38 4.89 8 7.5 0.97 0.79 1.93 1.57 2.93 2.38 2.91 2.36 5.23 5.04 7.61 7.92 1.35 1.57 2.8 3.05 4.27 4.52 2.19 2.18 2.19 2.18 3.19 4.18 0.76 0.42 1.52 0.83 2.31 1.25 3.27 2.13 4.53 4.51 6.69 7.75 1.72 1.6 3.51 3.08 5.34 4.56 1.66 1.44 1.66 1.44 3.72 4.07 1.88 2.55 1.88 2.55 4.87 4.31 3.55 2.39 5.54 4.64 8.07 8.06v2h2v2c0.99 0.33 1.98 0.66 3 1 1.35 1.65 2.69 3.32 4 5l2 1v2c0.61 0.1 1.22 0.2 1.85 0.3 3.07 1 4 3.19 5.71 5.79 2.01 2.68 4.45 4.6 7.08 6.65 0.45 0.42 0.9 0.83 1.36 1.26v2c1.98 0.66 3.96 1.32 6 2v2l2 1v2h2v2h2c1.48 1.54 1.48 1.54 3.18 3.63 6.22 7.5 6.22 7.5 14.8 11.4v2c3.96 1.81 7.68 2.49 12 3l-1 2c0.88 0.27 1.77 0.54 2.68 0.82 4.65 1.66 7.55 3.04 10.3 7.18 0.6 2.94 1 6.01 1 9 0.64 0.93 1.27 1.86 1.93 2.82 2.07 3.18 2.07 3.18 2.5 5.31 0.9 2.98 3.1 4.13 5.57 5.87l2 1v3c0.63 0.19 1.27 0.37 1.93 0.56 2.07 1.44 2.07 1.44 2.82 4.64 0.12 1.3 0.25 2.59 0.37 3.93 0.87 9.2 0.87 9.2 3.88 17.9-0.09 1.72-0.25 3.42-0.44 5.13-0.1 0.91-0.21 1.82-0.31 2.76-0.13 1.04-0.13 1.04-0.25 2.11-0.99 0.33-1.98 0.66-3 1 0.53 2.3 1.15 4.4 2.03 6.6 1.19 4.2 1.19 7.94 1.09 12.3-0.01 0.78-0.02 1.57-0.03 2.37-0.02 1.92-0.06 3.84-0.09 5.75h-2v2.23 58.8c0 1.47 0 1.47 0.01 2.97 0.02 3.31 0.03 6.63 0.04 9.95 0.01 1.43 0.01 2.87 0.02 4.3 0.01 2.06 0.02 4.13 0.02 6.19 0.01 1.24 0.01 2.48 0.02 3.76-0.11 2.83-0.11 2.83-1.11 3.83-0.1 1.33-0.13 2.67-0.14 4v2.44c0.01 1.27 0.01 1.27 0.01 2.56 0 0.85-0.01 1.69-0.01 2.57v2.43c0 0.75 0.01 1.49 0.01 2.25-0.06 1.78-0.06 1.78 1.13 2.75 0.25 3.6 0.18 7.21 0.18 10.8 0.02 1.01 0.03 2.02 0.04 3.06 0 1.46 0 1.46 0.01 2.95 0 0.9 0 1.79 0.01 2.72-0.26 2.59-0.93 4.22-2.24 6.45l2 2c0.24 1.85 0.24 1.85 0.24 4.14 0.01 0.86 0.01 1.73 0.02 2.62-0.01 0.95-0.02 1.9-0.02 2.89v3.03c0.01 3.33 0 6.66-0.01 9.99 0 2.32-0.01 4.64 0 6.96-0.01 4.87-0.01 9.74-0.03 14.6-0.02 6.21-0.02 12.4-0.02 18.6 0 4.79 0 9.59-0.01 14.4 0 2.29-0.01 4.58-0.01 6.87-0.01 21.8-0.01 21.8-1.05 32.4-0.27 2.63-0.27 2.63 0.89 5.5 0.93 19.8 0.93 19.8-2.45 23.6-0.52 0.45-1.03 0.9-1.55 1.36-0.5 0.56-0.99 1.12-1.5 1.69-1.5 1.31-1.5 1.31-4.5 1.31v3l-4 1c-0.11 0.64-0.21 1.28-0.32 1.94-0.22 0.68-0.45 1.36-0.68 2.06-0.99 0.33-1.98 0.66-3 1-0.71 1.32-1.37 2.65-2 4-1.32 1.75-1.32 1.75-3 3-2.69 0.19-2.69 0.19-5 0v2h-3l-1 8h-4c-1.28 3.71-0.83 6.79-0.25 10.6 0.16 1.15 0.32 2.29 0.48 3.47 0.5 3.21 0.5 3.21 3.77 4.9 5 5.19 5 5.19 5 8h2c1.16 1.13 2.31 2.27 3.43 3.44 2.43 2.43 5.07 4.61 7.7 6.82 1.91 1.79 3.42 3.55 4.87 5.74v2c0.99-0.33 1.98-0.66 3-1 4.93 4.66 4.84 9.61 5.25 16 0.11 1.48 0.11 1.48 0.23 2.99 0.33 4.35 0.55 8.65 0.52 13h2c0.16 7.32 0.32 14.6 0.48 22 0.05 2.48 0.11 4.97 0.16 7.46 0.09 3.58 0.16 7.15 0.23 10.7 0.03 1.11 0.06 2.22 0.09 3.37 0.02 1.04 0.04 2.08 0.06 3.15 0.02 0.91 0.04 1.83 0.06 2.77-0.09 2.63-0.49 5.01-1.08 7.57h-2v2.94 78.1l0.03 6.39 0.03 7.74c0.01 1.31 0.02 2.63 0.02 3.98 0.01 1.24 0.01 2.49 0.01 3.78 0.01 1.72 0.01 1.72 0.02 3.48-0.11 2.63-0.11 2.63-1.11 3.63-0.17 3-0.17 3 0 6l1 1c0.04 1.67 0.03 3.34 0 5 0 3.16 0 6.32 0.01 9.48 0.04 15.6 0.07 31.1 0.09 46.7 0.01 7.99 0.02 16 0.05 24 0.02 6.98 0.03 14 0.03 21 0.01 3.68 0.01 7.37 0.03 11 0.06 15.4-0.06 30.6-2.21 45.9h-2c-0.25 0.64-0.5 1.28-0.75 1.94-1.25 2.06-1.25 2.06-3.38 2.81-0.62 0.09-1.24 0.17-1.87 0.25l-1 4h-3l-2 5h-4v4c-0.99 0.33-1.98 0.66-3 1-1.21 2-1.21 2-2 4h-2l-1 3c-2.07 0.69-2.07 0.69-4 1v4c-0.62 0.09-1.24 0.17-1.88 0.25-2.3 0.55-2.3 0.55-3.19 2.75-0.46 0.99-0.46 0.99-0.93 2-0.99 0.33-1.98 0.66-3 1l-1 3-2 1-1 3c-1.34 0.34-2.67 0.67-4 1l-1 3c-0.99 0.33-1.98 0.66-3 1-1.22 2.51-1.22 2.51-2 5h-3v3c-0.62 0.06-1.24 0.13-1.88 0.19-2.4 0.64-2.4 0.64-3.37 3.38-0.38 1.2-0.38 1.2-0.75 2.43h-2c-1.3 1.23-1.3 1.23-3 4l-3 2-1 2c-0.99 0.33-1.98 0.66-3 1v3c-1.21 0.37-1.21 0.37-2.44 0.75-2.74 0.98-2.74 0.98-3.38 3.38-0.06 0.62-0.12 1.24-0.18 1.87h-3l-1 3c-1.34 0.67-2.67 1.34-4 2l-1 3h-3l-1 5c-0.99 0.33-1.98 0.66-3 1-0.75 0.78-0.75 0.78-1.5 1.57-1.5 1.43-1.5 1.43-4.5 1.43l1 4c-0.99 0.33-1.98 0.66-3 1l-1-1-1 5h-4l-1 5h-3v3l-5 2v3c-0.93 0.13-0.93 0.13-1.88 0.25-2.31 0.57-2.31 0.57-3.37 2.82-0.25 0.63-0.5 1.27-0.75 1.93h-3v2l-2 1c-1.31 2.31-2.16 4.48-3 7l-5 1v2c-0.99 0.33-1.98 0.66-3 1v3h-4l-1 4-4 1v3l-3 2-1 3-4-1c-0.23 0.89-0.46 1.78-0.69 2.69-1.51 3.8-3.19 5.72-6.31 8.31h-3v2h-2v2h-3l1 5c-0.64 0.32-1.28 0.63-1.94 0.96-1.24 0.64-1.24 0.64-2.5 1.29-0.83 0.42-1.65 0.84-2.5 1.27-2.47 1.77-2.47 2.61-3.06 5.48l-3 2-1 2h-5c-0.31 0.79-0.62 1.57-0.94 2.38-1.06 2.62-1.06 2.62-2.06 4.62h-3v2h-2l-1 3-2-1c-0.13 0.6-0.25 1.2-0.38 1.82-0.62 2.18-0.62 2.18-2.62 5.18h-3c-0.11 0.64-0.21 1.28-0.32 1.94-0.22 0.68-0.45 1.36-0.68 2.06-0.99 0.33-1.98 0.66-3 1-0.13 0.6-0.25 1.2-0.38 1.82-0.92 3.23-2.92 4.31-5.62 6.18-0.99 0.33-1.98 0.66-3 1v3l-4 1c-0.09 0.62-0.17 1.24-0.25 1.88-0.75 2.12-0.75 2.12-2.69 3.19-0.68 0.3-1.36 0.61-2.06 0.93l-2 3c-2.13 0.69-2.13 0.69-4 1l2 1-5 2v4c-1.44 1.63-1.44 1.63-3 3l-1 2c-1.12 0.23-2.23 0.46-3.38 0.69-3.95 0.96-3.95 0.96-5.37 4.81-0.62 1.74-0.62 1.74-1.25 3.5l-3 2-1 2h-3l-2 5h-3l-1 4h-4v4l-5 1 1 2h-3l3 2-5 1v2c-0.81 0.48-1.61 0.95-2.44 1.44-2.86 1.36-2.86 1.36-3.56 4.56h-3c-0.29 0.62-0.58 1.24-0.88 1.88-1.12 2.12-1.12 2.12-3.12 4.12v3c-0.75 0.29-1.49 0.58-2.25 0.88-0.91 0.37-1.82 0.74-2.75 1.12-0.75 0.27-1.49 0.54-2.25 0.82-2.03 1.1-2.03 1.1-2.5 3.81-0.09 0.78-0.17 1.57-0.25 2.37h-3l-1 4h-3c-1.05 1.64-2.05 3.31-3 5l-2 1v2l-5 1-1 4c-16.5 1.01-33 1.04-49.6 0.85-1.09-0.02-2.18-0.03-3.3-0.04-10.3-0.12-20.6-0.26-30.8-0.4-28-0.38-55.9-0.4-83.9 0.05-46.8 0.76-93.6 0.69-140 0.67-9.85 0-19.7 0-29.6 0.01h-28.9-17.1c-5.28 0-10.6 0-15.9-0.01-1.94 0-3.87 0-5.81 0.01-2.63 0-5.26-0.01-7.9-0.01-1.15 0-1.15 0-2.34 0.01-5.26-0.02-5.26-0.02-7.48-1.14-1.41-0.05-2.81-0.03-4.22 0.02-1.31 0.04-1.31 0.04-2.64 0.07-1.42 0.05-1.42 0.05-2.87 0.1-2 0.04-4 0.08-6.01 0.12-3.16 0.06-6.31 0.13-9.47 0.24-19.8 0.68-19.8 0.68-25.7-4.45-3.06-3.49-3.06-3.49-3.06-6.1-0.99-0.33-1.98-0.66-3-1l-1-3c-0.99-0.33-1.98-0.66-3-1l-1-3-2-1v-2h-2v-2h-3c-2-2-2-2-3.38-4-1.47-2.1-1.47-2.1-3.62-2.93-2.74-1.46-3.41-3.41-5-6.07-1.81-1.88-3.67-3.67-5.58-5.45-1.42-1.55-1.42-1.55-1.42-3.55-0.99-0.33-1.98-0.66-3-1v-2h-2v-2l-4-2v-2c-0.56-0.22-1.12-0.45-1.69-0.68-2.98-1.69-5.03-3.78-7.31-6.32v-2h-3v-2l-4-1v-2l-2-1 1-1c-0.56-0.22-1.12-0.45-1.69-0.68-4.88-2.77-8.26-7.39-11.8-11.6-2.04-2.35-4.24-4.52-6.47-6.7-1.67-1.66-3.34-3.33-5-5-0.6-0.55-1.2-1.11-1.82-1.68-1.18-1.32-1.18-1.32-1.18-3.32l-4-2v-2h-3v-2h-3v-2c-0.99-0.33-1.98-0.66-3-1l1-2c-0.6-0.06-1.2-0.12-1.82-0.18-3.07-1.15-3.51-3.02-5.18-5.82-1.73-1.6-3.53-3.08-5.35-4.58-1.9-1.63-3.36-3.28-4.65-5.42v-2c-0.56-0.22-1.12-0.45-1.69-0.68-2.97-1.69-4.97-3.85-7.31-6.32-2.73-2.88-2.73-2.88-6-5v-3c-0.93-0.24-1.86-0.49-2.82-0.75-3.35-1.31-4.37-2.23-6.18-5.25l1-1c-0.77-0.6-1.53-1.19-2.32-1.81-4.06-3.31-4.06-3.31-5.68-5.19v-2c-0.59-0.27-1.18-0.54-1.79-0.83-5.78-3.05-10.3-7.99-14.2-13.2v-2l-4-2v-2l-4-2v-2c-0.77-0.29-1.53-0.57-2.32-0.87-2.68-1.13-2.68-1.13-5.68-3.13-0.15-0.64-0.29-1.28-0.44-1.93-0.91-3.34-3.48-4.39-6.31-6.15-4.43-2.9-5.75-4.72-7.25-9.92-2-1.21-2-1.21-4-2-0.5-1.48-0.5-1.48-1-3-0.87-0.4-0.87-0.4-1.75-0.81-3.24-1.71-4.97-4.38-7.25-7.19l-3-2v-2h-4c-1.67-2.31-2.82-4.54-3.88-7.18-1.56-2.51-3.42-2.76-6.12-3.82-3-3.31-3-3.31-3-6-0.59-0.27-1.18-0.54-1.79-0.83-5.78-3.05-10.3-7.99-14.2-13.2v-2c-0.6-0.06-1.2-0.12-1.82-0.18-2.18-0.82-2.18-0.82-3.56-3.13-1.52-2.94-1.52-2.94-4.81-4.81-0.93-0.62-1.86-1.24-2.81-1.88v-3h-2c-1.38-1.28-2.71-2.63-4-4-3.18-3.43-3.18-3.43-7-6v-3c-0.56-0.22-1.12-0.45-1.69-0.68-3.51-2-6.49-4.68-8.31-8.32-0.99-0.33-1.98-0.66-3-1v-3h-2c-4.77-4.3-4.77-4.3-6-8h-4v-4l-5-2v-2c-0.66-0.49-1.32-0.99-2-1.5-0.66-0.49-1.32-0.99-2-1.5v-2c-1.98-0.66-3.96-1.32-6-2v-4c-0.58-0.08-1.16-0.16-1.75-0.25-3.01-1-4.26-2.29-6.25-4.75-0.5-2.75-0.5-2.75-0.5-5.99 0-1.23-0.01-2.46-0.02-3.74l0.03-4.11c0-1.46 0-2.91-0.01-4.37 0-4 0.01-8.01 0.03-12 0.02-4.32 0.01-8.63 0.01-13 0-7.48 0.01-15 0.03-22.4 0.04-10.8 0.05-21.6 0.05-32.4 0.01-17.6 0.04-35.1 0.07-52.6 0.04-17 0.07-34.1 0.09-51.1v-3.18c0-5.27 0.01-10.5 0.01-15.8 0.05-43.7 0.12-87.4 0.21-131l4-2c-0.13-1.39-0.13-1.39-0.25-2.81 0.25-3.19 0.25-3.19 1.93-5.06 2.65-1.29 4.41-1.37 7.32-1.13l2-4h2c0.37-0.93 0.37-0.93 0.75-1.87 1.47-2.51 2.69-2.89 5.25-4.13l1-3h2v-3c1.17-0.12 1.17-0.12 2.37-0.25 2.77-0.46 2.77-0.46 3.81-2.75 0.27-0.66 0.54-1.32 0.82-2l2-1c0.02-1.62 0.04-3.25 0.06-4.87 0.01-0.91 0.02-1.81 0.03-2.74 0.07-2.4 0.07-2.4-1.09-4.39-2-0.8-4.03-1.4-6.09-2.02-2.47-1.26-2.77-2.51-3.91-4.98-1.7-1.76-1.7-1.76-3.69-3.37-0.71-0.6-1.41-1.2-2.14-1.82-1.41-1.18-2.83-2.35-4.26-3.52-0.95-0.79-0.95-0.79-1.91-1.6-0.58-0.47-1.16-0.94-1.75-1.43-1.25-1.26-1.25-1.26-1.25-3.26-0.62-0.08-1.24-0.16-1.88-0.25-2.12-0.75-2.12-0.75-3.25-2.75-0.29-0.66-0.58-1.32-0.87-2l-2-1c-0.94-4.06-1.13-7.98-1.14-12.1-0.01-1.83-0.01-1.83-0.02-3.69v-4.02c-0.01-1.43-0.01-2.86-0.02-4.29-0.01-3.93-0.02-7.86-0.03-11.8 0-3.37-0.01-6.74-0.02-10.1-0.04-11.1-0.06-22.2-0.08-33.3 0-2.89-0.01-5.78-0.01-8.67-0.03-17.9-0.06-35.9-0.08-53.8 0-4.16-0.01-8.31-0.01-12.5v-3.13c-0.02-16.7-0.06-33.5-0.11-50.2-0.05-17.2-0.08-34.4-0.09-51.5 0-9.65-0.02-19.3-0.06-28.9-0.03-8.21-0.05-16.4-0.03-24.6 0-4.19 0-8.38-0.03-12.6-0.03-3.84-0.03-7.68-0.01-11.5 0.01-1.38 0-2.77-0.02-4.15-0.09-7.5 0.12-12.8 5.2-18.6 2.08-1.97 4.26-3.76 6.56-5.48l2-3c1.33-0.66 2.66-1.33 4-2 1.59-1.64 1.59-1.64 3-3.5 2.14-2.74 3.9-3.97 7-5.5 0.8-2.05 0.8-2.05 1-4h4l2-4c0.99 0.33 1.98 0.66 3 1-0.5-1.48-0.5-1.48-1-3 0.99-0.33 1.98-0.66 3-1 0.14-0.6 0.29-1.21 0.44-1.84 0.75-2.91 2.17-3.85 4.49-5.72 2.6-2.11 4.18-3.61 6.07-6.44h2c0.08-0.62 0.16-1.23 0.25-1.87 0.75-2.13 0.75-2.13 2.62-3.13 0.7-0.33 1.4-0.66 2.13-1 1.01-1.32 2.01-2.65 3-4h2l2-4h3c0.1-0.6 0.19-1.2 0.3-1.82 0.83-2.61 1.73-3.34 3.88-4.99 3.22-2.61 5.83-5.4 8.47-8.58 2.62-3.13 4.44-5.31 8.35-6.61l2 1-1-3c1.46-3.09 3.1-5.1 5.56-7.5 2.56-2.3 2.56-2.3 3.5-5.18 1.18-2.92 2.16-3.01 4.94-4.32 2.3-2.18 3.91-3.74 4.14-7-0.03-0.7-0.05-1.4-0.08-2.12-0.06-3.88-0.06-3.88 1.31-5.81 1.63-1.07 1.63-1.07 3.63-2.07v-8l5-2v-2h2v-3c0.64-0.12 1.27-0.24 1.93-0.37 0.68-0.21 1.36-0.41 2.07-0.63l1-2 1-1v-2h3l2-5h3l1-5h4v-3c0.59-0.25 1.19-0.51 1.81-0.78 2.37-1.32 3.53-2.59 5.19-4.72 1.65-2.12 2.71-3.35 5.14-4.55 0.92-0.47 0.92-0.47 1.86-0.95 0.81-2.55 0.81-2.55 1-5h4v-2l2-1c0.3-0.62 0.61-1.24 0.92-1.89 1.17-2.3 2.25-3.29 4.26-4.86 4.09-3.35 7.44-7.2 10.8-11.2l4 1-1-4h4c0.15-0.96 0.15-0.96 0.31-1.93 0.23-0.69 0.45-1.37 0.69-2.07 0.99-0.33 1.98-0.66 3-1l1-2c1-2 1-2 4-3 1.22-3.01 1.22-3.01 2-6h4v-2h3v-5c0.61-0.08 1.23-0.16 1.87-0.25 2.31-0.56 2.31-0.56 3.38-2.81 0.37-0.96 0.37-0.96 0.75-1.94h2c0.41-0.72 0.82-1.44 1.25-2.18 1.55-2.5 2.59-3.66 4.81-5.44 3.05-2.23 3.05-2.23 4.94-5.38 0.99-0.33 1.98-0.66 3-1 1.69-2.49 1.69-2.49 3-5l1 2h2l-1-4c0.59-0.04 1.19-0.08 1.81-0.12 2.51-0.72 2.51-0.72 3.62-3.75 1.79-3.57 3.22-4.19 6.57-6.13 0.87-2.08 0.87-2.08 1-4h4l1-4 4-1c0.04-0.55 0.08-1.11 0.12-1.68 1.37-3.61 3.79-5.05 6.88-7.32h2l1-5h3c1.02-0.98 2.02-1.98 3-3h2c0.08-0.62 0.16-1.23 0.25-1.87 0.75-2.13 0.75-2.13 2.75-3.19 0.66-0.31 1.32-0.62 2-0.94l1-3 2-1 1-3c1.33-0.66 2.66-1.33 4-2l1-3h3c0.1-0.64 0.2-1.28 0.31-1.93 0.34-1.03 0.34-1.03 0.69-2.07 0.99-0.33 1.98-0.66 3-1 1.05-1.63 2.05-3.3 3-5 1.43-2.31 1.43-2.31 3-4h4l1-3c0.97-1.02 1.98-2.02 3-3l2-3h3l1-3c2.06-0.73 2.06-0.73 4.56-1.18 1.24-0.24 1.24-0.24 2.5-0.49 0.64-0.1 1.28-0.21 1.94-0.33v-2c2.4-1.2 3.96-1.15 6.64-1.2 0.99-0.02 1.98-0.04 2.99-0.06 1.09-0.02 2.19-0.04 3.31-0.05 1.16-0.02 2.31-0.05 3.5-0.07 3.22-0.05 6.43-0.1 9.65-0.15 2.04-0.03 4.07-0.06 6.11-0.09 23.5-0.36 47.1-0.49 70.6-0.5zm123 119c-0.3 0.79-0.6 1.59-0.91 2.4-1.09 2.6-2.05 3.73-4.09 5.6l-2 3-2-1c-2.06 1.84-2.06 1.84-3 4-1.49 0.5-1.49 0.5-3 1l1 3-4 2v2c-1.21 0.37-1.21 0.37-2.44 0.75-2.74 0.98-2.74 0.98-3.38 3.38-0.09 0.93-0.09 0.93-0.18 1.87h-3l-1 5c-1.49 0.5-1.49 0.5-3 1-1.67 1.5-1.67 1.5-3 3l-1-2-1 6-5-1c-0.09 0.77-0.17 1.53-0.25 2.32-0.91 3.25-2.08 3.78-4.75 5.68v3c-1.49 0.5-1.49 0.5-3 1l-1 2c-1.49 0.5-1.49 0.5-3 1l-1 3c-1.33 0.69-2.66 1.35-4 2-2.25 1.92-2.25 1.92-4 4v2h-2l-2 2c-0.85 0.44-1.7 0.87-2.57 1.32-2.68 1.48-2.68 1.48-3.25 4.37-0.06 0.76-0.12 1.53-0.18 2.31-0.99-0.33-1.98-0.66-3-1v3c-1.49 0.5-1.49 0.5-3 1v3h-2c-3.83 3.44-3.83 3.44-6 8-2.34 2.65-3.62 3.88-7 5-0.74 2.02-0.74 2.02-1 4-0.56 0.06-1.12 0.13-1.69 0.19-3.25 1.14-4.93 3.37-7.31 5.81-0.75 0.31-1.49 0.62-2.25 0.94-0.87 0.53-0.87 0.53-1.75 1.06-0.82 3.06-0.82 3.06-1 6h-2v2l-4 1v2c-0.95 0.29-1.9 0.58-2.88 0.88-3.18 0.89-3.18 0.89-5.12 3.12 0.99 1.49 0.99 1.49 2 3h-2l-1-2-1 3c-0.99 0.5-0.99 0.5-2 1l-1 3-2 1-1 3c-0.99 0.33-1.98 0.66-3 1l-1 2h-3c-1.46 2.65-2 3.9-2 7h-3v2l-4 1h2v2l-4-2v6h-3c-0.05 0.62-0.09 1.24-0.13 1.88-0.43 1.05-0.43 1.05-0.87 2.12-1.4 0.44-1.4 0.44-2.82 0.88-4.09 1.44-4.98 3.5-7.18 7.12h-2c-0.27 0.6-0.54 1.2-0.82 1.82-1.18 2.18-1.18 2.18-2.81 3.75-1.72 1.46-1.72 1.46-1.37 4.43h-4l-1 3-5 1v4c-0.99 0.33-1.98 0.66-3 1v2c-0.99 0.33-1.98 0.66-3 1l-2 1c-0.15 0.66-0.29 1.32-0.44 2-0.19 0.66-0.37 1.32-0.56 2-0.99 0.33-1.98 0.66-3 1-1.69 1.65-3.36 3.32-5 5l-3 2c-1.04 1.31-2.05 2.64-3 4l1 2-4 1c-0.16 0.96-0.16 0.96-0.32 1.94-0.22 0.68-0.45 1.36-0.68 2.06-0.99 0.33-1.98 0.66-3 1v3h-4l-1 3c-1.34 0.67-2.67 1.34-4 2l-1 3c-1.85 0.95-1.85 0.95-4.07 1.69-1.1 0.38-1.1 0.38-2.22 0.76-0.57 0.18-1.13 0.37-1.71 0.55l-1 7c-0.95 0.27-1.9 0.54-2.88 0.82-3.38 0.93-3.38 0.93-5.12 4.18v3c-2.48 0.99-2.48 0.99-5 2v3c-0.62 0.09-1.24 0.17-1.88 0.25-2.3 0.55-2.3 0.55-3.25 2.75-0.29 0.66-0.58 1.32-0.87 2l-2 1v2c-0.62 0.09-1.24 0.17-1.88 0.25-2.3 0.55-2.3 0.55-3.19 2.75-0.31 0.66-0.62 1.32-0.93 2-0.99 0.33-1.98 0.66-3 1l-1 3c-2.07 1.19-2.07 1.19-4 2v4h-4l-1 4h-2v4c-1.89 0.34-1.89 0.34-3.82 0.69-3.27 0.81-3.99 1.07-6.18 3.81-1.13 2.36-1.13 2.36-1 4.5h-3l-1 5-4 1v2l-5 2v4h-4c-2.38 1.91-3.82 3.1-4.44 6.13-0.19 0.62-0.37 1.24-0.56 1.87-2.57 1.25-2.57 1.25-5 2v3h-2v3c-0.77 0.13-1.53 0.25-2.32 0.38-2.89 0.5-2.89 0.5-5.68 2.62v3h-2v3l-4 1-1 5-4 1c-0.15 0.79-0.29 1.57-0.44 2.38-0.56 2.62-0.56 2.62-1.56 4.62v4l-2 1c-0.6 2.28-0.96 4.55-1.34 6.87-0.66 2.13-0.66 2.13-3.66 4.13-0.74 3.57-0.74 3.57-1 7h-3c-3.32 2.85-5.12 4.75-6 9l-3 2v2c-0.91-0.08-1.82-0.16-2.75-0.25-3.97 0.31-4.67 1.4-7.25 4.25h-3c-1.03 1.32-2.03 2.65-3 4h-2v10c0.99-0.33 1.98-0.66 3-1 0.66 2 1.33 4 2 6 1.98-0.33 3.96-0.66 6-1 0.22 0.62 0.45 1.24 0.68 1.88 1.7 2.74 3.37 2.99 6.32 4.12l1 3 2 1c0.62 2.07 0.62 2.07 1 4h5c0.18 0.6 0.37 1.2 0.56 1.82 2.16 3.28 4.79 3.83 8.44 5.18v2h7c0.23-0.62 0.47-1.25 0.71-1.9 1.65-2.7 2.84-2.92 5.85-3.72 2.38-0.62 2.38-0.62 4.44-1.38l1-2c0.89-0.34 0.89-0.34 1.81-0.68 2.44-1.47 2.94-2.41 4.25-4.88 1.94-3.44 1.94-3.44 4.94-4.44l2-3c2.12-0.68 2.12-0.68 4-1 0.18-0.86 0.18-0.86 0.37-1.75 0.65-2.32 1.35-4.2 2.63-6.25 0.99-0.33 1.98-0.66 3-1v-2c0.57-0.24 1.15-0.49 1.75-0.75 2.58-1.43 4.31-3.03 6.25-5.25v-2c0.61-0.27 1.23-0.53 1.87-0.81 2.43-1.14 2.43-1.14 4.13-4.19 0.97-0.22 1.93-0.45 2.93-0.68 3.14-0.95 3.14-0.95 3.95-3.15 0.45-1.45 0.9-2.89 1.34-4.34 0.78-1.83 0.78-1.83 3.21-3.01 1.27-0.41 1.27-0.41 2.57-0.82 3.06-3.03 3.06-3.03 4-7 0.88-0.37 0.88-0.37 1.77-0.75 2.54-1.42 3.94-2.96 5.79-5.18 5.9-7.03 5.9-7.03 10.4-9.07v-4h3l2-3c3.12-1.18 3.12-1.18 6-2l1-7c1.98-0.66 3.96-1.32 6-2v-4h3l2-3c1.33-0.66 2.66-1.33 4-2l2-3c2.5-0.3 4.75-0.4 7.25-0.37 1.14-0.01 1.14-0.01 2.31-0.01 2.57-0.01 5.15 0 7.72 0.01 1.85 0 3.71-0.01 5.56-0.01 5.12-0.01 10.2-0.01 15.3 0.01 5.51 0 11 0 16.5-0.01 10.8-0.01 21.6 0 32.4 0.01 12.6 0.01 25.1 0.01 37.7 0.01 23.1 0 46.2 0.01 69.3 0.03 21.1 0.02 42.2 0.02 63.3 0.02h4.06 2.03c3.37-0.01 6.74-0.01 10.1-0.01h2.01c17.6 0 35.2 0 52.8 0.01 2.52 0 5.05 0.01 7.57 0.01h3.77 26.3c10.7 0 21.4 0 32 0.02 5.45 0 10.9 0.01 16.4 0 4.99 0 9.98 0.01 15 0.02h5.42c2.45-0.01 4.9 0 7.36 0.01 0.7-0.01 1.41-0.01 2.13-0.01 5.21 0.04 9.83 0.47 13.6 4.26 0.76 0.11 1.52 0.21 2.31 0.32 3.64 0.93 5.13 3 7.69 5.68 1.08 0.5 1.08 0.5 2.18 1 2.58 1.43 2.77 3.32 3.82 6 1.96 1.64 1.96 1.64 4 3l2 3c1.07 0.99 2.18 1.95 3.31 2.88 2.29 1.91 4.44 3.84 6.5 6 1.92 2.36 1.92 2.36 4.19 2.12 0.22 0.6 0.45 1.2 0.68 1.82 1.18 2.36 1.18 2.36 3.69 3.56 3.27 2.02 4.56 4.42 6.63 7.62 1.3 1.04 2.63 2.05 4 3l2 3c2.25 3.33 4.73 5.66 8 8h2v3c2.36 2.11 2.36 2.11 5 4 2 2 2 2 3.87 4.38 1.95 2.41 3.76 4.62 6.13 6.62h4v2h2v3h2v3c1.65 1.02 3.32 2.02 5 3l1 3c2.46 2.12 5.05 4.02 7.65 5.97 2.3 1.99 3.06 3.36 4.35 6.03 4.64 1.55 9.32 1.5 14 0l1-8h3l1-7c1.11-0.12 2.22-0.24 3.37-0.37 3.66-0.27 3.66-0.27 5.63-2.63v-3h5v-3l3-2c0.58-3.11 0.58-3.11 0.68-6.62 0.07-1.19 0.13-2.38 0.2-3.6 0.06-1.38 0.06-1.38 0.12-2.78h-3v-2h-2c-0.19-0.86-0.19-0.86-0.38-1.75-1.39-5-3.87-7.67-7.62-11.2-0.73-0.76-1.45-1.52-2.19-2.31-1.65-1.91-1.65-1.91-3.81-1.69l-1-4h-2v-3c-0.96-0.4-0.96-0.4-1.94-0.81-2.06-1.19-2.06-1.19-3.06-4.19-0.99-0.33-1.98-0.66-3-1-0.99-0.33-1.98-0.66-3-1l-1-3h-2l-2-5h-2l-1-2c-1.65-0.72-3.31-1.39-5-2v-4h-3l1-3c-0.51-0.42-1.02-0.85-1.54-1.28-4.1-3.49-7.74-6.99-11-11.2-1.65-1.71-3.3-2.45-5.42-3.48-1.35-1.65-2.68-3.32-4-5-1.07-0.91-2.15-1.81-3.25-2.68-0.91-0.77-1.82-1.53-2.75-2.32v-2l-4-1v-2c-1.98-0.66-3.96-1.32-6-2-0.13-1.11-0.13-1.11-0.25-2.25-0.9-3.29-2.14-4.61-4.75-6.75h-2v-3c-3.46-3.66-3.46-3.66-8-5-0.13-0.93-0.13-0.93-0.25-1.87-0.54-2.27-0.54-2.27-2.57-3.13-1.08-0.49-1.08-0.49-2.18-1-2.66-2.35-3.87-3.59-5-7-1.66-1.01-3.33-2.01-5-3v-2l-4-1v-2c-1.43-0.34-1.43-0.34-2.88-0.68-3.12-1.32-3.12-1.32-4.19-3.57-0.31-0.9-0.62-1.81-0.93-2.75-1.19-1.5-2.38-3-3.64-4.44-1.39-1.58-2.68-3.22-3.99-4.87-2.16-2.89-2.16-2.89-5.37-3.69-1.76-1.81-1.76-1.81-3.57-4-2.36-2.95-2.36-2.95-5.43-5l-1-3c-1.66-1.02-3.33-2.02-5-3l-2-3h-2v-2c-1.98-0.66-3.96-1.32-6-2l-1-6c-0.99-0.33-1.98-0.66-3-1l-1-2h-2v-3l-4-2 2-1h-3v-2c-0.75-0.41-1.49-0.82-2.25-1.25-3.31-2.1-4.62-4.51-6.75-7.75-2.1-1.39-2.1-1.39-4-2v-2c-0.75-0.43-1.49-0.86-2.25-1.31-2.75-1.69-2.75-1.69-4.75-4.25-1.82-2.62-1.82-2.62-4.69-3.5-0.76-0.31-1.53-0.62-2.31-0.94-0.69-2-0.69-2-1-4l-2-2h-3c-0.27-0.95-0.54-1.89-0.82-2.87-0.93-3.38-0.93-3.38-4.18-5.13l-1-3c-0.87-0.18-0.87-0.18-1.75-0.37-3.37-0.94-4.98-3.05-7.25-5.63l-1-3c-0.99-0.33-1.98-0.66-3-1l-2-3-3-2c-1.11-1.66-2.22-3.33-3.32-5-2.42-2.87-5.36-4.33-8.68-6l-1-3c-0.66-0.49-1.32-0.99-2-1.5-2-1.5-2-1.5-3-4.5h-2c-0.38-0.93-0.38-0.93-0.75-1.87-1.48-2.51-2.69-2.89-5.25-4.13l-1-3c-1.66-1.01-3.33-2.01-5-3v-2c-0.99-0.33-1.98-0.66-3-1l-1-3h-3l-1-2h-2l-1-4h-2l-1-2c-0.81-0.27-1.61-0.53-2.44-0.81-2.56-1.19-2.56-1.19-3.69-3.75-0.43-1.21-0.43-1.21-0.87-2.44-0.99-0.33-1.98-0.66-3-1v-3h-2v-3l-3-2-1-3c-0.66-0.16-1.32-0.33-2-0.5-0.66-0.16-1.32-0.33-2-0.5l-1-3-2-1c-2-1-2-1-3-4-2-1.21-2-1.21-4-2v-2h-4v-2h-2l1-3c-0.64-0.12-1.28-0.24-1.94-0.37-0.68-0.21-1.36-0.41-2.06-0.63l-1-2c-0.66-0.47-1.32-0.95-2-1.43-2-1.57-2-1.57-3-4.57h-3c-0.11-0.64-0.21-1.28-0.32-1.93-0.22-0.69-0.45-1.37-0.68-2.07-0.99-0.33-1.98-0.66-3-1-2-3-2-3-2.82-4.87-3.14-5.63-8.91-9.61-14.2-13.1l-2-3c-0.99-0.33-1.98-0.66-3-1-0.13-0.62-0.25-1.23-0.38-1.87-0.91-3.1-2.89-3.57-5.62-5.13-1.86-2.24-3.41-4.61-5.02-7.05-2.86-3.41-5.51-3.8-9.82-4.19-0.82-0.04-1.64-0.09-2.48-0.13-0.83-0.07-1.67-0.14-2.53-0.21-2.05-0.16-4.1-0.29-6.15-0.42zm-6 4 1 3zm-11 13 2 2v-2h-2zm-11 9 1 2zm-346 1 1 2zm331 16 1 2zm-4 3 1 2zm-349 3 1 3zm347 0 1 2zm-5 4-1 2h2l-1-2zm-6 5v2l2-1-2-1zm-354 9 1 2zm341 5 1 2zm-350 4 1 2zm341 4 2 2v-2h-2zm-2 3 2 2v-2h-2zm-3 3 1 2zm-363 34-1 2h2l-1-2zm-9 9-1 2h2l-1-2zm304 26 1 2zm-335 5 1 2zm329 0 1 2zm-338 9 1 3zm-4 5 1 2zm-27 26 1 2zm-9 10-1 2h2l-1-2zm325 3-1 2h2l-1-2zm785 66 1 2zm0 4 1 3zm0 9 1 4zm-790 23 1 2zm-9 9-1 2h2l-1-2zm800 6v8h1v-8h-1zm-809 3 1 2zm-98 9 1 3zm88 0v2h2v-2h-2zm-3 5 1 2zm-9 9 1 2zm-9 8-1 2h2l-1-2zm-8 9-1 2h2l-1-2zm-5 5-1 2h2l-1-2zm-9 9-1 2h2l-1-2zm-4 4 1 2zm866 0v7h1v-7h-1zm0 17v7h1v-7h-1zm-554 18c-0.19 1.46-0.19 1.46-0.38 2.94-0.21 1.01-0.41 2.02-0.62 3.06l-2 1-1-3v3h-4l-1 9h-5l-1 4h-5l1 4c-0.81 0.29-1.61 0.58-2.44 0.88-2.7 0.86-2.7 0.86-3.56 3.12l-2-1-1 6-4 1v4h-4v4c-0.96 0.16-0.96 0.16-1.94 0.32-0.68 0.22-1.36 0.45-2.06 0.68l-1 3h-5l-1 3 1 2h-2c-1.36 1.31-2.69 2.65-4 4-0.99 0.5-0.99 0.5-2 1l-1 3c-1.49 0.5-1.49 0.5-3 1-0.38 1.15-0.38 1.15-0.75 2.32-1.61 3.44-3.38 4.04-6.65 5.72-2.14 1.29-2.68 2.68-3.6 4.96-2.36 2.66-3.6 3.87-7 5-0.17 0.66-0.33 1.32-0.5 2-0.17 0.66-0.33 1.32-0.5 2-1.49 0.5-1.49 0.5-3 1l-2 3c-2.63 0.69-2.63 0.69-5 1l1 5h-2v3c-1.98-0.49-1.98-0.49-4-1-0.44 0.81-0.87 1.61-1.32 2.44-1.68 2.56-1.68 2.56-4.68 3.56-0.38 1.15-0.38 1.15-0.75 2.32-1.4 3-2 3.3-4.82 4.75-3.56 1.5-3.56 1.5-4.18 4.12-0.09 0.6-0.17 1.2-0.25 1.81-1.49 0.5-1.49 0.5-3 1-1.02 0.98-2.03 1.98-3 3-0.99 0.5-0.99 0.5-2 1v4c-0.6 0.11-1.2 0.21-1.82 0.32-2.47 0.77-3.51 1.75-5.18 3.68-0.99-0.49-0.99-0.49-2-1-1.11 1.89-1.11 1.89-2 4l1 2c-0.99 0.33-1.98 0.66-3 1l-2 3c-0.99 0.33-1.98 0.66-3 1l-1 3c-0.99 0.33-1.98 0.66-3 1-0.5 2.97-0.5 2.97-1 6-1.4 0.22-1.4 0.22-2.82 0.44-3.19 0.48-3.19 0.48-6.18 1.56v5c-2.97 0.99-2.97 0.99-6 2l2 2-4 1v3c-2.02 0.43-4.04 0.85-6.06 1.27-2.31 0.66-2.31 0.66-3.94 3.73-1.34 0.67-2.67 1.34-4 2-2.92 2.27-3.89 3.32-4.5 7 0.61 3.66 1.73 4.64 4.5 7l2 3c1.96 0.83 1.96 0.83 4 1l2-1 1 3c3.44 3.83 3.44 3.83 8 6 0.49 0.99 0.49 0.99 1 2 0.99 0.33 1.98 0.66 3 1v4c1.97 1.38 3.97 2.71 6 4 1.4 1.52 1.4 1.52 2.68 3.13 2.18 3 2.18 3 5.32 4.87l2 3h4c0.28 0.91 0.57 1.82 0.87 2.75 0.89 2.57 1.84 4.87 3.13 7.25h5v3h2l2 5h3v2c0.61 0.04 1.23 0.09 1.87 0.13 0.7 0.29 1.4 0.58 2.13 0.87 0.7 1.99 1.37 3.99 2 6 0.99 0.33 1.98 0.66 3 1l1 2h3c0.24 0.79 0.49 1.57 0.75 2.38 1.45 3.05 2.24 3.35 5.25 4.62l3 3h2c0.12 0.58 0.24 1.16 0.37 1.75 0.63 2.28 1.51 4.18 2.63 6.25h2v2c2.63 2.4 2.63 2.4 6 3l1 2c3.46 3.81 3.46 3.81 8 6 0.12 0.6 0.24 1.2 0.37 1.82 0.91 3.19 3.03 4.17 5.63 6.18 0.9 1.02 1.77 2.07 2.62 3.13 2.24 2.99 2.24 2.99 5.38 4.87 0.99 1.49 0.99 1.49 2 3 0.68 0.33 1.36 0.66 2.06 1 1.94 1 1.94 1 2.94 4 1.84 2.06 1.84 2.06 4 3v2h4v3l3 2c0.99 1.49 0.99 1.49 2 3h4c0.09 0.6 0.18 1.19 0.27 1.81 0.9 2.72 2.04 3.58 4.29 5.32 1.94 1.51 1.94 1.51 3.44 2.87v2l3 2 1 3c2.81 2.28 2.81 2.28 6 2v3c1.17 0.31 1.17 0.31 2.37 0.63 2.63 1.37 2.63 1.37 3.81 4.44 0.41 1.45 0.41 1.45 0.82 2.93 2.28 1.15 3.59 1.11 6.12 1.07 1.92-0.04 1.92-0.04 3.88-0.07l1-4h2c0.26-0.62 0.53-1.23 0.81-1.87 1.19-2.13 1.19-2.13 4.19-4.13v-3h5c0.24-0.74 0.49-1.48 0.75-2.25 1.36-3 2.75-4.63 5.25-6.75 0.99-0.33 1.98-0.66 3-1 0.14-0.64 0.28-1.28 0.43-1.93 0.57-2.07 0.57-2.07 2.38-3.19 0.72-0.29 1.44-0.58 2.19-0.88 3.4-1.44 4.9-2.96 7-6l2-2c0.45-1.01 0.9-2.02 1.37-3.06 0.54-0.97 1.07-1.94 1.63-2.94 1.32-0.36 2.66-0.69 4-1 1.29-2.49 1.29-2.49 2-5h2c3.8-3.47 7.06-7.37 10.4-11.3 1.65-1.67 1.65-1.67 4.65-2.67 0.12-0.64 0.24-1.28 0.37-1.93 0.21-0.69 0.41-1.37 0.63-2.07 1.17-0.43 1.17-0.43 2.37-0.87 2.91-0.91 2.91-0.91 4-4 1.68-3.23 2.15-3.68 5.19-5.25 3.59-1.96 3.91-2.4 5.44-5.88 1.65-1.34 3.32-2.67 5-4v-2h2c0.06-0.62 0.12-1.23 0.18-1.87 0.27-0.7 0.54-1.4 0.82-2.13 1.66-0.66 3.33-1.33 5-2 0.37-1.32 0.7-2.65 1-4 1.99-1.23 4.01-2 6.18-2.87 2.02-0.99 2.02-0.99 2.57-3.25 0.08-0.62 0.16-1.24 0.25-1.88 0.59-0.09 1.19-0.18 1.8-0.28 2.71-0.88 3.54-1.98 5.26-4.22 2.06-2.66 2.62-3.39 5.94-4.5 1.28-2.07 1.95-3.7 2.31-6.12 0.34-0.93 0.34-0.93 0.69-1.88 1.65-0.69 3.32-1.36 5-2 2.45-2.61 2.45-2.61 3-6 0.68-0.16 1.36-0.33 2.06-0.5 3.69-1.88 5.68-4.36 8.29-7.52 1.65-1.98 1.65-1.98 3.36-3.61 1.51-1.3 1.51-1.3 1.29-3.37l5-1v-8c0.99-0.33 1.98-0.66 3-1 0.08-3.98 0.14-7.95 0.18-11.9 0.03-1.12 0.05-2.24 0.08-3.39 0.07-7.92-0.19-15-5.42-21.3-1.16-0.94-1.16-0.94-2.34-1.91-0.78-0.65-1.55-1.3-2.35-1.97-2.17-1.69-2.17-1.69-5.15-2.53-0.47-1.2-0.47-1.2-0.94-2.43-1.27-3.07-2.16-3.25-5.06-4.57l-1-3c-2.02-0.73-2.02-0.73-4-1v-2h-2v-2c-2.01-2.09-2.01-2.09-4.57-3.93-2.43-2.07-2.43-2.07-3.43-5.07-2.02-0.73-2.02-0.73-4-1v-3h-2l-1-3c-2.64-2.41-2.64-2.41-6-3l-1-3h-2v-2c-0.99-0.33-1.98-0.66-3-1-0.25-0.72-0.5-1.44-0.75-2.18-1.55-3.47-3.54-4.99-6.45-7.34-3.24-2.65-6.07-5.73-8.99-8.73-1.71-1.82-1.71-1.82-3.81-2.75l-1-3c-2.02-0.73-2.02-0.73-4-1v-3c-1.63-1.77-1.63-1.77-3.75-3.43-2.33-1.94-4.48-3.8-6.57-6-1.67-1.91-1.67-1.91-4.68-1.57-0.19-0.86-0.38-1.73-0.57-2.62-1.84-4.33-4.54-6.79-8.43-9.38h-2l-1-3h-3c-0.09-0.78-0.17-1.56-0.25-2.37-0.46-2.75-0.46-2.75-2.63-3.69-0.7-0.31-1.4-0.62-2.12-0.94-1.02-1.32-2.02-2.65-3-4h-2v-3c-1.97-2.05-1.97-2.05-4.32-3.75-2.13-1.78-3.52-3.22-5.18-5.37-2.49-2.86-3.93-3.86-7.5-4.88v-3c-1.78-1.69-1.78-1.69-4-3.31-3.94-3.26-3.94-3.26-4.5-7.12 0.16-0.85 0.33-1.7 0.5-2.57-0.96-0.43-0.96-0.43-1.94-0.87-2.06-1.13-2.06-1.13-3.06-3.13h-3l-1-3zm554 12v31h1v-31h-1zm-583 15 1 2zm583 19v40h1v-40h-1zm-623 21 1 3 1-3h-2zm-40 40 1 3zm-56 54 1 2zm-369 26 1 2zm-9 9 1 2zm-13 9 1 2zm688 9-1 2h2l-1-2zm421 2 1 2zm-430 7 1 3zm-31 31 1 2zm-9 9 1 3zm-31 31 1 2zm501 2 1 4zm-510 7 1 3zm510 0 1 3zm0 11v9h1v-9h-1zm-522 2 1 2zm-23 23 1 2zm-367 18.6c-2.03 2.75-2.12 4.04-1.75 7.37l-4 2v2h-2l-1 5c-3.63 0.66-7.26 1.32-11 2v4c-0.64 0.11-1.28 0.21-1.94 0.32-1.02 0.34-1.02 0.34-2.06 0.68l-1 3-2 1c0.7 3.15 1.76 6.03 3 9h4v2c1.64 1.69 3.31 3.36 5 5l1 2c0.61 0.27 1.23 0.54 1.87 0.82 2.76 1.54 3.54 3.5 5.13 6.18 1.48 0.5 1.48 0.5 3 1 1 1.33 2 2.66 3 4h2c0.12 0.93 0.12 0.93 0.25 1.88 0.56 2.31 0.56 2.31 2.81 3.37 0.96 0.37 0.96 0.37 1.94 0.75v2h2l1 3 2 2h3c0.24 0.58 0.49 1.16 0.75 1.75 1.43 2.58 3.11 4.24 5.25 6.25 0.53 0.58 1.07 1.16 1.62 1.75 1.31 1.48 1.31 1.48 3.38 1.25l1 4 2-1c0.68 1.24 0.68 1.24 1.37 2.5 0.54 0.83 1.07 1.65 1.63 2.5h2l1 3c1.31 1.36 2.64 2.69 4 4 0.82 1.01 1.65 2.02 2.5 3.07 2.09 2.46 3.92 4.07 6.5 5.93 0.99 1.49 0.99 1.49 2 3 1.46 1.24 2.92 2.47 4.4 3.67 5.89 4.92 5.89 4.92 7.6 8.33h2c0.22 0.62 0.45 1.24 0.68 1.88 1.7 2.74 3.37 2.99 6.32 4.12l1 3h2l1 3c1.3 1.36 2.64 2.69 4 4 0.94 1.12 1.88 2.25 2.81 3.38 2.61 3.08 5.42 5.65 8.53 8.22 2.36 2 4.47 4.22 6.66 6.4 1.01 0.81 2.02 1.61 3.06 2.44 3 2.62 4.74 5.27 6.94 8.56 2.08 1.25 2.08 1.25 4 2l1 2h2l1 3h2l1 3h2v3c1.49 1.67 1.49 1.67 3.5 3.25 0.72 0.61 1.45 1.22 2.2 1.85s1.51 1.26 2.3 1.9c1.44 1.23 2.88 2.45 4.31 3.69 0.63 0.54 1.27 1.08 1.92 1.64 1.85 1.76 3.27 3.61 4.77 5.67 2.48 2.73 2.48 2.73 5 5h2c0.12 0.64 0.24 1.28 0.37 1.94 0.21 0.68 0.41 1.36 0.63 2.06l2 1c1.68 1.65 3.35 3.32 5 5 2.03 2.17 2.03 2.17 5 4 1.33 2 2.66 4 4 6h3c0.24 0.58 0.49 1.16 0.75 1.75 1.42 2.56 3.15 4.22 5.25 6.25l2 3c0.76 0.44 1.52 0.87 2.31 1.32 4.31 2.7 6.87 6.46 9.69 10.7h3l1 3c1.3 1.36 2.64 2.69 4 4 1.56 1.86 3.1 3.73 4.63 5.61 0.45 0.46 0.9 0.92 1.37 1.39h2l1 3c1.67 1.17 3.34 2.34 5.03 3.49 4.09 3.15 7.21 7.31 10.4 11.3 2.68 3.38 2.68 3.38 6.56 5.18 0.99 1.49 0.99 1.49 2 3 2.06 0.73 2.06 0.73 4 1l1 4h2v3c0.92 0.1 0.92 0.1 1.87 0.19 2.13 0.81 2.13 0.81 3.38 3.38 0.24 0.8 0.49 1.6 0.75 2.43h2l2 4h3l1 3c2.37 2.71 2.37 2.71 5 5h2l1 3c3.44 3.83 3.44 3.83 8 6v2h2v2c1.65 1.36 3.31 2.69 5 4l1 2h2c0.26 0.62 0.53 1.24 0.81 1.88 1.14 2.42 1.14 2.42 4.19 4.12l1 3h2l1 2c2.57 3.41 4.88 6.06 8.43 8.44 3.31 2.23 5.65 4.79 8.16 7.86 2.7 3.27 5.3 6.1 9.03 8.14 3.07 2.02 3.78 4.31 5.38 7.56 2.01 1.14 2.01 1.14 4 2 0.7 1.32 1.36 2.65 2 4l3 2c1.25 1.49 2.51 2.97 3.74 4.48 2.41 2.92 4.66 5.18 7.94 7.09 2.32 1.43 2.32 1.43 3.32 4.43l3 2c2.45 2.39 4.83 4.83 7.18 7.32 1.65 1.91 1.65 1.91 3.82 1.68v2c2.08 2.75 2.08 2.75 5 5 3.21 0.42 3.21 0.42 6 0l1-4c0.61-0.08 1.23-0.16 1.87-0.25 2.29-0.52 2.29-0.52 3.04-2.61 1.54-3.03 3.86-4.54 6.53-6.57 1.81-1.82 2.16-3.07 2.56-5.57h4v-3l5-1v-2c0.78-0.22 1.56-0.45 2.37-0.68 2.79-1.08 2.79-1.08 3.88-3.63 0.71-2.55 1.3-5.07 1.75-7.69l5-1v-2h2c0.24-0.62 0.49-1.23 0.75-1.87 1.48-2.52 2.65-2.91 5.25-4.13l2-3c0.99-0.33 1.98-0.66 3-1 1.05-1.63 2.05-3.3 3-5 2.57-3.85 2.57-3.85 6-5l3-3h2v-2c0.99-0.33 1.98-0.66 3-1 1.63-2.51 2.99-5.11 4.4-7.75 1.6-2.25 1.6-2.25 3.79-3.06 0.89-0.09 0.89-0.09 1.81-0.19v-3c0.99-0.33 1.98-0.66 3-1l-1-3c0.84-0.16 1.69-0.33 2.56-0.5 5.77-2.51 8.93-7.53 12.7-12.4 1.75-2.07 1.75-2.07 4.75-3.07 1.78-1.83 1.78-1.83 3.5-4 3.16-3.89 3.16-3.89 6.5-5v-2h2c1.02-1.65 2.02-3.32 3-5 2.06-2.42 4.09-3.7 7-5l-1-3c1.39-0.34 1.39-0.34 2.81-0.68 3.84-1.58 4.21-2.78 6.19-6.32 1.03-0.91 2.09-1.78 3.18-2.62 1.4-1.18 1.4-1.18 2.82-2.38v-3c0.59-0.08 1.19-0.16 1.81-0.25 2.82-0.96 3.66-2.24 5.19-4.75v-2c2.31-0.33 4.62-0.66 7-1v-3l2-1c0.28-0.6 0.57-1.19 0.87-1.81 2.08-4.03 4.99-6.42 9.13-8.19v-3l5-1c0.1-0.64 0.2-1.28 0.31-1.93 0.23-0.69 0.45-1.37 0.69-2.07 0.99-0.33 1.98-0.66 3-1l1-2c1-2 1-2 4-3l1-3c1.48-0.99 1.48-0.99 3-2v-2l5-1-1-2c1-1 1-1 4-2v-2h2v-2h3c0.12-0.86 0.12-0.86 0.25-1.75 0.97-2.92 2.42-4.26 4.75-6.25 0.99-0.33 1.98-0.66 3-1l1-5h4l1-4h4c0.24-0.74 0.49-1.48 0.75-2.25 1.34-2.95 2.94-4.51 5.25-6.75v-2h3c0.61-0.97 1.23-1.94 1.87-2.93 2.13-3.07 2.13-3.07 4.88-3.94 0.74-0.04 1.48-0.08 2.25-0.13l1-5c0.99-0.33 1.98-0.66 3-1l1-3c1.48-0.99 1.48-0.99 3-2v-2c0.61-0.08 1.23-0.16 1.87-0.25 2.29-0.53 2.29-0.53 3.05-2.61 1.2-2.37 2.38-3.44 4.45-5.07 2.18-1.8 3.85-3.34 5.63-5.57 2.2-2.75 4.62-4.83 7.33-7.08 1.82-1.5 1.82-1.5 3.85-3.73 1.82-1.69 1.82-1.69 3.78-2.06 2.15-0.45 2.15-0.45 3.27-2.26 0.36-0.68 0.71-1.36 1.08-2.05 2.2-3.83 4.63-6.25 8.14-8.9 1.78-1.63 2.5-3.26 3.55-5.42 1.32-0.68 2.65-1.35 4-2 2.42-2.63 2.42-2.63 3-6 2.97-0.49 2.97-0.49 6-1 0.08-0.55 0.16-1.11 0.25-1.68 0.98-3.05 2.63-4.95 4.75-7.32l2-1v-2h5c0.31-0.62 0.63-1.25 0.95-1.9 0.43-0.81 0.86-1.63 1.3-2.47 0.41-0.81 0.83-1.63 1.26-2.46 1.67-2.43 2.85-2.99 5.49-4.17 2.71-2.96 4.72-5.17 6-9 2.06-1.18 2.06-1.18 4-2v-2l4 1c0.06-0.55 0.12-1.11 0.18-1.68 1.17-3.33 3.17-5.05 5.82-7.32h3v-3l5-2v-2c1.31-1.35 2.64-2.68 4-4l1-2c2.06-0.62 2.06-0.62 4-1v-3c1.46-1.46 1.46-1.46 3.37-2.93 2.8-2.17 4.1-3.9 5.63-7.07 2.12-1.25 2.12-1.25 4-2v-2h2c0.22-0.64 0.45-1.28 0.68-1.93 1.32-2.07 1.32-2.07 3.94-2.82 0.78-0.08 1.57-0.16 2.38-0.25v-4c1.48-0.49 1.48-0.49 3-1 0.19-5.52-0.26-9.75-2-15h-3l-1-3c-0.75-0.06-1.49-0.12-2.25-0.18-3.62-1.07-4.53-2.83-6.75-5.82-1.66-1.34-3.32-2.68-5-4l-1-2h-2l-1-2c-0.99-0.33-1.98-0.66-3-1l-1-3c-2.68-0.04-5.33-0.04-8 0h-3.57c-4.42 1.29-5.87 3.41-8.66 6.94-1.76 2.04-3.39 3.31-5.65 4.75-3.32 1.99-3.32 1.99-4.06 5.13-0.02 0.72-0.04 1.44-0.06 2.18h-3l-2 3c-0.99 0.33-1.98 0.66-3 1-0.15 0.6-0.29 1.2-0.44 1.82-0.77 2.98-2.21 4.25-4.56 6.18h-3c-1.05 1.64-2.05 3.31-3 5l-2 1v2h-2v2c-0.6 0.29-1.2 0.58-1.82 0.88-4.16 2.07-4.16 2.07-6.18 6.12l-3 2-1 3c-2.07 1.19-2.07 1.19-4 2v3c-0.75 0.25-1.49 0.5-2.25 0.75-3 1.37-4.63 2.75-6.75 5.25l-1 3c-2.42 2.76-4.63 4.56-8 6v2c-0.64 0.25-1.28 0.5-1.94 0.75-2.25 1.07-2.25 1.07-2.81 3.38-0.09 0.62-0.17 1.24-0.25 1.87h-3c-0.27 0.64-0.54 1.28-0.82 1.94-1.18 2.06-1.18 2.06-4.18 3.06l-1 2c-3.56 1-6.92 1.11-10.6 1.07-1.1-0.01-2.2-0.02-3.33-0.03-2.24-0.02-4.47-0.05-6.71-0.08-7.37-0.05-14.7 0.17-22 0.54-12.2 0.58-24.4 0.66-36.6 0.63-3.58 0-7.16 0-10.7 0.01h-7.03-3.15c-5.2-0.01-10.4-0.15-15.6-0.5-12.3-0.8-24.6-0.78-37-0.77h-7.31c-5.89-0.01-11.8-0.01-17.7 0h-14.4-2.08-4.19c-13-0.01-26.1 0-39.2 0-11.1 0.01-22.3 0.01-33.4 0h-39-4.18-2.08-14.3c-6.46-0.01-12.9 0-19.4 0h-7.05c-12.6-0.01-25.2 0.16-37.8 0.79-10.2 0.51-20.3 0.22-30.5-0.09-3.68-0.11-7.36-0.21-11-0.31-1.34-0.04-1.34-0.04-2.7-0.08-13.4-0.34-26.8-0.32-40.1 0.32-1.06 0.05-2.12 0.1-3.21 0.15-2.54 0.11-5.07 0.23-7.6 0.35l1 3c-5.66-1.09-10.9-2.29-16-5-1.07-1.87-1.07-1.87-2-4-1.97-1.71-3.97-3.38-6-5l-3-3c-1.02-0.74-1.02-0.74-2.07-1.5-1.93-1.5-1.93-1.5-3.93-4.5-0.97-0.62-1.94-1.23-2.94-1.87-3.19-2.21-4.23-3.79-6.06-7.13-1.29-1.37-2.63-2.7-4-4-1.09-1.11-1.09-1.11-2.19-2.25-3.17-3.09-6.48-5.99-9.83-8.88-1.98-1.87-1.98-1.87-3.98-4.87-1.12-1.01-2.27-1.99-3.44-2.93-2.61-2.17-4.56-4.32-6.56-7.07h-2v-2c-1.98-0.66-3.96-1.32-6-2-0.5-2.97-0.5-2.97-1-6h-2c-0.5-0.99-0.5-0.99-1-2-0.99-0.33-1.98-0.66-3-1-0.63-1.93-0.63-1.93-1-4-0.5-0.99-0.5-0.99-1-2h-2v-2c-1.08-0.57-2.15-1.15-3.25-1.75-2.38-1.33-3.8-2.3-5.63-4.37-4.33-3.82-10.5-4.04-16.1-3.88-1.02-0.37-1.02-0.37-2.07-0.75-2.13-0.5-2.13-0.5-4.18 1.38zm740 22.4v5h1v-5h-1zm-9 21 1 2zm-13 13 1 2zm-9 10 1 2zm-13 12-1 2h2l-1-2zm217 8v8h1v-8h-1zm0 14v16h1v-16h-1zm-240 1 1 2zm-8 8-1 2h2l-1-2zm-5 5-1 2h2l-1-2zm253 8 1 2zm-262 1 1 2zm262 9 1 2zm-1 3 1 2zm-288 14v2h2v-2h-2zm-4 5-1 2h2l-1-2zm-4 4-1 2h2l-1-2zm-5 5 1 2zm288 58 1 3zm-9 8 1 2zm-8 9 1 2zm-10 10 1 2zm-358 12 1 2zm345 2 1 2zm-354 7v3zm-72 72 1 2zm346 0 1 2zm-349 5 1 2zm-28 25 1 3zm315 32 1 2zm-354 9 1 2zm312 34 1 2zm-56 55 1 2z" fill="#FD0D08"/>
<path transform="translate(1050,1489)" d="m0 0 4 2c-1.62 5.75-1.62 5.75-5 8v2l-5 1-1 4c-16.5 1-33 1.04-49.6 0.84-1.64-0.01-1.64-0.01-3.3-0.03-10.3-0.12-20.6-0.26-30.8-0.4-28-0.39-55.9-0.4-83.9 0.05-46.8 0.76-93.6 0.69-140 0.67-9.86-0.01-19.7 0-29.6 0-9.63 0.01-19.2 0.01-28.9 0-5.69 0-11.4 0-17.1 0.01-5.29 0-10.6 0-15.9-0.01h-5.82c-2.63 0.01-5.26 0-7.89 0h-2.34c-5.26-0.02-5.26-0.02-7.49-1.13-1.4-0.05-2.81-0.03-4.22 0.01-1.3 0.04-1.3 0.04-2.64 0.08-0.94 0.03-1.89 0.06-2.86 0.09-2.01 0.05-4.01 0.09-6.01 0.12-3.16 0.06-6.32 0.14-9.47 0.25-19.8 0.67-19.8 0.67-25.7-4.45-3.07-3.49-3.07-3.49-3.07-6.1-0.99-0.33-1.98-0.66-3-1 2-2 2-2 4.44-2.31 3.05 0.37 3.54 1.12 5.56 3.31 2.71 0.87 5.19 1.13 8.03 1.15 1.19 0.01 1.19 0.01 2.4 0.03 0.86 0 1.72 0.01 2.61 0.01 1.36 0.01 1.36 0.01 2.76 0.02 1.98 0.02 3.96 0.04 5.94 0.05 3.13 0.02 6.26 0.05 9.39 0.08 7.78 0.07 15.6 0.13 23.3 0.19 6.57 0.05 13.1 0.1 19.7 0.16 3.08 0.03 6.17 0.05 9.26 0.07 1.89 0.02 3.78 0.03 5.66 0.05 0.87 0 1.73 0.01 2.62 0.01 3.34 0.04 6.1 0.12 9.29 1.18 1.84 0.09 3.68 0.13 5.52 0.13h3.5 3.86 4.09c3.76 0.01 7.51 0 11.3 0h12.1c7.92 0.01 15.8 0.01 23.8 0.01 6.44-0.01 12.9-0.01 19.3-0.01h2.77c1.86 0 3.72 0 5.58 0.01 17.4 0 34.9-0.01 52.3-0.01 15-0.01 30 0 45 0 17.4 0.01 34.8 0.01 52.2 0h5.55 2.76c6.44 0 12.9 0 19.3 0.01 7.84 0 15.7 0 23.5-0.01h12c3.65 0.01 7.31 0 11 0h5.89 3.48 3.03c2.21 0.12 2.21 0.12 3.24-1.13 2.96-0.16 5.89-0.26 8.85-0.32 0.88-0.02 1.77-0.04 2.68-0.06 2.85-0.06 5.69-0.12 8.53-0.18 1.93-0.05 3.85-0.09 5.77-0.13 4.72-0.11 9.45-0.21 14.2-0.31l-1-3 1-1c2.34 0.29 4.67 0.62 7 1-1.49-1.98-1.49-1.98-3-4l1-1z" fill="#F08A88"/>
<path transform="translate(804 179)" d="m0 0c2.75 0.56 2.75 0.56 4.05 2.24 0.85 1.44 1.69 2.9 2.5 4.36 1.4 2.29 3.01 3.45 5.2 4.96 0.67 1.34 1.33 2.67 2 4 1.64 1.69 3.31 3.36 5 5 0.79 0.8 1.58 1.61 2.39 2.43 3.87 3.91 7.73 7.75 11.9 11.3 3.32 2.85 6.08 5.74 8.69 9.25v2c0.56 0.25 1.11 0.5 1.69 0.75 2.31 1.25 2.31 1.25 4.87 3.31 2.36 2.11 2.36 2.11 5.44 2.94v2.13c1.37 3.94 3.79 5.08 7.14 7.39 2.33 1.86 2.8 3.75 3.86 6.48 0.93 0.31 1.86 0.62 2.81 0.94 4.34 1.45 5.57 3.37 8.19 7.06v2c1.39 0.31 1.39 0.31 2.81 0.63 4.11 1.77 4.29 3.42 6.19 7.37 2.19 2.19 4.55 4.11 7 6l2-1c0.4 1.39 0.4 1.39 0.81 2.82 1.39 3.72 2.63 5.41 6.2 7.17 0.7 0.3 1.4 0.59 2.12 0.89 3.74 1.77 3.74 1.77 4.87 4.87v2.25l8 2-2 2c0.5 0.46 0.99 0.91 1.5 1.38 1.5 1.62 1.5 1.62 1.5 3.62 0.76 0.25 1.51 0.49 2.29 0.75 3.05 1.41 4.1 2.61 6.02 5.31 6.57 9.3 6.57 9.3 15.4 16.1 3.77 2.1 4.91 4.26 7.25 7.81 1.99 1.02 3.99 2.02 6 3 0.56 1.94 0.56 1.94 1 4 2.36 2.11 2.36 2.11 5 4 3.47 3.07 5.54 6.62 7 11 1.85 1.01 1.85 1.01 4 1 1.77-1.35 1.77-1.35 3-3l-2 6 5 1c0.06 0.62 0.12 1.24 0.19 1.88 0.62 2.36 0.62 2.36 3.12 3.25 0.89 0.29 1.78 0.57 2.69 0.87 2.19 0.82 2.19 0.82 4 2 0.31 0.79 0.62 1.57 0.94 2.38 1.34 3.32 3.27 4.46 6.06 6.62 0.32 0.64 0.63 1.29 0.96 1.95 1.14 2.24 2.22 3.3 4.17 4.87 0.92 0.75 0.92 0.75 1.86 1.53 0.66 0.55 1.33 1.09 2.01 1.65 1.44 1.25 2.88 2.5 4.31 3.75 0.66 0.57 1.31 1.15 1.99 1.74 1.27 1.13 2.5 2.31 3.7 3.51v4c0.62 0.31 1.24 0.62 1.87 0.94 1.38 0.69 2.76 1.38 4.13 2.06v2c0.93 0.34 0.93 0.34 1.87 0.69 2.13 1.31 2.13 1.31 3.07 3.81 0.82 2.73 0.82 2.73 3.5 3.56 0.84 0.31 1.69 0.62 2.56 0.94 3 3.31 3 3.31 3 6 0.6 0.26 1.19 0.52 1.81 0.79 2.33 1.29 3.57 2.53 5.25 4.59 0.51 0.62 1.02 1.24 1.55 1.88 0.46 0.57 0.92 1.15 1.39 1.74 0.62 0.77 1.24 1.53 1.87 2.32 1.13 1.68 1.13 1.68 1.13 3.68 0.78 0.31 1.57 0.62 2.37 0.94 4.5 1.82 4.5 1.82 5.88 4.38 1.62 2.88 1.62 2.88 4.69 4.62 3.06 2.06 3.06 2.06 5.06 5.12 1.78 3.14 1.78 3.14 5 4.44 3.73 1.87 4.8 4.02 7 7.5 0.83 0.66 1.65 1.32 2.5 2 2.93 2.34 4.61 4.78 6.5 8v2c1.07-0.02 2.14-0.04 3.25-0.06 3.75 1.06 3.75 1.06 4.93 3.03 0.63 1.61 1.25 3.24 1.84 4.87 1.32 2.92 3.15 3.83 5.98 5.16v2c0.64 0.25 1.28 0.5 1.94 0.75 0.68 0.42 1.36 0.83 2.06 1.25 0.14 0.66 0.29 1.32 0.44 2 0.18 0.66 0.37 1.32 0.56 2 0.74 0.29 1.49 0.58 2.25 0.88 3.72 1.52 5.24 4.04 7.75 7.12 0.87 0.5 1.73 0.99 2.63 1.5 2.37 1.5 2.37 1.5 3.74 4.38 1.89 3.63 3.74 4.8 7.07 6.97 1.96 1.45 2.48 3 3.56 5.15 1.69 1.36 3.45 2.56 5.25 3.77 2.18 1.54 4.01 3.21 5.75 5.23v2h2v2c0.64 0.25 1.28 0.5 1.94 0.75 2.06 1.25 2.06 1.25 2.81 3.38 0.08 0.62 0.16 1.23 0.25 1.87l-4 1v-3c-0.56-0.08-1.11-0.16-1.69-0.25-3.11-1.01-4.94-2.5-7.31-4.75-0.35-0.88-0.7-1.77-1.06-2.68-0.47-1.15-0.47-1.15-0.94-2.32-2.04-0.88-2.04-0.88-4-1v-2l-4-1v-4h-3v-3c-1.31-1.02-2.65-2.02-4-3v-2c-0.84-0.34-0.84-0.34-1.69-0.68-2.97-1.69-5.03-3.78-7.31-6.32v-2c-0.58-0.06-1.15-0.12-1.75-0.18-3.16-1.15-4.19-3.17-6.25-5.82-1.73-1.58-3.51-3.08-5.32-4.57-1.66-1.41-3.23-2.8-4.68-4.43v-2c-1.42-0.34-1.42-0.34-2.87-0.68-3.13-1.32-3.13-1.32-4.32-3.82-0.27-0.82-0.53-1.65-0.81-2.5l-3-2v-2h-2v-3l-4-2v-2l-4-1-1-4c-0.56-0.06-1.11-0.12-1.69-0.18-3.33-1.17-5.04-3.17-7.31-5.82v-3c-0.56-0.06-1.11-0.12-1.69-0.18-3.3-1.17-5.03-3.22-7.31-5.82v-2c-0.6-0.1-1.2-0.2-1.81-0.31-2.56-0.8-3.42-1.7-5.19-3.69-0.72-0.66-1.44-1.32-2.19-2-1.81-2-1.81-2-1.81-5-0.99-0.33-1.98-0.66-3-1-0.64-0.97-1.28-1.94-1.94-2.94-2.14-3.18-2.84-3.46-6.06-5.06-1.6-1.65-1.6-1.65-3.06-3.5-1.95-2.43-3.27-3.72-5.94-5.5v-3c-0.9-0.15-0.9-0.15-1.81-0.31-2.5-0.79-3.57-1.66-5.19-3.69v-2h-2v-2c-2.97-0.99-2.97-0.99-6-2l-1-6-4-1v-2h-2v-3h-4l-1-5c-0.58-0.06-1.15-0.12-1.75-0.18-3.14-1.14-4.18-3.22-6.25-5.82-1.1-0.8-2.23-1.57-3.37-2.31-3.6-2.42-5.69-5.31-8.15-8.84-2.07-2.59-4.71-4.06-7.48-5.85-1.03-1.64-2.04-3.31-3-5-0.99-0.33-1.98-0.66-3-1-2-3-2-3-2-6h-4c-0.04-0.6-0.08-1.19-0.13-1.81-1.3-3.27-3.77-3.7-6.87-5.19-2.45-2.61-3-3.37-3-7-0.56-0.06-1.11-0.12-1.69-0.18-4.38-1.54-6.95-5.37-9.81-8.88-2.34-2.75-4.66-4.74-7.5-6.94-1.69-1.64-3.36-3.31-5-5l-2-2v-3h-4c-0.08-0.62-0.16-1.24-0.25-1.87-0.56-2.31-0.56-2.31-2.81-3.38-0.96-0.37-0.96-0.37-1.94-0.75v-3c-0.56-0.06-1.11-0.12-1.69-0.18-3.33-1.17-5.04-3.17-7.31-5.82v-3c-1.49 0.5-1.49 0.5-3 1l-1-3h-2c-0.09-0.93-0.09-0.93-0.19-1.87-0.4-1.05-0.4-1.05-0.81-2.13-1.65-0.71-3.32-1.37-5-2-2.06-1.87-2.06-1.87-4-4-1.11-1.02-1.11-1.02-2.25-2.06-1.75-1.94-1.75-1.94-1.75-4.94h-2v-3h-4v-2c-0.83-0.64-1.65-1.28-2.5-1.94-0.83-0.68-1.65-1.36-2.5-2.06v-3c-1.98-0.49-1.98-0.49-4-1l-1-4-5-1c0.5-1.48 0.5-1.48 1-3h-4v-2h-2l-1-3c-1.99-1.37-4.06-2.47-6.19-3.62-2.18-1.66-2.45-2.71-2.81-5.38h-2l-1-3c-1.32-0.7-2.65-1.36-4-2-2-1.63-2.88-2.46-3.44-5-0.76-2.72-2.31-3.4-4.56-5v-2c-0.72-0.2-1.44-0.41-2.19-0.62-3.61-1.77-5.29-4.28-7.81-7.38-2.15-1.37-2.15-1.37-4-2v-4c-0.62-0.08-1.24-0.16-1.87-0.25-2.13-0.75-2.13-0.75-3.19-2.75-0.47-0.99-0.47-0.99-0.94-2-0.99-0.33-1.98-0.66-3-1l-1-3c-3.43-3.57-7.56-3.73-12.2-4.18-0.75-0.09-1.49-0.17-2.26-0.25-1.83-0.2-3.66-0.39-5.49-0.57v-3h4l1-5c0.64-0.14 1.28-0.29 1.94-0.44 2.23-0.6 3.03-1.55 5.31-2.12z" fill="#EC8583"/>
<path transform="translate(582 497)" d="m0 0c1.38-0.02 2.75-0.02 4.13 0 0.76-0 1.52-0.01 2.31-0.01 2.57-0.02 5.14 0 7.71 0.01 1.86 0 3.71-0 5.57-0.01 5.11-0.01 10.2 0 15.3 0.02 5.51 0.01 11 0 16.5-0.01 10.8-0.01 21.6 0 32.4 0.02 12.6 0.02 25.1 0.02 37.7 0.02 23.1 0 46.2 0.02 69.3 0.05 21.1 0.03 42.2 0.04 63.3 0.04h4.06 2.03 10.1 2.02c21.4 0 42.8 0.01 64.2 0.03 8.76 0 17.5 0 26.3 0.01 10.7 0 21.4 0.01 32 0.02 5.45 0.01 10.9 0.02 16.4 0.02 4.98-0.01 9.97 0 15 0.02h5.42c2.45-0.01 4.9 0 7.35 0.01 0.71 0 1.41-0.01 2.14-0.01 5.69 0.05 9.89 1.11 14.6 4.27h4c1.71 1.57 1.71 1.57 3.37 3.69 2.14 2.6 4.15 4.88 6.82 6.93 2.81 2.38 2.81 2.38 4.75 5.32 2.54 3.77 5.54 6.22 9.06 9.06 1.27 1.06 2.55 2.12 3.81 3.19 0.56 0.46 1.13 0.93 1.71 1.41 1.48 1.4 1.48 1.4 3.48 4.4 0.78 0.43 1.57 0.87 2.37 1.31 3.24 2.08 4.54 4.49 6.63 7.69 1.65 1.36 3.31 2.69 5 4 0.93 1.17 0.93 1.17 1.87 2.37 2.32 2.87 4.84 4.95 7.74 7.2 1.39 1.43 1.39 1.43 1.39 4.43 0.99 0.33 1.98 0.66 3 1v2c0.74 0.21 1.48 0.41 2.25 0.62 3.55 1.78 4.67 4.05 6.75 7.38l3 2v2h4v2h2v3h2v3c0.8 0.25 1.61 0.49 2.44 0.75 0.84 0.41 1.69 0.82 2.56 1.25 0.62 2.06 0.62 2.06 1 4 0.99 0.33 1.98 0.66 3 1v2c0.87 0.4 0.87 0.4 1.75 0.81 3.89 2.06 5.84 3.15 7.5 7.38 0.25 0.92 0.49 1.85 0.75 2.81-4.75-0.75-4.75-0.75-7-3h2v-2c-1.05-0.23-2.1-0.45-3.19-0.69-4.05-1.18-6.13-2.98-8.81-6.31-1.13-2.08-2.15-4.17-3.11-6.33-0.78-1.86-0.78-1.86-2.89-2.67v-2c-0.83 0.14-1.65 0.29-2.5 0.44-5.27-0.66-8.05-3.53-11.5-7.44-1.46-2.28-2.72-4.55-3.9-6.99-1.86-3.4-3.65-4.8-7.16-6.45-3.08-1.64-3.92-2.31-4.94-5.56v-3h-2l-3-6c-2.04-1.08-4.11-2.12-6.19-3.13-5.17-2.61-8.6-5.23-11.6-10.3-1.58-2.04-2.77-2.07-5.24-2.6-1.64-2.34-2.84-4.62-3.94-7.25-0.35-0.58-0.7-1.16-1.06-1.75-0.64-0.15-1.28-0.29-1.94-0.44-2.06-0.56-2.06-0.56-3.81-2.87-1.25-2.69-1.25-2.69-1.25-6.69-0.76-0.29-1.53-0.58-2.31-0.88-2.69-1.12-2.69-1.12-5.69-3.12-3.43-0.45-6.84-0.79-10.3-1.04-2.13-0.2-2.13-0.2-5.72-0.96l-2-4h-427c0.99 1.48 0.99 1.48 2 3-1.72 1.71-4.01 1.23-6.35 1.32-1.62 0.06-1.62 0.06-3.27 0.12-1.14 0.04-2.27 0.08-3.44 0.12-1.14 0.04-2.28 0.09-3.46 0.13-2.83 0.11-5.65 0.21-8.48 0.31l-1-4c0.6-0.25 1.2-0.5 1.81-0.75 2.32-1.08 2.32-1.08 3.36-3.3 1.83-1.95 1.83-1.95 5.08-2.45z" fill="#EF8A88"/>
<path transform="translate(1358,817)" d="m0 0c3 2.25 4.68 3.7 5.6 7.39 0.34 2.87 0.56 5.72 0.71 8.61 0.08 0.98 0.15 1.97 0.22 2.98 0.31 4.35 0.5 8.66 0.47 13h2c0.17 7.31 0.33 14.6 0.48 21.9 0.06 2.49 0.11 4.98 0.17 7.47 0.08 3.57 0.16 7.15 0.23 10.7 0.03 1.11 0.05 2.22 0.08 3.37 0.02 1.04 0.04 2.08 0.06 3.15 0.02 0.91 0.04 1.82 0.06 2.76-0.08 2.63-0.49 5.02-1.08 7.58h-2v2.94 78.1c0.01 2.13 0.02 4.26 0.04 6.38 0 2.58 0.01 5.16 0.02 7.74 0.01 1.32 0.02 2.63 0.03 3.99 0 1.24 0 2.49 0.01 3.77 0 1.15 0.01 2.3 0.01 3.48-0.11 2.64-0.11 2.64-1.11 3.64-0.17 3-0.17 3 0 6l1 1c0.05 1.67 0.04 3.33 0 5 0 3.35 0.02 6.7 0.04 10 0 2.38 0.01 4.77 0.02 7.15 0.01 1.21 0.02 2.42 0.03 3.68 0 1.15 0 2.3 0.01 3.49 0 1.05 0.01 2.11 0.01 3.2-0.11 2.44-0.11 2.44-1.11 3.44-0.37 2.33-0.7 4.66-1 7h-1c-0.77-14.5-1.15-29-1.13-43.5 0-1.98 0-3.96-0.01-5.93 0-4.11 0-8.21 0.01-12.3 0.01-5.19 0-10.4 0-15.6-0.01-4.07-0.01-8.14 0-12.2 0-1.91 0-3.82-0.01-5.73-0.01-12.3 0.31-24.6 0.91-36.8 0.28-5.78 0.38-11.6 0.35-17.3 0.01-0.93 0.01-1.87 0.02-2.83 0.38-4.22 0.38-4.22-1.14-7.79-0.12-1.55-0.18-3.11-0.21-4.66-0.02-1-0.04-1.99-0.06-3.02-0.01-1.09-0.03-2.18-0.05-3.31s-0.04-2.25-0.06-3.42c-0.04-2.4-0.08-4.81-0.12-7.21-0.06-3.61-0.13-7.22-0.19-10.8-0.21-11.4-0.39-22.7-0.24-34.1 0.02-3.8-0.08-7.57-0.38-11.4-0.06-0.73-0.12-1.45-0.18-2.19-0.62-2.39-1.66-3.37-3.51-4.95l2-4zm4 14 1 2z" fill="#F08B89"/>
<path transform="translate(1146,966)" d="m0 0 8 1v2c0.6 0.12 1.2 0.25 1.81 0.38 2.19 0.62 2.19 0.62 5.19 2.62l-14 1-1 3c-3.39 3.68-7.06 6.93-11 10h-2c-0.49 2.48-0.49 2.48-1 5h-3l-2 4h-3c-0.08 0.74-0.16 1.49-0.25 2.25-0.9 3.32-2.12 4.59-4.75 6.75-0.99 0.33-1.98 0.66-3 1-1.01 1.33-2.01 2.66-3 4h-2v2h-2v2c-0.95 0.62-1.9 1.24-2.88 1.88-3.03 2.06-3.78 2.89-5.12 6.12-0.99 0.5-0.99 0.5-2 1-0.31 0.66-0.62 1.32-0.94 2-1.06 2-1.06 2-4.06 3l-1 3c-1.32 0.68-2.66 1.35-4 2-2.14 1.89-3.72 3.44-5 6-1.27 2.55-2.87 4.13-5 6-1.48 0.49-1.48 0.49-3 1-3.83 3.44-3.83 3.44-6 8h-3l-2 5c-2.88-0.19-2.88-0.19-6-1-1.38-2.56-1.38-2.56-2-5l5 1-2-4c0.8-0.43 1.61-0.87 2.44-1.31 2.84-1.49 2.84-1.49 3.56-4.69h3c0.12-0.9 0.12-0.9 0.25-1.81 0.97-2.84 2.19-3.69 4.75-5.19h3l1 1c0.23-1.07 0.45-2.14 0.69-3.25 1.47-4.21 2.83-5.17 6.31-7.75 0.87-2.13 0.87-2.13 1-4h4l-1-3c0.6-0.14 1.2-0.29 1.81-0.44 1.75-0.45 3.48-0.99 5.19-1.56v-3l3-2v-2h2v-3c2.63-1.41 5.05-2.51 8-3 0.99 0.5 0.99 0.5 2 1-0.49-1.98-0.49-1.98-1-4 0.99-0.33 1.98-0.66 3-1v-3c0.99-0.33 1.98-0.66 3-1l2 1c1.42-2.65 2.32-5.08 3-8l1-2c3 0 3 0 4.69 1.5 0.43 0.5 0.86 0.99 1.31 1.5-0.28-1.05-0.28-1.05-0.56-2.12-0.49-3.22-0.1-5.72 0.56-8.88h3v2l2-1c-0.49-2.48-0.49-2.48-1-5 1.98 0.66 3.96 1.32 6 2-0.49-2.48-0.49-2.48-1-5h5l1-4h2l1-2z" fill="#EF8785"/>
<path transform="translate(432,1012)" d="m0 0c1.38 1.29 2.71 2.63 4 4v2c0.99-0.33 1.98-0.66 3-1 4 5.75 4 5.75 4 8 0.56 0.04 1.11 0.08 1.69 0.12 3.6 1.37 5.04 3.79 7.31 6.88v2c0.99 0.33 1.98 0.66 3 1l1 3h2c1.62 1.38 1.62 1.38 3 3v2h3c1.75 1.71 1.75 1.71 3.56 3.94 2.35 2.99 2.35 2.99 5.44 5.06v2h2l1 3h3l2 5h2c1.51 1.46 1.51 1.46 3.12 3.38 0.54 0.62 1.08 1.25 1.64 1.89 1.24 1.73 1.24 1.73 1.24 3.73 0.99 0.33 1.98 0.66 3 1 1.69 1.64 3.35 3.31 5 5 1.1 0.91 2.2 1.8 3.31 2.69 0.89 0.76 1.78 1.52 2.69 2.31v2c0.95 0.6 1.9 1.2 2.88 1.81 3.39 2.38 3.72 3.49 5.12 7.19 1.97 0.74 1.97 0.74 4 1l2 2c0.7 0.47 1.4 0.95 2.12 1.44 0.62 0.51 1.24 1.03 1.88 1.56v3h2c1.51 1.46 1.51 1.46 3.12 3.38 0.54 0.62 1.08 1.25 1.64 1.89 1.24 1.73 1.24 1.73 1.24 3.73 1.49 0.49 1.49 0.49 3 1 1.89 1.59 2.91 2.81 3.94 5.06 1.35 2.46 2.56 2.73 5.06 3.94 1.69 1.64 3.35 3.31 5 5 1.18 1.01 2.37 2.01 3.56 3 2.88 2.43 5.11 5.03 7.44 8 1.11 0.84 1.11 0.84 2.25 1.69 0.58 0.43 1.15 0.86 1.75 1.31v2h2c1.35 1.65 2.69 3.32 4 5l2 1v3c0.99 0.33 1.98 0.66 3 1l-2 3-1-3c-0.64-0.31-1.28-0.62-1.94-0.94-2.06-1.06-2.06-1.06-3-3.06-1.48-2.79-3.13-2.89-6.06-4-4.79-2.76-7.69-5.77-10.7-10.4-1.51-1.86-2.88-2.67-5.01-3.75-3.88-2.2-3.75-2.94-5.31-6.88-1.94-1.85-3.99-3.53-6.05-5.25-2.52-2.26-4.08-4.94-5.95-7.75-3.41-3.38-7.18-6.35-10.9-9.34-0.99-0.8-1.98-1.59-3.01-2.41-0.93-0.74-1.87-1.47-2.84-2.23-2.22-2.02-2.22-2.02-3.22-5.02-1.14-0.37-1.14-0.37-2.31-0.75-3.27-1.52-3.94-3.28-5.54-6.4-1.27-2.04-2.57-3.18-4.46-4.66-3.02-2.39-4.84-4.81-6.88-8.07-3.46-5.22-7.61-8.04-12.9-11.2-3.06-2.02-5.44-4.16-7.87-6.89v-2c-0.61-0.24-1.23-0.49-1.86-0.74-2.6-1.53-3.14-2.74-4.39-5.45-2.3-4.46-5.04-7.15-8.98-10.2-1.77-1.61-1.77-1.61-2.75-3.62-1.28-2.5-2.77-3.48-5.08-5.05-3.83-2.61-3.83-2.61-4.94-5.94-0.96-0.43-0.96-0.43-1.94-0.88-2.78-1.51-3.13-3.18-4.06-6.12l1-1z" fill="#EB8684"/>
<path transform="translate(1047,426)" d="m0 0 3 2v2c1.18 0.46 1.18 0.46 2.38 0.94 4.49 1.82 4.49 1.82 5.87 4.37 1.62 2.89 1.62 2.89 4.69 4.63 3.06 2.06 3.06 2.06 5.06 5.12 1.78 3.14 1.78 3.14 5 4.44 3.73 1.87 4.8 4.02 7 7.5 0.83 0.66 1.65 1.32 2.5 2 2.93 2.34 4.61 4.78 6.5 8v2c1.07-0.02 2.14-0.04 3.25-0.06 3.75 1.06 3.75 1.06 4.93 3.02 0.63 1.62 1.25 3.25 1.84 4.88 1.32 2.92 3.15 3.82 5.98 5.16v2c0.64 0.25 1.28 0.5 1.94 0.75 1.02 0.62 1.02 0.62 2.06 1.25 0.22 0.99 0.22 0.99 0.44 2 0.18 0.66 0.37 1.32 0.56 2 0.74 0.29 1.48 0.58 2.25 0.88 3.72 1.52 5.24 4.04 7.75 7.12 0.87 0.5 1.73 0.99 2.62 1.5 2.38 1.5 2.38 1.5 3.76 4.38 1.88 3.62 3.73 4.79 7.06 6.97 1.96 1.44 2.48 2.99 3.56 5.15 1.69 1.35 3.45 2.55 5.25 3.77 2.18 1.53 4.01 3.21 5.75 5.23v2h2v2c0.96 0.37 0.96 0.37 1.94 0.75 2.06 1.25 2.06 1.25 2.81 3.37 0.08 0.62 0.16 1.24 0.25 1.88l-4 1v-3c-0.56-0.08-1.11-0.16-1.69-0.25-3.11-1.01-4.94-2.51-7.31-4.75-0.35-0.89-0.7-1.77-1.06-2.69-0.31-0.76-0.62-1.52-0.94-2.31-2.04-0.89-2.04-0.89-4-1v-2c-1.98-0.5-1.98-0.5-4-1v-4h-3v-3c-1.31-1.03-2.65-2.03-4-3v-2c-0.56-0.23-1.11-0.45-1.69-0.69-2.97-1.69-5.03-3.78-7.31-6.31v-2c-0.87-0.09-0.87-0.09-1.75-0.19-3.16-1.14-4.19-3.17-6.25-5.81-1.73-1.58-3.51-3.08-5.32-4.57-1.66-1.41-3.23-2.8-4.68-4.43v-2c-1.42-0.34-1.42-0.34-2.88-0.69-3.12-1.31-3.12-1.31-4.31-3.81-0.27-0.82-0.53-1.65-0.81-2.5l-3-2v-2h-2v-3l-4-2v-2l-4-1c-0.49-1.98-0.49-1.98-1-4-0.56-0.06-1.11-0.12-1.69-0.19-3.33-1.17-5.04-3.16-7.31-5.81v-3c-0.56-0.06-1.11-0.12-1.69-0.19-3.3-1.16-5.03-3.21-7.31-5.81v-2c-0.9-0.15-0.9-0.15-1.81-0.31-2.56-0.81-3.42-1.7-5.19-3.69-0.72-0.66-1.44-1.32-2.19-2-1.81-2-1.81-2-1.81-5-0.99-0.33-1.98-0.66-3-1l3-3z" fill="#EB8381"/>
<path transform="translate(787,630)" d="m0 0c0.99 0.33 1.98 0.66 3 1 1.14 6.71 1.14 6.71 0 9-0.62 0.14-1.24 0.29-1.88 0.44-2.6 0.69-3.47 1.45-5.12 3.56-1.19 2.6-1.19 2.6-2 5h-4v4h-4v4l-4 1-1 4-5-1v5h-2c-0.25 0.64-0.5 1.28-0.75 1.94-1.25 2.06-1.25 2.06-3.37 2.81-0.62 0.08-1.24 0.16-1.88 0.25l-1 4h-3c-0.09 1.11-0.09 1.11-0.19 2.25-1.07 3.62-2.68 4.74-5.81 6.75h-3c-0.1 0.64-0.21 1.28-0.31 1.94-0.23 0.68-0.46 1.36-0.69 2.06-1.49 0.5-1.49 0.5-3 1-1.21 2-1.21 2-2 4h-3l-1 5h-3l-2 4-5-2 1-5c0.99 0.33 1.98 0.66 3 1l-1-3c1.98-0.5 1.98-0.5 4-1l-2-3 3-2c0.99 0.33 1.98 0.66 3 1l1-3h2l1-4 4 2v-10l4 1 1-5h3c0.06-0.56 0.12-1.11 0.19-1.69 1.22-3.47 2.9-5.09 5.81-7.31 3.81 0.19 3.81 0.19 7 1-0.5-1.49-0.5-1.49-1-3 0.56-2.56 0.56-2.56 2-5 0.91-0.23 1.82-0.45 2.75-0.69 4.57-1.84 5.61-4.9 7.76-9.19 0.49-0.7 0.98-1.4 1.49-2.12h4l1 1c0.99-2.64 1.98-5.28 3-8l2 1 2-5z" fill="#F08886"/>
<path transform="translate(573,1154)" d="m0 0c3.07 1.54 5.45 3.72 8 6v2c0.57 0.24 1.15 0.47 1.74 0.71 2.75 1.57 4.35 3.44 6.38 5.85 2.57 3.19 2.57 3.19 5.88 5.44l2 3 3 2c1.21 1.47 2.41 2.94 3.6 4.42 1.44 1.62 2.94 2.88 4.65 4.2 3.5 3.03 3.5 3.03 3.75 6.38h3c1.79 1.68 1.79 1.68 3.62 3.88 0.62 0.71 1.23 1.43 1.86 2.17 1.52 1.95 1.52 1.95 2.52 3.95 0.72 0.39 1.44 0.78 2.19 1.19 4.13 2.66 7.6 6.39 9.81 10.8 1.49 0.49 1.49 0.49 3 1 1.54 1.56 1.54 1.56 3.06 3.44 2.07 2.52 4.16 4.84 6.56 7.06 1.38 1.5 1.38 1.5 1.38 3.5h2l1 2c1.49 0.99 1.49 0.99 3 2 4.64 3.35 8.56 7.42 12 12v2l4 2v2c0.96 0.19 0.96 0.19 1.94 0.38 0.68 0.2 1.36 0.41 2.06 0.62l1 2c0.66 0.29 1.32 0.58 2 0.88 2 1.12 2 1.12 2.75 3.24 0.08 0.62 0.16 1.24 0.25 1.88h2v3c0.62 0.06 1.24 0.12 1.88 0.19 2.12 0.81 2.12 0.81 3.37 3.37 0.25 0.81 0.5 1.61 0.75 2.44h4v4h3c1.69 2 1.69 2 3 4-3 1-3 1-4.98 0.31-2.33-1.51-3.64-3.07-5.27-5.31-0.78-1.05-0.78-1.05-1.58-2.12-1.17-1.88-1.17-1.88-1.17-3.88h-3c-1.38-1.19-1.38-1.19-3-3-2.58-2.79-4.52-4.78-8-6.38-3.49-1.88-4.74-3.76-6.73-7.1-1.61-1.93-2.86-2.02-5.27-2.52-1.06-1.75-1.06-1.75-2-4-1.98-3.79-3.23-5.17-7-7-2.15-2.41-3.86-4.75-5.44-7.56-1.81-2.83-3.91-4.4-6.56-6.44l-2-3c-0.99 0.49-0.99 0.49-2 1v-2l-4-2v-2h-3v-2c-0.99-0.33-1.98-0.66-3-1-0.7-1.31-1.36-2.65-2-4-0.7-0.87-1.4-1.73-2.12-2.62-1.88-2.38-1.88-2.38-1.88-4.38-0.99-0.33-1.98-0.66-3-1l-1-2-2 2c-0.06-0.58-0.12-1.15-0.19-1.75-1.13-3.13-3.22-4.2-5.81-6.25-1.36-1.98-2.7-3.98-4-6-0.74-0.74-1.49-1.48-2.25-2.25l-1.75-1.75v-2c-0.56 0.25-1.11 0.49-1.69 0.75-2.31 0.25-2.31 0.25-4.75-1.31-2.24-2.13-4.24-4.32-6.17-6.73-2.18-2.68-4.52-5.22-6.84-7.78-1.55-1.93-1.55-1.93-2.59-4.09-1.38-2.65-3.21-2.97-5.96-3.84l2-4z" fill="#EA8785"/>
<path transform="translate(431,201)" d="m0 0c0.99 0.33 1.98 0.66 3 1-1.28 5.7-4.42 10.4-9 14-2.73 0.23-2.73 0.23-5 0 0.99 1.32 1.98 2.64 3 4l-1 2-2-2h-3v4h-4v7l-5-1v6l-5-2v7c-0.8 0.25-1.61 0.5-2.44 0.75-2.73 0.97-2.73 0.97-3.37 3.37-0.1 0.93-0.1 0.93-0.19 1.88-0.78-0.06-1.57-0.12-2.38-0.19-1.29 0.1-1.29 0.1-2.62 0.19l-2 3h-3c1.4 3.55 1.4 3.55 3 7l-5-2v2l-4-1v3l-3 3v3h-5v7h-4l-1 3c-2 2-2 2-5 3 0.06 1.05 0.06 1.05 0.12 2.12-0.14 3.35-0.73 5.83-2.12 8.88-2 0.94-2 0.94-4 1l-2-1c-0.37-5.52-0.37-5.52 1.38-7.81 1.62-1.19 1.62-1.19 3.62-2.19v-8c2.48-0.99 2.48-0.99 5-2v-2h2v-3c0.64-0.12 1.28-0.25 1.94-0.38 0.68-0.2 1.36-0.41 2.06-0.62l1-2 1-1v-2h3l2-5h3l1-5h4v-3c0.6-0.26 1.2-0.52 1.81-0.78 2.37-1.32 3.53-2.59 5.19-4.72 1.65-2.12 2.71-3.36 5.14-4.55 0.61-0.32 1.23-0.63 1.86-0.95 0.81-2.56 0.81-2.56 1-5h4v-2l2-1c0.31-0.62 0.61-1.25 0.93-1.89 1.17-2.3 2.24-3.29 4.26-4.86 4.09-3.35 7.43-7.2 10.8-11.2l4 1c-0.5-1.98-0.5-1.98-1-4h4l1-4zm-14 15 1 2zm-22 22 1 3zm-18 18 1 2zm-9 9 1 2z" fill="#ED8886"/>
<path transform="translate(1364,1072)" d="m0 0h1c0.05 12.1 0.08 24.1 0.1 36.2 0.01 5.61 0.03 11.2 0.05 16.8 0.02 5.42 0.03 10.8 0.04 16.3 0 2.05 0.01 4.11 0.02 6.16 0.07 13-0.56 25.7-2.21 38.6h-2c-0.25 0.64-0.49 1.28-0.75 1.94-1.25 2.06-1.25 2.06-3.37 2.81-0.62 0.08-1.24 0.16-1.88 0.25l-1 4h-3l-2 5h-4v4c-0.99-0.33-1.98-0.66-3-1-1.04-3.13-0.93-3.99 0-7h3l1-7h3l2-4 2 2 1-6c1.94-0.56 1.94-0.56 4-1l1 1c1.11-7.22 1.2-14.4 1.28-21.7 0.03-1.99 0.06-3.98 0.09-5.98 0.05-4.18 0.1-8.35 0.16-12.5 0.04-3.45 0.08-6.9 0.13-10.4 0.04-2.58 0.07-5.16 0.1-7.74 0.08-5.68 0.25-11.2 1.24-16.7v-1-8h2v-25zm-15 122 1 3z" fill="#F08684"/>
<path transform="translate(793 70.9)" d="m0 0h3.82c3.42-0 6.84 0.01 10.3 0.01 3.58 0.01 7.17 0.01 10.8 0.01 6.78 0 13.6 0.01 20.4 0.02 7.72 0.01 15.4 0.02 23.2 0.02 15.9 0.01 31.8 0.03 47.6 0.05v2c0.99 0.33 1.98 0.66 3 1-110 2.56-110 2.56-142-1v-1c7.68-0.95 15.2-1.13 23-1.11z" fill="#F08B89"/>
<path transform="translate(1067,529)" d="m0 0c3.46 1.27 5.43 3.43 8 6 0.83 0.45 1.65 0.91 2.5 1.38 3.15 2.04 4.46 4.49 6.5 7.62 1.65 1.36 3.31 2.69 5 4 0.62 0.78 1.24 1.57 1.88 2.38 2.31 2.86 4.83 4.94 7.73 7.19 1.39 1.43 1.39 1.43 1.39 4.43 0.99 0.33 1.98 0.66 3 1v2c0.74 0.21 1.48 0.41 2.25 0.62 3.55 1.78 4.67 4.06 6.75 7.38l3 2v2h4v2h2v3h2v3c0.8 0.25 1.61 0.5 2.44 0.75 1.27 0.62 1.27 0.62 2.56 1.25 0.62 2.06 0.62 2.06 1 4 1.48 0.5 1.48 0.5 3 1v2c0.58 0.27 1.15 0.54 1.75 0.81 3.89 2.06 5.84 3.15 7.5 7.38 0.25 0.93 0.49 1.85 0.75 2.81-4.75-0.75-4.75-0.75-7-3h2v-2c-1.05-0.23-2.1-0.45-3.19-0.69-4.05-1.18-6.13-2.98-8.81-6.31-1.13-2.08-2.15-4.16-3.11-6.33-0.78-1.86-0.78-1.86-2.89-2.67v-2c-0.83 0.14-1.65 0.29-2.5 0.44-5.27-0.66-8.05-3.53-11.5-7.44-1.46-2.28-2.72-4.55-3.89-6.98-1.87-3.41-3.65-4.81-7.17-6.46-3.08-1.63-3.92-2.31-4.94-5.56v-3h-2l-3-6c-2.04-1.08-4.11-2.12-6.19-3.12-5.69-2.9-9.89-6.07-12.8-11.9v-2l2-1z" fill="#EE8886"/>
<path transform="translate(699,1279)" d="m0 0c4.1 2.98 7.22 6.43 10.4 10.3 1.46 1.81 1.46 1.81 3.55 2.71v2h2v2c0.62 0.25 1.24 0.49 1.88 0.75 2.47 1.46 3.07 2.63 4.12 5.25h2c5.54 4.86 5.54 4.86 6 9h4c1.91 2.62 2.98 4.93 4 8 1.31 0.71 2.65 1.37 4 2 4.66 3.49 8.08 6.4 10 12 1.78 1.14 1.78 1.14 4 2 5.09 2.85 6.23 4.58 8 10 1.64 0.72 3.31 1.39 5 2 0.69 2.06 0.69 2.06 1 4l2 1c-3.98 0-5.05-1.41-8-4-0.6-0.66-1.2-1.32-1.81-2-2.1-1.92-3.63-2.73-6.19-3.88-4.13-1.95-5.53-4.24-8-8.12-1.47-1.37-2.97-2.7-4.5-4-2.67-2.28-4.95-4.33-6.81-7.31-1.52-2.77-1.52-2.77-3.94-4.38-0.58-0.43-1.15-0.86-1.75-1.31v-3h-2c-0.5-2.47-0.5-2.47-1-5l-4-1v-2c-0.72-0.26-1.44-0.53-2.19-0.8-7.11-3.04-13.4-7.86-17.8-14.2v-2h-3c-1.62-2.75-1.62-2.75-3-6 0.81-2.38 0.81-2.38 2-4z" fill="#EC8684"/>
<path transform="translate(1363,938)" d="m0 0h1c0.69 14.7 1.15 29.4 1.02 44.1-0.04 3.75-0.01 7.5 0.02 11.2 0 2.58 0.01 5.16 0.02 7.74 0.01 1.32 0.02 2.63 0.03 3.99 0 1.24 0 2.49 0.01 3.77 0 1.15 0.01 2.3 0.01 3.48-0.11 2.64-0.11 2.64-1.11 3.64-0.17 3-0.17 3 0 6l1 1c0.05 1.67 0.04 3.33 0 5 0 3.35 0.02 6.7 0.04 10 0 2.38 0.01 4.77 0.02 7.15 0.01 1.21 0.02 2.42 0.03 3.68 0 1.15 0 2.3 0.01 3.49 0 1.05 0.01 2.11 0.01 3.2-0.11 2.44-0.11 2.44-1.11 3.44-0.37 2.33-0.7 4.66-1 7h-1c-0.78-14.6-1.15-29.2-1.13-43.8 0-2 0-4-0.01-6 0-4.14 0-8.29 0.01-12.4 0.01-5.28 0-10.6 0-15.8-0.01-4.11-0.01-8.22 0-12.3 0-1.95 0-3.89-0.01-5.84-0.02-22.5-0.02-22.5 1.14-30.7l1-1z" fill="#F2716E"/>
<path transform="translate(1146,966)" d="m0 0 8 1v2c0.6 0.12 1.2 0.25 1.81 0.38 2.19 0.62 2.19 0.62 5.19 2.62l-14 1-1 3c-3.39 3.68-7.06 6.93-11 10h-2l-1 5h-3l-2 4h-3c-0.08 0.74-0.16 1.49-0.25 2.25-0.89 3.26-2.24 4.56-4.75 6.75-2.47-1.15-4.05-2.05-6-4v-3c0.99-0.33 1.98-0.66 3-1l2 1c1.42-2.65 2.32-5.08 3-8l1-2c3 0 3 0 4.69 1.5 0.43 0.5 0.86 0.99 1.31 1.5-0.19-0.7-0.37-1.4-0.56-2.12-0.49-3.22-0.1-5.72 0.56-8.88h3v2l2-1-1-5c1.98 0.66 3.96 1.32 6 2l-1-5h5l1-4h2l1-2z" fill="#EF8583"/>
<path transform="translate(432,1012)" d="m0 0c1.38 1.29 2.71 2.63 4 4v2c0.99-0.33 1.98-0.66 3-1 4 5.75 4 5.75 4 8 0.56 0.04 1.11 0.08 1.69 0.12 3.6 1.37 5.04 3.79 7.31 6.88v2c0.99 0.33 1.98 0.66 3 1l1 3h2c1.62 1.38 1.62 1.38 3 3v2h3c1.75 1.71 1.75 1.71 3.56 3.94 2.35 2.99 2.35 2.99 5.44 5.06v2h2l1 3h3l2 5h2c1.51 1.46 1.51 1.46 3.12 3.38 0.54 0.62 1.08 1.25 1.64 1.89 1.24 1.73 1.24 1.73 1.24 3.73 0.99 0.33 1.98 0.66 3 1 2.69 2.38 2.69 2.38 5 5v3l-2 2c-3.48-3.15-5.96-6.4-8.56-10.3-3.8-5.37-7.99-8.5-13.6-11.8-3.05-1.99-5.41-4.13-7.83-6.85v-2c-0.61-0.24-1.23-0.49-1.86-0.74-2.6-1.53-3.14-2.74-4.39-5.45-2.3-4.46-5.04-7.15-8.98-10.2-1.77-1.61-1.77-1.61-2.75-3.62-1.28-2.5-2.77-3.48-5.08-5.05-3.83-2.61-3.83-2.61-4.94-5.94-0.96-0.43-0.96-0.43-1.94-0.88-2.78-1.51-3.13-3.18-4.06-6.12l1-1z" fill="#EF8684"/>
<path transform="translate(779,1360)" d="m0 0c1.34 0.93 2.67 1.87 4 2.81 1.11 0.79 1.11 0.79 2.25 1.58 0.58 0.53 1.15 1.06 1.75 1.61v3c0.6 0.09 1.19 0.18 1.8 0.28 2.73 0.89 3.59 2.04 5.32 4.28 1.44 1.91 1.44 1.91 2.88 3.44h2v3h2v2c0.99 0.33 1.98 0.66 3 1l2 3c3.07 0.73 3.07 0.73 6 1l1-4 4-1c0.1-0.59 0.19-1.18 0.29-1.79 0.86-2.68 1.95-3.71 4.09-5.52 0.9-0.8 0.9-0.8 1.83-1.62 0.59-0.35 1.18-0.7 1.79-1.07 0.99 0.33 1.98 0.66 3 1 0.5 1.48 0.5 1.48 1 3-1.42 2.47-2.38 3.76-5.06 4.81-2.36 1.17-2.36 1.17-3.19 4.81-0.25 1.12-0.5 2.23-0.75 3.38-2.08 0.22-4.17 0.43-6.25 0.62-1.16 0.12-2.32 0.24-3.52 0.36-3.19 0.02-4.65-0.17-7.23-1.98l-1-2c-0.89-0.27-1.77-0.54-2.69-0.81-10.1-3.63-16.8-14.5-22.3-23.2l2-2zm34 25 1 2z" fill="#EC8886"/>
<path transform="translate(696,720)" d="m0 0c1.88 0.62 1.88 0.62 4 2 1.25 3.12 1.25 3.12 2 6-0.64 0.1-1.28 0.21-1.94 0.31-0.68 0.23-1.36 0.46-2.06 0.69l-1 3c-2.06 0.69-2.06 0.69-4 1v4c-0.99 0.33-1.98 0.66-3 1l-4 4h-2c-0.12 0.64-0.25 1.28-0.38 1.94-0.3 1.02-0.3 1.02-0.62 2.06l-2 1c-1.13 2.02-1.13 2.02-2 4h-4l-1 4h-3c-0.06 0.95-0.12 1.9-0.19 2.88-0.27 1.03-0.53 2.06-0.81 3.12-2.56 1.38-2.56 1.38-5 2-2.9-2.4-3.5-4.31-4-8 1.49-0.5 1.49-0.5 3-1l2 1c0.5-2.97 0.5-2.97 1-6h4l1-2c2.06-0.62 2.06-0.62 4-1v-5h7l2-6h4v-6l4 1-1-3c0.44-2.19 0.44-2.19 1-4h2l1-3z" fill="#F08684"/>
<path transform="translate(458,526)" d="m0 0h2c0.5 2.97 0.5 2.97 1 6-0.99 0.33-1.98 0.66-3 1 0.08 1.07 0.17 2.14 0.25 3.25-0.3 4.47-1.13 4.81-4.25 7.75-1.28 3.64-1.28 3.64-2 7h-3l-1 3-3 2c-0.68 1.66-1.35 3.33-2 5-1.9 2.85-3.85 3.29-7.06 4-0.69 0.12-1.39 0.25-2.1 0.38-2.23 0.54-2.23 0.54-3.84 3.62l-4-2v-5c1.49-0.5 1.49-0.5 3-1l3 2 2-2c-0.32-2.11-0.32-2.11-1-4 3-1 3-1 7 0 0.5-4.46 0.5-4.46 1-9l4-1 1 1-1-7h6l-1-4c3-2 3-2 6-2-0.04-0.95-0.08-1.9-0.12-2.88 0.12-3.12 0.12-3.12 2.12-5.12v-1z" fill="#EF8886"/>
<path transform="translate(1157,536)" d="m0 0 1 2c2.53 0.66 2.53 0.66 5 1 0.12 1.18 0.12 1.18 0.25 2.38 0.46 2.71 0.46 2.71 2.5 3.74 1.11 0.44 1.11 0.44 2.25 0.88 0.85 0.54 1.69 1.07 2.56 1.62 2.41 1.63 2.41 1.63 5.44 1.38 5.87 6.42 5.6 12.8 5.37 21.1-0.33 3.46-0.85 5.84-2.37 8.93l-2-1c-0.03-1.96-0.05-3.92-0.06-5.88-0.01-1.09-0.03-2.18-0.04-3.3 0.1-2.82 0.1-2.82 1.1-4.82h-3v-2h-2c-0.35-1.03-0.7-2.06-1.06-3.12-1.64-3.86-3.92-5.84-7.15-8.4-2.69-2.23-4.7-4.69-6.79-7.48v-2h-2v-3c-0.99-0.33-1.98-0.66-3-1l4-1z" fill="#EF8785"/>
<path transform="translate(1365,440)" d="m0 0 2 1v17h-2v59h-3c-0.89-5.34-1.11-10.6-1.12-16-0.01-0.66-0.01-1.33-0.02-2.01 0.01-3.32 0.2-6.44 0.64-9.74 0.53-4.07 0.61-8.09 0.56-12.2 0-0.72-0.01-1.43-0.01-2.17-0.01-2.26-0.03-4.52-0.05-6.78-0.03-2.99-0.05-5.99-0.06-8.99-0.01-1.03-0.01-1.03-0.03-2.08-0.02-4.82-0.02-4.82 1.09-7.05 0.03-2.05-0.07-4.08-0.16-6.12 0.16-1.88 0.16-1.88 2.16-3.88z" fill="#F08B89"/>
<path transform="translate(264,763)" d="m0 0c4.45 0.95 7.13 2.46 10 6v2c1.13 0.14 2.27 0.29 3.44 0.44 3.56 0.56 3.56 0.56 4.56 1.56 0.04 2.33 0.04 4.67 0 7 1.98 0.66 3.96 1.32 6 2l-1 14h-2c-1.43-2.87-1.43-5.74-1.72-8.91-0.17-2.14-0.17-2.14-1.28-4.09-2-0.8-4.03-1.4-6.09-2.02-2.46-1.26-2.75-2.51-3.91-4.98-1.83-1.83-1.83-1.83-3.94-3.5-2.79-2.3-4.98-4.53-7.06-7.5l3-2z" fill="#F08987"/>
<path transform="translate(479,970)" d="m0 0c0.14 0.91 0.29 1.82 0.44 2.75 0.18 1.07 0.37 2.14 0.56 3.25 0.12 1.02 0.12 1.02 0.25 2.06 1.16 3.01 3.44 4.74 5.75 6.94 2.38 2.62 2.38 2.62 4 5-0.5 1.49-0.5 1.49-1 3l-2-1v-2h-2l-2-6h-2v-2c-0.6-0.11-1.2-0.21-1.82-0.32-2.49-0.78-3.35-1.67-5.12-3.56-4.81-4.38-10.8-5.05-17.1-6.12v-2h2v-2c6.69-2.01 13.5-0.07 20 2z" fill="#F08987"/>
<path transform="translate(713,701)" d="m0 0c0.93 0.16 1.86 0.33 2.81 0.5 3.15 0.58 3.15 0.58 6.19 0.5l1 5h-2v3c-1.18 0.12-1.18 0.12-2.38 0.25-2.77 0.48-2.77 0.48-3.93 2.81-0.34 0.96-0.34 0.96-0.69 1.94h-3c-0.11 1.15-0.11 1.15-0.21 2.32-0.79 2.68-0.79 2.68-2.86 4.26-1.23 0.61-1.23 0.61-2.49 1.23-1.24 0.63-1.24 0.63-2.51 1.27-0.63 0.3-1.27 0.61-1.93 0.92v-8c0.99-0.33 1.98-0.66 3-1 1.23-3.51 1.23-3.51 2-7 1.11 0.15 1.11 0.15 2.25 0.31 3-0.04 3-0.04 5.06-2.81 0.56-0.83 1.12-1.65 1.69-2.5h-2v-3z" fill="#F1807E"/>
<path transform="translate(538,1119)" d="m0 0c1.64 1.4 3.29 2.81 4.93 4.22 1.38 1.19 2.78 2.38 4.18 3.56 3.72 3.19 6.87 6.33 9.89 10.2 0.74 0.56 1.49 1.11 2.25 1.69 0.58 0.43 1.15 0.86 1.75 1.31v2h2c1.35 1.65 2.69 3.32 4 5l2 1v3c0.99 0.33 1.98 0.66 3 1l-2 3-1-3c-0.64-0.31-1.28-0.62-1.94-0.94-2.06-1.06-2.06-1.06-3-3.06-1.48-2.79-3.13-2.89-6.06-4-4.79-2.76-7.69-5.77-10.7-10.4-1.51-1.86-2.86-2.59-5.01-3.62-3.31-2-3.31-2-4.81-5.62-0.5-3.38-0.5-3.38 0.5-5.38z" fill="#EE8987"/>
<path transform="translate(962,770)" d="m0 0c5.1 5.1 7.66 11.3 8.09 18.4-0.15 4.31-1.02 8.4-2.09 12.6l-4 1c-1.2-2.41-1.19-4.07-1.28-6.76-0.04-0.96-0.08-1.91-0.11-2.89-0.04-1.01-0.07-2.01-0.11-3.04-0.23-7.75-0.23-7.75-1.09-15.4-0.14-0.95-0.27-1.89-0.41-2.86l1-1z" fill="#EE8987"/>
<path transform="translate(573,1154)" d="m0 0c3.07 1.54 5.45 3.72 8 6v2c0.57 0.24 1.15 0.47 1.74 0.71 2.75 1.57 4.35 3.44 6.38 5.85 2.57 3.19 2.57 3.19 5.88 5.44l2 3 3 2-3 3c-6.96-2.19-10.1-7.16-14-13l-2.62-2.62c-2.38-2.38-2.38-2.38-3.38-4.57-1.43-2.59-3.26-2.95-6-3.81l2-4z" fill="#E68381"/>
<path transform="translate(737,681)" d="m0 0c0.99 0.33 1.98 0.66 3 1v3h2l-2 4h-2l-2 4h-3l-1 5h-3l-2 4c-2.48-0.99-2.48-0.99-5-2l1-5c0.99 0.33 1.98 0.66 3 1l-1-3 4-1-2-3 3-2c0.99 0.33 1.98 0.66 3 1l1-3h2l1-4z" fill="#F08987"/>
<path transform="translate(1067,529)" d="m0 0c3.46 1.27 5.43 3.43 8 6 0.83 0.45 1.65 0.91 2.5 1.38 3.15 2.04 4.46 4.49 6.5 7.62 1.65 1.36 3.31 2.69 5 4 1.37 1.64 2.71 3.3 4 5l2 2c-1.98 0.33-3.96 0.66-6 1v-3h-2l-3-6c-2.04-1.08-4.11-2.12-6.19-3.12-5.69-2.9-9.89-6.07-12.8-11.9v-2l2-1z" fill="#ED8987"/>
<path transform="translate(265,811)" d="m0 0 4 2v3c-3.46 1.49-3.46 1.49-7 3v2c-1.26 0.9-2.56 1.74-3.88 2.56-3.4 2.43-4.69 4.01-5.5 8.13-0.09 0.74-0.18 1.49-0.27 2.26-0.35 2.05-0.35 2.05-2.35 5.05v-2h-2v-9l4-2c-0.08-0.93-0.16-1.86-0.25-2.81 0.25-3.19 0.25-3.19 1.94-5.07 2.64-1.28 4.4-1.36 7.31-1.12l2-4h2v-2zm-12 9 1 2z" fill="#F08B89"/>
<path transform="translate(1324,775)" d="m0 0c1.93 0.59 1.93 0.59 4 2 0.72 2.97 0.72 2.97 1.06 6.5 0.28 3.45 0.28 3.45 0.94 6.5l3 2c5 5.18 5 5.18 5 8l-7 2 1-4h-2v-4h-2c-3.17-4.08-6.39-8.69-6.5-14 0.5-3 0.5-3 2.5-5z" fill="#EE8988"/>
<path transform="translate(249,1161)" d="m0 0c1.49 0.99 1.49 0.99 3 2 0.47 2.85 0.79 5.57 1 8.44 0.36 6.48 0.36 6.48 4 11.6v2c0.6 0.27 1.2 0.54 1.81 0.81 2.19 1.19 3.6 2.29 5.19 4.19v2c0.99-0.33 1.98-0.66 3-1l1 2h-6v-2c-1.98-0.66-3.96-1.32-6-2v-4c-0.87-0.12-0.87-0.12-1.75-0.25-3.1-1.03-4.27-2.12-6.25-4.75-0.52-2.89-0.42-5.7-0.31-8.62 0.01-0.78 0.02-1.56 0.03-2.36 0.11-5.68 0.11-5.68 1.28-8.02z" fill="#F08987"/>
<path transform="translate(1363,938)" d="m0 0h1c0.57 12.2 1.1 24.5 1.19 36.8 0.01 0.86 0.02 1.72 0.04 2.61 0 4.34-0.2 7.69-2.23 11.6h-1c-0.17-5.03-0.33-10.1-0.48-15.1-0.06-1.71-0.11-3.42-0.17-5.12-0.69-20.6-0.69-20.6 0.65-29.8l1-1z" fill="#F27775"/>
<path transform="translate(696,720)" d="m0 0c1.88 0.62 1.88 0.62 4 2 1.25 3.12 1.25 3.12 2 6-0.64 0.1-1.28 0.21-1.94 0.31-0.68 0.23-1.36 0.46-2.06 0.69l-1 3c-2.06 0.69-2.06 0.69-4 1v4c-0.99 0.33-1.98 0.66-3 1-1.37 1.29-2.71 2.62-4 4l-3-3 2-4h4v-6l4 1-1-3c0.44-2.19 0.44-2.19 1-4h2l1-3z" fill="#F08886"/>
<path transform="translate(859,1337)" d="m0 0 3 2v4l-4 1 1 4c-0.74-0.12-1.49-0.25-2.25-0.38-1.36 0.19-1.36 0.19-2.75 0.38-2.16 2.91-2.16 2.91-4 6-0.99 0.33-1.98 0.66-3 1v4l-5 2c-0.62-2.38-0.62-2.38-1-5l2-2c0.64-2.07 0.64-2.07 1-4 0.64-0.12 1.28-0.25 1.94-0.38 0.68-0.2 1.36-0.41 2.06-0.62l1-2h2c0.08-0.62 0.16-1.24 0.25-1.88 0.75-2.12 0.75-2.12 2.63-3.12 0.7-0.33 1.4-0.66 2.12-1 1.73-2.03 1.73-2.03 3-4zm-7 7 1 3z" fill="#EC817F"/>
<path transform="translate(804,615)" d="m0 0h5v6c-2.89 0.83-4.89 1-8 1l-1 9h-5l-1 4h-2l-1-5 3-2v2l2-1c-0.21-0.74-0.41-1.49-0.62-2.25-0.42-3.07 0-4.18 1.62-6.75h3l1-2h4l-1-3z" fill="#E98482"/>
<path transform="translate(1363,485)" d="m0 0c2 2 2 2 2.23 4.98-0.02 1.87-0.02 1.87-0.03 3.78-0.01 0.66-0.01 1.32-0.01 2.01-0.01 2.12-0.04 4.24-0.07 6.35-0.01 1.44-0.01 2.88-0.02 4.31-0.02 3.53-0.06 7.05-0.1 10.6h-3c-0.89-5.36-1.11-10.6-1.12-16.1-0.01-0.67-0.01-1.35-0.02-2.04 0.04-11.8 0.04-11.8 2.14-13.9z" fill="#F08280"/>
<path transform="translate(657,761)" d="m0 0c1.94 0.69 1.94 0.69 4 2 0.75 2.62 0.75 2.62 1 5l-5 3 1 2h-5v3c-2.91 1.26-4.8 2-8 2v-2l-2-1c0.83-0.33 0.83-0.33 1.68-0.66 4.95-2.06 4.95-2.06 7.63-6.53 0.23-0.93 0.46-1.85 0.69-2.81 0.99-0.33 1.98-0.66 3-1l1-3z" fill="#EE8482"/>
<path transform="translate(1046,80)" d="m0 0 1 2c0.9 0.15 0.9 0.15 1.81 0.31 3.2 1.01 4.32 2.98 6.19 5.69l1 3c0.61 0.15 1.21 0.29 1.84 0.45 2.9 0.74 3.84 2.13 5.72 4.43 2.06 2.48 4.12 4.87 6.44 7.12l-1 3h-2c-0.68-1.42-0.68-1.42-1.38-2.88-2.61-5.02-5.47-6.02-10.6-8.12v-2c-0.64-0.27-1.28-0.54-1.94-0.81-2.06-1.19-2.06-1.19-3.06-4.19-0.99 0.5-0.99 0.5-2 1-0.1-0.64-0.21-1.28-0.31-1.94-0.23-0.68-0.46-1.36-0.69-2.06-0.99-0.33-1.98-0.66-3-1l2-4z" fill="#F08987"/>
<path transform="translate(1039,70)" d="m0 0c2.69 2.14 3.47 3.83 5 7-0.99 1.32-1.98 2.64-3 4v-4c-1.05-0.12-2.1-0.24-3.18-0.37-1.37-0.17-2.75-0.34-4.13-0.51-1.04-0.11-1.04-0.11-2.09-0.23-3.56-0.45-5.57-0.87-8.6-2.89v-2c5.21-1.74 10.6-1.87 16-1z" fill="#F17F7D"/>
<path transform="translate(1327,356)" d="m0 0h7l-1 2c1.33 0.4 1.33 0.4 2.69 0.81 4.64 1.67 7.55 3.05 10.3 7.19 0.54 2.66 0.73 5.29 1 8-2.97-0.99-5.94-1.98-9-3 0.06-1.11 0.12-2.23 0.19-3.38-0.06-1.19-0.13-2.39-0.19-3.62l-3-2v-2c-0.95-0.1-1.9-0.21-2.88-0.31-3.12-0.69-3.12-0.69-5.12-3.69z" fill="#EB8381"/>
<path transform="translate(1362,1030)" d="m0 0c2.32 1.79 2.95 2.66 3.36 5.62-0.01 1.02-0.02 2.05-0.03 3.11-0.01 1.11-0.01 2.22-0.02 3.37-0.02 1.16-0.04 2.33-0.06 3.52-0.01 1.18-0.01 2.35-0.02 3.55-0.08 8.68-0.08 8.68-1.23 9.83-0.37 2.33-0.7 4.66-1 7h-1c-1.42-28.1-1.42-28.1-1-35l1-1z" fill="#F27673"/>
<path transform="translate(450,181)" d="m0 0c0.99 0.33 1.98 0.66 3 1l-1 6h-3l-1 6c-0.99-0.33-1.98-0.66-3-1-2.65 2.65-3.6 5.56-5 9l-5-1 1-5c0.99-0.33 1.98-0.66 3-1 1.23-3.01 1.23-3.01 2-6h4v-2h3v-5l2-1z" fill="#ED8381"/>
<path transform="translate(599,1180)" d="m0 0c5.64 2.3 9.48 7.18 13 12v2h3c1.82 1.64 1.82 1.64 3.69 3.81 0.62 0.71 1.24 1.42 1.88 2.15 1.43 2.04 1.43 2.04 1.43 5.04-0.99-0.33-1.98-0.66-3-1v-2c-0.99-0.33-1.98-0.66-3-1l-1-2-2 2c-0.06-0.58-0.12-1.15-0.19-1.75-1.13-3.13-3.22-4.2-5.81-6.25-1.36-1.98-2.7-3.98-4-6-0.74-0.72-1.49-1.44-2.25-2.19-1.75-1.81-1.75-1.81-1.75-4.81z" fill="#F08784"/>
<path transform="translate(432,1012)" d="m0 0c1.38 1.29 2.71 2.63 4 4v2c0.99-0.33 1.98-0.66 3-1 4 5.75 4 5.75 4 8 0.56 0.04 1.11 0.08 1.69 0.12 3.6 1.37 5.04 3.79 7.31 6.88v2c0.99 0.33 1.98 0.66 3 1l1 3h2l-1 3c-1.47-1.24-2.92-2.49-4.38-3.75-0.81-0.7-1.62-1.39-2.46-2.11-2.16-2.14-2.16-2.14-3.2-4.21-1.24-2.48-2.75-3.45-5.02-4.99-3.83-2.61-3.83-2.61-4.94-5.94-0.96-0.43-0.96-0.43-1.94-0.88-2.78-1.51-3.13-3.18-4.06-6.12l1-1z" fill="#F08886"/>
<path transform="translate(875,1321)" d="m0 0h2c1.35 2.71 1.07 5.01 1 8l-5-1 1 3h-6l-1 8c-2.48-0.99-2.48-0.99-5-2 0.51-4.41 3.03-6.89 6-10h3l2-4c0.99 0.33 1.98 0.66 3 1l-1-3z" fill="#E47F7D"/>
<path transform="translate(1365,519)" d="m0 0c0.05 4.14 0.09 8.29 0.11 12.4 0.01 1.41 0.02 2.82 0.04 4.22 0.03 2.04 0.04 4.07 0.05 6.1 0.01 1.22 0.02 2.44 0.03 3.7-0.25 3.86-1.04 6.89-2.23 10.6h-1v-36c2-1 2-1 3-1z" fill="#F55D5A"/>
<path transform="translate(968 70.9)" d="m0 0c1.21 0 2.42 0.01 3.67 0.01 1.27 0.01 2.54 0.02 3.85 0.03 1.28 0 2.56 0 3.88 0.01 3.17 0.01 6.33 0.03 9.5 0.05v2l4 1c-4.06 0.05-8.11 0.08-12.2 0.11-1.38 0.01-2.76 0.02-4.14 0.04-1.99 0.02-3.97 0.03-5.96 0.04-1.79 0.02-1.79 0.02-3.62 0.03-2.97-0.21-4.61-0.66-7.11-2.22 2.76-1.39 5.01-1.11 8.1-1.1z" fill="#F08B89"/>
<path transform="translate(1364,702)" d="m0 0c-0.01 0.98-0.02 1.95-0.04 2.96 0 1.27-0.01 2.54-0.02 3.85-0.01 1.27-0.03 2.53-0.04 3.83-0.06 3.36-0.06 3.36 1.1 6.36 0.07 2.23 0.08 4.46 0.06 6.69-0.01 1.18-0.02 2.36-0.02 3.57-0.02 0.91-0.03 1.81-0.04 2.74-2.63-2.17-3.89-3.33-4.45-6.75 0.02-1.03 0.04-2.05 0.06-3.11 0.01-1.11 0.03-2.23 0.04-3.38 0.03-1.16 0.07-2.32 0.1-3.51 0.02-1.17 0.04-2.35 0.05-3.56 0.05-2.9 0.12-5.79 0.2-8.69 2-1 2-1 3-1z" fill="#F27876"/>
<path transform="translate(1362,405)" d="m0 0 2 1c0.82 2.65 0.82 2.65 1.56 5.94 0.9 4.15 0.9 4.15 2.44 8.06-0.09 1.71-0.24 3.42-0.44 5.12-0.1 0.92-0.2 1.83-0.31 2.76-0.12 1.05-0.12 1.05-0.25 2.12h-4c0.03-1.72 0.03-1.72 0.07-3.47 0.02-1.53 0.04-3.06 0.05-4.59 0.02-0.75 0.04-1.51 0.06-2.28 0.04-4.95-0.6-8.96-2.18-13.7l1-1z" fill="#F08B89"/>
<path transform="translate(281,796)" d="m0 0 3 2c-0.31 1.94-0.31 1.94-1 4-0.99 0.33-1.98 0.66-3 1l1 5-8 1 1 2-5-1v-3h2l1-3h2v-3c1.18-0.12 1.18-0.12 2.38-0.25 2.77-0.48 2.77-0.48 3.93-2.81 0.23-0.64 0.46-1.28 0.69-1.94zm-6 6 1 2z" fill="#EA7F7C"/>
<path transform="translate(1362,559)" d="m0 0h1c0.06 0.64 0.12 1.28 0.18 1.93 0.09 0.83 0.17 1.66 0.26 2.51 0.08 0.82 0.16 1.64 0.24 2.49 0.11 2.06 0.11 2.06 1.32 3.07 0.28 3.6 0.23 7.21 0.25 10.8 0.02 1.01 0.04 2.03 0.06 3.07 0.01 0.97 0.01 1.95 0.02 2.95 0.01 0.9 0.02 1.79 0.03 2.71-0.36 2.46-0.36 2.46-3.36 6.46v-36zm1 21v7h1v-7h-1z" fill="#F45F5C"/>
<path transform="translate(787,630)" d="m0 0c0.99 0.33 1.98 0.66 3 1 1.14 6.71 1.14 6.71 0 9-0.62 0.14-1.24 0.29-1.88 0.44-2.5 0.66-3.36 1.72-5.12 3.56h-2l1-9h3l2-5z" fill="#F1807E"/>
<path transform="translate(473,158)" d="m0 0c2.15 3.23 2.2 4.28 2 8h-4l-1 4c-0.99-0.33-1.98-0.66-3-1l-2 7-4-5c0.93-1.15 1.87-2.3 2.81-3.44 0.52-0.64 1.05-1.27 1.58-1.93 1.61-1.63 1.61-1.63 4.61-2.63 1.7-2.5 1.7-2.5 3-5z" fill="#ED817F"/>
<path transform="translate(567,71)" d="m0 0c3.29-0.03 6.58-0.05 9.88-0.06 0.93-0.01 1.87-0.02 2.83-0.03 1.35 0 1.35 0 2.72-0.01 1.24-0.01 1.24-0.01 2.51-0.01 2.06 0.11 2.06 0.11 4.06 1.11v2c-7.59 0.33-15.2 0.66-23 1l1-4z" fill="#F08B89"/>
<path transform="translate(835,1361)" d="m0 0c1.94 0.56 1.94 0.56 4 2 0.75 3.62 0.75 3.62 1 7-2.48-0.99-2.48-0.99-5-2v3c-2.88 0.19-2.88 0.19-6 0l-2-3h4v-3l4-1v-3z" fill="#E88684"/>
<path transform="translate(1090,556)" d="m0 0c3.33-0.23 5.42-0.32 8.38 1.31 1.62 1.69 1.62 1.69 1.62 4.69 0.99 0.33 1.98 0.66 3 1l-1 4c-0.7-0.6-1.4-1.2-2.12-1.81-2.81-2.3-2.81-2.3-6.13-3.69-2.75-1.5-2.75-1.5-3.63-3.69-0.04-0.6-0.08-1.19-0.12-1.81z" fill="#F08B89"/>
<path transform="translate(748,71)" d="m0 0-1 3c-18.3-0.5-18.3-0.5-37-1v-1c4.08-0.17 8.17-0.34 12.2-0.5 1.14-0.05 2.28-0.1 3.45-0.14 7.44-0.3 14.9-0.42 22.3-0.36z" fill="#F08482"/>
<path transform="translate(551,1057)" d="m0 0c7.75 0.88 7.75 0.88 10 2v2h10l1 4c-5.12 0.3-7.79-0.12-12-3-1.65-0.7-3.32-1.37-5-2v-2l-4-1z" fill="#E38381"/>
<path transform="translate(1329,1210)" d="m0 0c0.99 0.33 1.98 0.66 3 1l1 6c-0.93 0.12-0.93 0.12-1.88 0.25-2.3 0.56-2.3 0.56-3.37 2.81-0.25 0.64-0.49 1.28-0.75 1.94l-2-1 1-2-1-1c-0.36-1.33-0.7-2.66-1-4 3.88-1 3.88-1 5-1v-3z" fill="#F08B89"/>
<path transform="translate(1358,817)" d="m0 0c3.07 2.36 4.72 3.71 5.55 7.56 0.24 2.48 0.4 4.94 0.45 7.44l-4 1c-0.04-0.61-0.07-1.23-0.11-1.86-0.07-0.81-0.13-1.62-0.2-2.45-0.06-0.8-0.12-1.6-0.18-2.43-0.59-2.62-1.47-3.57-3.51-5.26l2-4z" fill="#F08481"/>
<path transform="translate(1337,1201)" d="m0 0c0.99 0.33 1.98 0.66 3 1 1.19 2.56 1.19 2.56 2 5-0.64 0.27-1.28 0.54-1.94 0.81-2.39 1.08-2.39 1.08-3.06 4.19-0.99-0.33-1.98-0.66-3-1l-1-5 3-2 1-3z" fill="#F08B89"/>
<path transform="translate(252,824)" d="m0 0h1c0.37 10.6 0.37 10.6-2 15l-1-2h-2v-9l4-2v-2z" fill="#F17C7A"/>
<path transform="translate(885,1310)" d="m0 0 5 1c-0.6 0.87-1.2 1.73-1.81 2.62-2.01 3.01-3.64 6.12-5.19 9.38l-3-2c0.53-4.51 2.37-7.35 5-11zm-2 4 1 2z" fill="#EB8583"/>
<path transform="translate(1290,1251)" d="m0 0h2l1 5-4 2v3l-4 1-1-3 1-1c-0.41-2.05-0.41-2.05-1-4h4l2-3z" fill="#F17D7A"/>
<path transform="translate(1277,1262)" d="m0 0h5l2 4c-0.64 0.1-1.28 0.21-1.94 0.31-0.68 0.23-1.36 0.46-2.06 0.69l-1 3c-0.99 0.33-1.98 0.66-3 1-1.03-2.79-1.05-3.87-0.06-6.75 0.35-0.74 0.7-1.48 1.06-2.25z" fill="#F17C7A"/>
<path transform="translate(1265,1275)" d="m0 0h6l-1 5c-0.99 0.33-1.98 0.66-3 1-1.67 1.5-1.67 1.5-3 3l-2-5h2l1-4z" fill="#F17B79"/>
<path transform="translate(930,740)" d="m0 0c6.72 1.18 9.93 5.97 14 11-3.11 0-4.35-0.54-7-2v-2h-2v-2c-0.99-0.33-1.98-0.66-3-1-1.19-2.06-1.19-2.06-2-4z" fill="#F08482"/>
<path transform="translate(1085,545)" d="m0 0c3.87 3.08 7.03 6 10 10-1.98 0.33-3.96 0.66-6 1v-3h-2c-1.76-3.09-2-4.23-2-8z" fill="#F17A78"/>
<path transform="translate(432,1012)" d="m0 0c1.38 1.29 2.71 2.63 4 4v2c0.99-0.33 1.98-0.66 3-1 1.56 1.81 1.56 1.81 3 4l-1 3c-0.99-0.33-1.98-0.66-3-1l-1-3c-0.96-0.43-0.96-0.43-1.94-0.88-2.78-1.51-3.13-3.18-4.06-6.12l1-1z" fill="#F1817E"/>
<path transform="translate(1362 1e3)" d="m0 0h1c0.06 1.22 0.12 2.43 0.18 3.68 0.09 1.59 0.17 3.17 0.26 4.76 0.04 0.8 0.08 1.6 0.12 2.43-0.15 3.88-0.15 3.88 1.44 7.13 0.25 2.44 0.25 2.44 0 5l-3 2v-25z" fill="#F36D6A"/>
<path transform="translate(427,561)" d="m0 0c0.78 0.33 1.57 0.66 2.38 1 2.46 1.12 2.46 1.12 4.62 1 0 2 0 2-2 4.12-0.66 0.62-1.32 1.24-2 1.88l-4-2c-0.04-1.67-0.04-3.33 0-5l1-1z" fill="#F08482"/>
<path transform="translate(1305,1234)" d="m0 0 4 1 1 5h-3v3c-2.47-0.99-2.47-0.99-5-2v-2c0.99-0.33 1.98-0.66 3-1v-4z" fill="#F08785"/>
<path transform="translate(511,1014)" d="m0 0h3c1.02 1.32 2.02 2.65 3 4 0.99 0.33 1.98 0.66 3 1v2c0.99 0.33 1.98 0.66 3 1v3c-3.19-1.44-5.62-3.2-8.25-5.5-0.71-0.61-1.41-1.22-2.14-1.84-1.61-1.66-1.61-1.66-1.61-3.66z" fill="#F08785"/>
<path transform="translate(265,811)" d="m0 0 4 2v3c-3.44 2.29-4.99 2.18-9 2 1.38-2.5 1.38-2.5 3-5h2v-2z" fill="#F08481"/>
<path transform="translate(445,601)" d="m0 0c10.7 2.71 10.7 2.71 14 7-4.48 0.39-7.1-0.88-11-3-0.99-0.33-1.98-0.66-3-1v-3z" fill="#F1807D"/>
<path transform="translate(254,755)" d="m0 0c4.21 2.88 5.76 5.04 7 10l-4-2v-2l-4-1-1-4 2-1z" fill="#F08B89"/>
<path transform="translate(1338,800)" d="m0 0c2 0 2 0 4.44 2.31 0.84 0.89 1.69 1.78 2.56 2.69l3 3c-1.98 0.66-3.96 1.32-6 2-0.14-0.6-0.29-1.2-0.44-1.81-0.45-1.75-0.99-3.48-1.56-5.19h-3l1-3z" fill="#F08B89"/>
<path transform="translate(1165,586)" d="m0 0c0.62 1.81 0.62 1.81 1 4-0.99 1.49-0.99 1.49-2 3-2.47-0.99-2.47-0.99-5-2l1-4 5-1z" fill="#F08785"/>
<path transform="translate(865,1331)" d="m0 0c0.99 0.33 1.98 0.66 3 1l-1 7c-2.48-0.99-2.48-0.99-5-2 0.57-2.87 0.86-3.86 3-6z" fill="#E08280"/>
<path transform="translate(326,1254)" d="m0 0c0.99 0.33 1.98 0.66 3 1 0.14 0.63 0.29 1.27 0.43 1.92 0.37 2.24 0.37 2.24 2.42 3.35 0.73 0.32 1.46 0.65 2.21 0.98 0.74 0.34 1.47 0.67 2.23 1.02 0.84 0.36 0.84 0.36 1.71 0.73v1c-2.62 0.44-2.62 0.44-6 0-2.42-2.03-4.36-4.29-6-7v-3z" fill="#F08280"/>
<path transform="translate(818,626)" d="m0 0c3.08 1.03 3.84 1.75 6 4l3 2-1 3c-4.42-1.35-6.34-3.26-9-7l1-2z" fill="#F08280"/>
<path transform="translate(487,146)" d="m0 0 1 3-5 1 2 5h-5c0.92-3.78 1.39-5.57 4.62-7.88 1.18-0.55 1.18-0.55 2.38-1.12z" fill="#E4615E"/>
<path transform="translate(258,1185)" d="m0 0c2.04 1.62 4.04 3.29 6 5v2c0.99-0.33 1.98-0.66 3-1l1 2h-6v-2c-1.98-0.66-3.96-1.32-6-2l2-4z" fill="#F08B89"/>
<path transform="translate(1298,1241)" d="m0 0 4 3-1 5h-2v-2c-0.99-0.33-1.98-0.66-3-1l2-5z" fill="#F08B89"/>
<path transform="translate(250,400)" d="m0 0 1 2c0.99 0.33 1.98 0.66 3 1l-1 3h-2l-1 2-2-1c-0.12-2.38-0.12-2.38 0-5l2-2z" fill="#F08684"/>
<path transform="translate(1226,1312)" d="m0 0c2.53 2.36 3.89 3.66 5 7l-1 2h-2v-2c-0.99-0.33-1.98-0.66-3-1l1-6z" fill="#F08B89"/>
<path transform="translate(1055,1058)" d="m0 0c2.31 0.33 4.62 0.66 7 1l-1 2c-3.98 1.17-7.87 1.08-12 1v-1h5l1-3z" fill="#F08B89"/>
<path transform="translate(450,181)" d="m0 0c0.99 0.33 1.98 0.66 3 1l-1 6c-2.31 0.33-4.62 0.66-7 1v-2h3v-5l2-1z" fill="#D76461"/>
<path transform="translate(1320,1221)" d="m0 0h2l1 5c-0.99 0.49-0.99 0.49-2 1l-1 3c-2.47-0.99-2.47-0.99-5-2 3-2 3-2 5-2v-5z" fill="#F08B89"/>
<path transform="translate(588,1506)" d="m0 0h16v1h-16v-1z" fill="#FE0D08"/>
<path transform="translate(610,1506)" d="m0 0h10v1h-10v-1z" fill="#FE0D08"/>
<path transform="translate(1364,558)" d="m0 0h1v10h-1v-10z" fill="#FE0D08"/>
<path transform="translate(1364,550)" d="m0 0h1v7h-1v-7z" fill="#FE0D08"/>
<path transform="translate(1364,1016)" d="m0 0h1v6h-1v-6z" fill="#FE0D08"/>
<path transform="translate(686,295)" d="m0 0 2 1v2c-0.99-0.33-1.98-0.66-3-1l1-2z" fill="#F08B89"/>
<path transform="translate(1364,592)" d="m0 0 1 4z" fill="#FE0D08"/>
<path transform="translate(721,260)" d="m0 0h2v2h-2v-2z" fill="#F08B89"/>
<path transform="translate(1105,1016)" d="m0 0 1 2-2-1 1-1z"/>
<path transform="translate(513,469)" d="m0 0 2 2h-2v-2z" fill="#000001"/>
<path transform="translate(565,416)" d="m0 0h2l-1 2-1-2z" fill="#F08B89"/>
<path transform="translate(1113,1434)" d="m0 0 2 1z" fill="#000002"/>
<path transform="translate(1167,1381)" d="m0 0 2 1z" fill="#000001"/>
<path transform="translate(1211,1337)" d="m0 0 2 1z" fill="#000100"/>
<path transform="translate(1073,1048)" d="m0 0 2 1z" fill="#000002"/>
<path transform="translate(438,990)" d="m0 0 2 1z" fill="#000100"/>
<path transform="translate(956,768)" d="m0 0 2 1z" fill="#000002"/>
<path transform="translate(759,670)" d="m0 0 2 1z" fill="#000001"/>
<path transform="translate(656,328)" d="m0 0 2 1z" fill="#000001"/>
<path transform="translate(831,217)" d="m0 0 2 1z" fill="#000002"/>
<path transform="translate(424,207)" d="m0 0 2 1z" fill="#F08B89"/>
</svg>
