<?xml version="1.0" encoding="UTF-8"?>
<svg version="1.1" viewBox="0 0 1600 1600" width="1280" height="1280" xmlns="http://www.w3.org/2000/svg">
<path transform="translate(1187,689)" d="m0 0h49v4l17 1v4h9v4c2.97 0.33 5.94 0.66 9 1v4h4l1 9h4v17l-4 1-1 4h-4v4h-26v-4c-0.59 0.01-1.18 0.02-1.79 0.04-4.21 0.04-8.1 0.02-12.2-1.04v-4h-40v4c-4.41 1.1-8.48 1.08-13 1v4h-5v4l-4 1-1 4h-4v4h-4v6h-4c-0.49 1.98-0.49 1.98-1 4h-3l-1 13h-4l-1 13h-3v17h3c0.95 4.76 1.08 9.17 1 14h4v9h4l1 10h4v4h4v4h5v4h4l1 4 8 1v4c2.97 0.33 5.94 0.66 9 1v4h40v-4c2.97-0.33 5.94-0.66 9-1v-4h9v-5h4v-4h5v-4c0.64-0.1 1.28-0.21 1.94-0.31 0.68-0.23 1.36-0.46 2.06-0.69l1-3h4v-5h4v-5h5v-4h4v-5h4l1-8h4v-5h4v-4c0.64-0.1 1.28-0.21 1.94-0.31 0.68-0.23 1.36-0.46 2.06-0.69l1-3h4v-5l4-1 1-8h4v-5h5v-4h5v-9h4v-4h4v-4h4l1-9c0.99-0.33 1.98-0.66 3-1 0.73-2.02 0.73-2.02 1-4h4l1-5h4v-4h4v-5h4v-4h6v-5h3v-3h5v-5h4v-5h5v-4c3.96-0.5 3.96-0.5 8-1l1-4h4v-4h10v-4c5.72-0.83 11.2-1.12 17-1v-4h44v4c1.92-0.03 1.92-0.03 3.88-0.06 5.08-0.01 10.1 0.47 15.1 1.06v4h12v4l5 1v3c2.97 0.33 5.94 0.66 9 1v4h4v5h5v5h5v3l4 1v4h4v4h4v9l5 1v4h4v14h4c1.33 3.98 1.07 7.85 1 12h4v54h-4c0.03 1.79 0.03 1.79 0.06 3.62 0.01 3.56-0.36 6.89-1.06 10.4h-4v8h-4l-1 8c-0.99 0.33-1.98 0.66-3 1-0.73 2.02-0.73 2.02-1 4h-4v5h-4l-1 8h-3v6h-6v3l-8 1v4h-5v4l-8 1-1 4h-8v4l-13 1v3c-6.8 0.88-13.4 1.15-20.3 1.13-1.58 0-1.58 0-3.19 0.01-2.22 0-4.43-0.01-6.65-0.01-3.37 0-6.74 0-10.1 0.01-2.16 0-4.33-0.01-6.49-0.01-1 0-1.99 0.01-3.02 0.01-5.83-0.02-11.5-0.39-17.3-1.14v-4h-10v-4h-8l-1-4-8-1v-4h-4l-1-4-4-1v-3h-4l-1-5c-0.99-0.33-1.98-0.66-3-1v-4h-5c-0.1-0.64-0.21-1.28-0.31-1.94-0.23-0.68-0.46-1.36-0.69-2.06-0.99-0.33-1.98-0.66-3-1l-1-8h-4l-1-9h-4v-8h-4v-6l-13 1-1 8h-3v5h-6v4h-4v5h-4v4h-5v4h-4v5h-5v4h-4v6h-5v3h-4v5h-5v4h-8l-1 5h-8v4h-9v4c-8.98 1.33-18 1.09-27 1v4h-17v-4c-1.92 0.02-1.92 0.02-3.88 0.04-1.7 0-3.41 0.01-5.12 0.02-0.84 0.01-1.68 0.02-2.54 0.03-5.25 0.02-10.3-0.33-15.5-1.09l-1-3-12-1v-4c-2.97-0.33-5.94-0.66-9-1l-1-3-8-1v-4h-4l-1-4-4-1v-3h-4l-1-5-4-1v-4h-4c-0.1-0.64-0.21-1.28-0.31-1.94-0.23-0.68-0.46-1.36-0.69-2.06-0.99-0.33-1.98-0.66-3-1v-8h-5l-1-9h-4v-8h-4v-10h-4c-0.78-6.2-1.15-12.2-1.13-18.5 0-0.86 0-1.73-0.01-2.62 0-1.81 0.01-3.63 0.01-5.44 0.01-2.77 0-5.55-0.01-8.32 0-1.77 0.01-3.54 0.01-5.31 0-0.82-0.01-1.65-0.01-2.5 0.02-3.61 0.16-6.85 1.14-10.3h3l1-17h4v-10h5v-8h5v-5h3l1-5h4v-8h4v-4h5v-5h4v-5h5v-4c3.96-0.5 3.96-0.5 8-1l1-4h8v-4h9v-4c4.67-1.21 9.21-1.09 14-1v-4zm235 44v4c-6.43 0.5-6.43 0.5-13 1v4h-5v4h-3v5h-6v4h-4v6h-4l-1 3c-0.99 0.33-1.98 0.66-3 1-0.96 2.88-1.11 4.7-1.06 7.69 0.01 0.81 0.02 1.61 0.02 2.45 0.02 0.61 0.03 1.23 0.04 1.86h-4l-1 9c-1.49 0.5-1.49 0.5-3 1-1.02 2.71-1.13 5.31-1.13 8.19 0 0.78-0.01 1.56-0.01 2.36 0.01 0.81 0.01 1.62 0.02 2.45-0.01 0.81-0.01 1.61-0.02 2.45 0 0.78 0.01 1.56 0.01 2.36v2.15c0.14 2.18 0.36 3.99 1.13 6.04 0.99 0.33 1.98 0.66 3 1l1 8h4v9h4l1 10h4l1 4h3v4h6v4c1.49 0.5 1.49 0.5 3 1 0.69 2.06 0.69 2.06 1 4h8v4c2.97 0.33 5.94 0.66 9 1l1 3c3.76 1.25 7.25 1.12 11.2 1.1 0.79 0 1.59-0.01 2.41-0.01 2.53 0 5.07-0.01 7.61-0.03 1.72 0 3.44-0.01 5.16-0.01 4.22-0.01 8.43-0.03 12.6-0.05l1-4 8-1v-4h10v-5h4v-4h4v-4l5-1v-3h4v-6h4l1-13h3c0.79-2.78 1.12-5.24 1.11-8.13v-2.42c0-0.86-0.01-1.71-0.01-2.59s-0.01-1.76-0.01-2.67c0-2.82-0.01-5.63-0.03-8.44 0-1.91-0.01-3.82-0.01-5.73-0.01-4.67-0.03-9.35-0.05-14h-4l-1-10h-4v-7h-4v-5l-5-1v-4h-4l-1-5h-3v-4h-6v-4l-12-1c-0.49-1.98-0.49-1.98-1-4h-40z" fill="#0D0815"/>
<path transform="translate(743,688)" d="m0 0h33l1 3c3.42 0.66 6.76 1.08 10.2 1.21 0.74 0.03 1.48 0.06 2.24 0.09 1.54 0.05 3.07 0.09 4.6 0.13 1.99 0.08 3.96 0.32 5.93 0.57 0.99 1.49 0.99 1.49 2 3 1.88 0.65 1.88 0.65 4.06 0.94 5.39 1.04 11.5 2.6 15.5 6.61 2.37 2.33 5.31 2.68 8.47 3.45v2c0.62 0.23 1.24 0.45 1.88 0.69 2.12 1.31 2.12 1.31 3.12 3.87 0.33 0.81 0.66 1.61 1 2.44 0.62 0.14 1.24 0.29 1.88 0.44 3.36 0.89 4.26 3.74 6.12 6.56 2.53 1.75 2.53 1.75 5 3l2 2 2 1-1 3c1.47 3.18 2.76 4.83 5.62 6.88 3.19 2.84 3.08 4.96 3.38 9.12l1 3h3c0.27 0.96 0.27 0.96 0.55 1.93 0.38 1.24 0.38 1.24 0.76 2.51 0.25 0.82 0.49 1.64 0.74 2.49 0.31 0.69 0.63 1.37 0.95 2.07 0.99 0.33 1.98 0.66 3 1v8h2c1.68 3.35 1.39 7.12 1.56 10.8 0.07 1.16 0.07 1.16 0.13 2.33 0.49 9.97 0.31 19.8 0.31 29.9-59.4 0.33-119 0.66-180 1-1.72 3.43-1.39 7.24-1 11 1.3 2.21 1.3 2.21 3 4 0.73 1.98 1.4 3.98 2 6l1 3h2c2.32 3.25 3.44 6.06 4 10 0.99 0.33 1.98 0.66 3 1l1 3c2.5 1.22 2.5 1.22 5 2v2c1.24 0.21 2.48 0.41 3.75 0.62 3.71 0.9 4.15 1.25 6.63 4.5 0.53 0.95 1.07 1.9 1.62 2.88h2v2c0.63 0.19 1.25 0.39 1.9 0.59 0.82 0.26 1.63 0.52 2.48 0.79 0.81 0.25 1.62 0.51 2.46 0.77 2.16 0.85 2.16 0.85 4.16 2.85 1.99 0.03 3.97 0.06 5.96 0 2.44 0 4.67 0.41 7.04 1v2h3v2c9.9-0.5 9.9-0.5 20-1l1-3c2.97-1.17 5.85-1.09 9-1v-3c1.67-0.15 1.67-0.15 3.38-0.31 1.19-0.23 2.39-0.46 3.62-0.69l2-3c2.13-0.69 2.13-0.69 4-1l1-5h8v-4l4-2v-3c1.14-0.43 1.14-0.43 2.31-0.88 2.84-1.08 2.84-1.08 5.69-3.12 2.18-0.32 2.18-0.32 4.67-0.41 0.89-0.04 1.78-0.08 2.7-0.12 1.4-0.05 1.4-0.05 2.82-0.09 0.94-0.04 1.88-0.08 2.85-0.12 2.32-0.1 4.64-0.18 6.96-0.26v-2c12.8-2.12 12.8-2.12 17 0l1-5c2.38-0.62 2.38-0.62 5-1 2 2 2 2 2.2 4.6-0.03 1-0.05 2-0.08 3.02-0.01 1.01-0.03 2.01-0.05 3.04-0.02 0.77-0.05 1.55-0.07 2.34l-4 2 1 7c-0.99 0.33-1.98 0.66-3 1-1.21 2-1.21 2-2 4h-4c0.06 1.11 0.12 2.23 0.19 3.38-0.06 1.19-0.13 2.39-0.19 3.62l-3 2c-1.19 2.05-1.19 2.05-2 4h-4l-1 6h-2v2l-8 1v4c-1.98 0.33-3.96 0.66-6 1l-1 4c-2.97-0.33-5.94-0.66-9-1l1 4-2 2h-3v3c-0.85 0.12-1.71 0.24-2.59 0.37-1.1 0.16-2.21 0.33-3.35 0.51-1.1 0.16-2.2 0.32-3.34 0.49-0.9 0.21-1.79 0.41-2.72 0.63l-1 2c-2.96 0.49-5.83 0.85-8.81 1.12-0.86 0.09-1.72 0.17-2.6 0.26-6.54 0.61-13 0.86-19.6 0.62v3c-6.05 0.2-6.05 0.2-8 0l-2-2c-5.3-1.14-10.8-1.02-16.2-0.94-7.4 0.08-14.5-0.93-21.8-2.06v-3c-0.9 0.02-1.81 0.05-2.74 0.07-1.18 0.02-2.36 0.04-3.57 0.05-1.17 0.03-2.35 0.05-3.55 0.08-3.14-0.2-3.14-0.2-6.14-2.2v-3h-3c-0.68-0.96-0.68-0.96-1.38-1.94-2.09-2.65-3.36-2.52-6.62-3.06-2.81-1.25-2.81-1.25-5-3-0.31-2.69-0.31-2.69 0-5-1.08-0.4-1.08-0.4-2.19-0.81-2.82-1.2-5.31-2.4-7.81-4.19v-3c-1.54-1.39-1.54-1.39-3.5-2.56-1.97-1.26-1.97-1.26-3.5-2.44v-2h-2v-7c-0.84-0.34-0.84-0.34-1.69-0.69-3.04-1.72-5.07-3.63-7.31-6.31-0.31-2.81-0.31-2.81 0-5l-2-1v-2h-2c-0.04-0.69-0.07-1.37-0.11-2.08-0.07-0.9-0.13-1.8-0.2-2.73-0.06-0.9-0.12-1.79-0.18-2.71-0.28-2.53-0.28-2.53-2.03-3.93-2.72-2.85-1.91-6.98-1.98-10.7-0.25-1.39-0.25-1.39-0.5-2.81-0.66-0.38-1.32-0.76-2.01-1.15-1.99-1.85-1.99-1.85-2.44-5.59 0-1.55 0.02-3.1 0.06-4.65 0.01-0.81 0.01-1.63 0.02-2.47 0.02-2.61 0.07-5.22 0.12-7.83 0.02-1.77 0.04-3.54 0.05-5.3 0.05-4.34 0.12-8.67 0.2-13 0.65-0.27 1.29-0.54 1.96-0.82 0.67-0.39 1.35-0.78 2.04-1.18 0.71-2.88 0.71-2.88 0.75-6.12 0.06-1.1 0.11-2.2 0.17-3.33 0.03-0.84 0.05-1.68 0.08-2.55l4 1-1-3c0.08-1.73 0.24-3.46 0.44-5.19 0.1-0.9 0.2-1.8 0.31-2.73 0.08-0.69 0.16-1.37 0.25-2.08 1.49-0.5 1.49-0.5 3-1 0.31-1.13 0.62-2.27 0.94-3.44 1.06-3.56 1.06-3.56 3.18-5 0.62-0.18 1.24-0.37 1.88-0.56-0.02-1.11-0.04-2.23-0.06-3.38 0.06-3.62 0.06-3.62 1.06-5.62h4l-1-3c0.62-0.19 1.24-0.37 1.88-0.56 3.18-2.15 3.31-4.82 4.12-8.44 0.62-0.08 1.24-0.16 1.88-0.25 2.3-0.56 2.3-0.56 3.37-2.81 0.25-0.64 0.5-1.28 0.75-1.94h3l1-5c1.98-0.33 3.96-0.66 6-1v-4h5c0.23-0.56 0.45-1.11 0.69-1.69 1.74-3.06 3.58-5.07 6.31-7.31 3.31-0.31 3.31-0.31 6 0l1-3c2-1 2-1 4.88-0.81 1.54-0.1 1.54-0.1 3.12-0.19 0.53-0.65 1.07-1.3 1.62-1.96 3.58-3.06 7.06-2.71 11.6-2.79 1.26-0.04 1.26-0.04 2.55-0.09 2.06-0.07 4.13-0.12 6.2-0.16l2-4zm0 37v3c-2.02-0.03-4.04-0.07-6.05-0.1-2.03-0.03-2.03-0.03-3.95 1.1l-1 3c-2.31 0.33-4.62 0.66-7 1v4l-4 1v4c-1.98-0.33-3.96-0.66-6-1-0.29 0.64-0.58 1.28-0.88 1.94-1.12 2.06-1.12 2.06-3.12 3.06-0.12 0.64-0.25 1.28-0.38 1.94-0.2 0.68-0.41 1.36-0.62 2.06-1.32 0.7-2.65 1.37-4 2l-1 3c-1.49 0.5-1.49 0.5-3 1l-1 8c-1.98 0.5-1.98 0.5-4 1v13l4 1 2 3c2.25 0.45 2.25 0.45 4.91 0.36 1.56 0.01 1.56 0.01 3.14 0.01 1.15-0.01 2.29-0.02 3.47-0.03h3.63c3.3 0 6.59-0.01 9.89-0.04 3.44-0.01 6.88-0.02 10.3-0.02 6.52-0.01 13-0.03 19.6-0.06 7.42-0.04 14.8-0.05 22.3-0.07 15.3-0.03 30.5-0.08 45.8-0.15l1-13-3-2-3-6c-1.49-0.99-1.49-0.99-3-2-1.02-1.99-2.02-3.99-3-6l-2-1c-0.73-1.98-1.4-3.98-2-6h-2v-4h-4v-2h-2c-0.5-1.49-0.5-1.49-1-3l-5-1c-0.5-1.49-0.5-1.49-1-3h-4v-2c-1.68-2.26-2.6-2.93-5.41-3.41l-5.31-0.18c-0.75-0.14-1.51-0.27-2.28-0.41-0.99-1.49-0.99-1.49-2-3-2.67-2.67-10.6-1.19-14.2-1.19-1.85-0.02-1.85-0.02-3.73-0.03-1.2-0.01-2.39-0.01-3.62-0.01-1.64-0.01-1.64-0.01-3.32-0.01-3.33 0.25-6.03 1.06-9.14 2.24z" fill="#008F39"/>
<path transform="translate(286,688)" d="m0 0c2.44-0.08 4.87-0.14 7.31-0.19 1.04-0.04 1.04-0.04 2.09-0.07 2.03-0.03 2.03-0.03 5.6 0.26 0.44 0.49 0.88 0.97 1.34 1.47 2.46 2.26 4.57 2.06 7.86 2.26 1.21 0.08 2.42 0.16 3.66 0.24 1.26 0.07 2.53 0.15 3.83 0.22 1.27 0.08 2.55 0.16 3.86 0.25 3.15 0.2 6.3 0.38 9.45 0.56v2c1.25 0.2 1.25 0.2 2.52 0.4 1.09 0.18 2.17 0.36 3.29 0.54 1.08 0.17 2.16 0.35 3.27 0.52 2.92 0.54 2.92 0.54 5.92 1.54v2c1.11 0.31 2.23 0.62 3.38 0.94 3.62 1.06 3.62 1.06 5.62 2.06v2h3c0.93 0.96 0.93 0.96 1.88 1.94 1.92 2.27 1.92 2.27 4.51 2.41 3.43 0.85 4.36 2.28 6.42 5.09 0.61 0.8 1.21 1.6 1.83 2.43 1.36 2.13 1.36 2.13 1.36 4.13 0.76 0.29 1.53 0.58 2.31 0.88 2.69 1.12 2.69 1.12 5.69 3.12v2l2 1c3 5.42 3 5.42 3 8 0.99 0.33 1.98 0.66 3 1v3c0.6 0.16 1.2 0.33 1.81 0.5 2.98 2.04 3.31 4.21 4.4 7.56 0.71 2.15 0.71 2.15 2.91 3.82 2.71 3.06 2.5 5.99 2.7 9.98-0.05 2.12-0.05 2.12 1.18 3.14 0.41 3.15 0.77 6.29 1.07 9.45 0.49 4.26 0.78 5.4 3.93 8.55v29c-87.1 0.5-87.1 0.5-176 1l-2 4c-1.95 0.83-1.95 0.83-4.12 1.25-1.92 0.37-1.92 0.37-3.88 0.75 0.45 0.56 0.91 1.11 1.38 1.69 1.62 2.31 1.62 2.31 2.46 4.66 1.34 3.05 3 4.93 5.28 7.34 3.88 4.1 3.88 4.1 3.88 6.31 0.93 0.15 0.93 0.15 1.88 0.31 2.12 0.69 2.12 0.69 4.12 3.69 0.39 1.99 0.73 3.99 1 6h2v3h3c0.37 0.58 0.74 1.15 1.12 1.75 2.08 2.49 3.36 3 6.32 4.19 4.12 1.68 5.85 3.51 8.56 7.06 3.01 1.23 3.01 1.23 6 2 1.49 0.99 1.49 0.99 3 2 2.5 0.56 5 0.95 7.53 1.34 2.47 0.66 2.47 0.66 4.33 2.18 2.55 1.76 3.84 1.83 6.91 1.77 1.33-0.01 1.33-0.01 2.69-0.03 0.92-0.02 1.84-0.05 2.79-0.07 0.94-0.02 1.87-0.03 2.84-0.04 2.3-0.04 4.61-0.09 6.91-0.15l1-3c4.05-0.98 7.84-1.08 12-1l1-4c2.97-0.33 5.94-0.66 9-1v-2c2.91-1.26 4.8-2 8-2v-4c0.56-0.23 1.11-0.45 1.69-0.69 4.03-2.29 6.76-5.49 9.31-9.31h3v-2c0.63-0.06 1.25-0.12 1.9-0.18 0.82-0.09 1.63-0.17 2.48-0.26 0.81-0.08 1.62-0.16 2.46-0.24 2.2-0.21 2.2-0.21 4.16-1.32 1.54-0.07 3.08-0.08 4.62-0.06 0.82 0.01 1.64 0.02 2.48 0.02 0.94 0.02 0.94 0.02 1.9 0.04l1-2c4.12-1.4 8.32-1.18 12.6-1.19 0.78-0.01 1.56-0.02 2.36-0.03 2.01-0.01 4.01 0.1 6.02 0.22 2.79 2.79 2.3 4.62 2.31 8.5 0.02 1.17 0.04 2.33 0.05 3.53-0.12 0.98-0.24 1.96-0.36 2.97l-3 2c-1.19 2.05-1.19 2.05-2 4h-3l-1 5-4 1v7c-5.75 2-5.75 2-8 2v4c-1.11 0.4-1.11 0.4-2.25 0.81-2.62 1.13-4.49 2.48-6.75 4.19h-2c-0.27 0.95-0.54 1.9-0.81 2.88-1.19 3.12-1.19 3.12-4.19 5.12-2.32 0.39-4.66 0.73-7 1l-1 4h-5l-1 4c-1.75 0.03-3.5 0.05-5.25 0.06-1.46 0.02-1.46 0.02-2.95 0.04-2.46-0.09-4.46-0.39-6.8-1.1v4c-11.6 3.85-26.2 2.16-38.2 2.13-3.08-0.01-6.17 0-9.26 0.01-2 0-3.99-0.01-5.99-0.01-0.91 0-1.81 0.01-2.75 0.01-16.1-0.06-16.1-0.06-20.8-3.14v-2c-0.96 0.1-0.96 0.1-1.94 0.21-5.04 0.32-8.23 0.26-12.2-3.09-1.7-1.61-1.7-1.61-2.88-3.12v-2c-0.99-0.02-1.98-0.04-3-0.06-6.8-0.94-11.4-7.33-16-11.9-0.72-0.47-1.44-0.95-2.19-1.44-2.34-2.01-2.49-3.55-2.81-6.56h-2c-1.62-1.38-1.62-1.38-3-3v-2c-0.99-0.33-1.98-0.66-3-1-2.49-2.49-2.98-3.67-3.19-7.25 0.1-1.36 0.1-1.36 0.19-2.75-0.6-0.23-1.19-0.46-1.8-0.7-2.78-1.64-3.73-3.33-5.32-6.11-0.5-0.85-1-1.71-1.51-2.58-1.37-2.61-1.37-2.61-2.42-5.31-0.84-2.44-0.84-2.44-2.95-4.3-0.38-2.5-0.38-2.5-0.56-5.44-0.21-3.14-0.44-5.56-1.44-8.56h-2c-1.1-8.01-1.18-15.9-1.19-24-0.01-1.31-0.02-2.63-0.03-3.98-0.02-7.01 0.35-13.3 2.22-20h3c-0.03-0.76-0.07-1.52-0.11-2.3-0.02-0.99-0.05-1.99-0.08-3.01-0.03-0.99-0.07-1.97-0.1-2.99 0.34-3.17 1.01-3.64 3.29-5.7 0.65-2.08 1-4.12 1.38-6.26 0.2-0.57 0.41-1.15 0.62-1.74 1.49-0.5 1.49-0.5 3-1 0.81-2.11 0.81-2.11 1.19-4.56 0.24-1.24 0.24-1.24 0.48-2.51 0.11-0.63 0.22-1.27 0.33-1.93h4l1-8c1.49-0.5 1.49-0.5 3-1l1-7h2l1-5c0.62-0.12 1.24-0.25 1.88-0.38 2.31-0.49 2.31-0.49 4.12-2.62h3v-5c0.99-0.33 1.98-0.66 3-1 0.43-0.45 0.87-0.91 1.31-1.38 2.31-2.22 4.76-3.37 7.69-4.62l2 1v-2l-2-1c0.78-0.08 1.57-0.16 2.38-0.25 2.77-0.48 2.77-0.48 3.93-2.81 0.34-0.96 0.34-0.96 0.69-1.94h6v-2c2.96-2.31 5.39-3.16 9.06-3.5 3.82-0.15 3.82-0.15 5.92-1.99 6.53-4.88 19.2-2.6 27-2.51l2-4zm-2 34v1h20v-1h-20zm25 1-34 1-1 3c-2.85 1.42-5.66 1.33-8.81 1.52-2.62 0.57-3.45 1.5-5.19 3.48l-2 1-1 3c-0.64 0.14-1.28 0.29-1.94 0.44-1.02 0.28-1.02 0.28-2.06 0.56-1.15 1.97-1.15 1.97-2 4l-2 1-1 3c-0.76 0.25-1.53 0.5-2.31 0.75-3 1.4-3.3 1.99-4.75 4.81-1.94 3.44-1.94 3.44-4.19 4.38-0.58 0.02-1.16 0.04-1.75 0.06-0.5 2.48-0.5 2.48-1 5h-3l-1 9h-3c-0.79 1.75-0.79 1.75-1 4 1.14 2.79 1.14 2.79 3 5h3l1 3c6.75 0.87 13.3 1.14 20.1 1.11h3.25c3.53 0 7.05 0 10.6-0.01 2.45 0 4.91-0.01 7.36-0.01 6.44 0 12.9-0.01 19.3-0.02 6.58-0.01 13.2-0.02 19.7-0.02 12.9-0.01 25.8-0.03 38.7-0.05l2-5h6v-11l-4-2-1-3h-2c-1-2-1-2-1.47-3.92-1.53-5.88-3.79-8.72-8.55-12.4-1.88-1.56-3.13-3.04-4.54-5.02-3.06-3.28-5.05-3.45-9.44-3.62-0.5-1.49-0.5-1.49-1-3-2.68-1.4-2.68-1.4-5.88-2.56-3.35-1.3-6.12-2.44-9.12-4.44h-3c-0.5-1.49-0.5-1.49-1-3zm32 133 1 2z" fill="#82C027"/>
<path transform="translate(535,688)" d="m0 0h27l2 4 17 1v2c0.9 0.11 1.81 0.22 2.74 0.33 1.18 0.16 2.36 0.32 3.57 0.48 1.17 0.15 2.35 0.3 3.55 0.46 3.24 0.75 4.07 1.3 6.14 3.73 2.61 0.72 2.61 0.72 5 1v2h2c2.12 1.88 2.12 1.88 4 4v2c0.59 0.25 1.17 0.5 1.78 0.75 2.53 1.42 3.93 2.96 5.78 5.19 2.45 2.93 2.45 2.93 5.15 5.63 1.29 1.43 1.29 1.43 1.29 4.43h2c0.51 0.92 0.51 0.92 1.02 1.86 0.45 0.81 0.9 1.62 1.36 2.45 0.44 0.8 0.88 1.6 1.33 2.43 1.03 1.8 2.14 3.54 3.29 5.26 0.16 0.87 0.33 1.73 0.5 2.62 0.16 0.79 0.33 1.57 0.5 2.38l2 1c0.51 3.77 0.84 7.51 1.12 11.3 0.41 4.5 0.75 7.24 3.88 10.7-0.31 2.25-0.31 2.25-1 4l-2-1c0.49 0.73 0.98 1.47 1.48 2.22 2.51 5.08 1.91 10.7 1.86 16.2v3.79c0 3.41-0.01 6.82-0.04 10.2-0.01 3.57-0.02 7.14-0.02 10.7-0.01 6.76-0.03 13.5-0.06 20.3-0.04 7.7-0.05 15.4-0.07 23.1-0.03 15.8-0.08 31.6-0.15 47.5l-4-1v5h-17l-1-3c-5.5-1-10.7-1.02-16.3-0.84-2.67-0.16-2.67-0.16-5.67-2.16-0.43-1.98-0.43-1.98-0.51-4.47-0.06-1.44-0.06-1.44-0.11-2.91-0.02-1.07-0.04-2.14-0.07-3.24-0.03-1.13-0.06-2.27-0.1-3.44-0.44-17.4-0.28-34.7-0.21-52.1l0.06-18.4c0-2.41 0.01-4.83 0.03-7.24 0.02-7.38-0.06-14.8-0.41-22.1-0.05-1.29-0.11-2.58-0.17-3.91-0.55-3.38-1.03-4.02-3.51-6.16-0.17-3.62 0.07-7.13 0.29-10.8 0.07-3.32 0.07-3.32-2.25-5.02-0.67-0.41-1.35-0.81-2.04-1.23-0.75-2.69-0.75-2.69-1-5h-2c-2-2-2-2-2.25-4.31-1.1-3.96-3.55-5.17-6.75-7.69v-2h-2v-2c-0.6-0.12-1.2-0.25-1.81-0.38-2.19-0.62-2.19-0.62-5.19-2.62v-2c-0.64-0.05-1.28-0.1-1.93-0.15-0.83-0.07-1.66-0.15-2.51-0.23-0.82-0.06-1.64-0.13-2.49-0.21-0.69-0.13-1.37-0.27-2.07-0.41l-1-2c-3.29-0.17-6.58-0.34-9.88-0.5-0.91-0.05-1.83-0.1-2.78-0.14-6.12-0.31-12.2-0.42-18.3-0.36v3c-5.94 0.99-5.94 0.99-12 2l-1 4h-3l-1 3h-5l-1 5-5 1-1 4h-3v5c-0.99 0.33-1.98 0.66-3 1l-1 8c-0.99 0.33-1.98 0.66-3 1-1.45 2.89-1.38 5.81-1.62 9-0.13 0.66-0.25 1.32-0.38 2-0.99 0.5-0.99 0.5-2 1 0.01 1.21 0.01 2.43 0.02 3.68 0.01 4.55 0.03 9.11 0.03 13.7 0.01 1.96 0.02 3.92 0.03 5.89 0.09 20.9 0.09 20.9-1.08 29.8h-3v3c0.73 0.66 0.73 0.66 1.47 1.33 2.19 2.39 1.94 4.13 1.99 7.33 0.03 1.16 0.06 2.32 0.08 3.52 0.02 1.26 0.03 2.51 0.04 3.81 0.02 1.29 0.05 2.58 0.07 3.91 0.05 2.74 0.08 5.47 0.11 8.2 0.04 3.5 0.1 6.99 0.17 10.5 0.06 3.35 0.11 6.69 0.15 10 0.02 1.25 0.05 2.5 0.07 3.79 0.01 1.17 0.02 2.34 0.03 3.55 0.02 1.03 0.03 2.05 0.04 3.11-0.24 3.24-1.08 5.9-2.22 8.94h-7l-2 4c-8.57 0.14-8.57 0.14-12-1v-2c-7.33-0.76-14.7-1.41-22-2-2.15-4.98-2.15-4.98-3-7-0.51-1.09-0.51-1.09-1.03-2.2-1.16-3.34-1.29-6.14-1.38-9.68-0.02-0.67-0.04-1.34-0.06-2.03-0.06-2.22-0.1-4.43-0.15-6.65-0.03-1.58-0.07-3.15-0.11-4.72-0.37-16.1-0.42-32.2-0.4-48.4 0-4.09 0-8.18-0.01-12.3 0-6.82 0-13.6 0.01-20.5 0.01-7.87 0-15.8 0-23.6-0.01-6.83-0.01-13.7 0-20.5 0-4.05 0-8.11-0.01-12.2 0-3.78 0-7.56 0.01-11.3v-4.15c-0.01-1.89 0-3.78 0-5.67v-3.2c0.13-3.09 0.45-5.96 1.13-8.98 1.88-1.19 1.88-1.19 4-2 0.44-0.5 0.89-1.01 1.34-1.53 2.74-2.43 5.45-1.87 8.96-1.76 9.58 1.04 16.6 5.5 22.9 12.7 2.88 4.2 3.91 8.67 4.8 13.6l2-4h3c0.78-0.83 1.57-1.65 2.38-2.5 2.62-2.5 2.62-2.5 5.43-2.81 0.72 0.1 1.45 0.2 2.19 0.31l1-4c0.6-0.1 1.2-0.21 1.81-0.31 2.24-0.51 2.24-0.51 3.57-2.13 1.62-1.56 1.62-1.56 4.68-2.56 3.22-0.76 3.22-0.76 4.94-4 2.38-0.29 2.38-0.29 5.12-0.19 0.92 0.03 1.83 0.06 2.76 0.08 0.7 0.04 1.4 0.07 2.12 0.11l2-4c8.41-0.5 8.41-0.5 17-1l2-4zm-55 26 1 2z" fill="#008F3A"/>
<path transform="translate(885,698)" d="m0 0c5.93-0.05 11.8-0.09 17.8-0.11 2.02-0.01 4.03-0.02 6.05-0.04 2.9-0.03 5.79-0.04 8.69-0.05 0.9-0.01 1.81-0.02 2.74-0.03h2.54c0.74 0 1.48-0.01 2.24-0.01 1.96 0.24 1.96 0.24 4.96 2.24v2h2v13h-3c-0.02 11.3-0.04 22.6-0.05 33.8-0.01 5.24-0.01 10.5-0.03 15.7-0.01 5.07-0.01 10.1-0.01 15.2-0.01 1.93-0.01 3.85-0.02 5.78-0.06 14.3-0.06 14.3 1.11 28.5h2v20l4 1c0.18 0.79 0.36 1.57 0.55 2.38 1.4 5.83 2.95 11.2 5.45 16.6 0.37 1.32 0.73 2.65 1 4l1-2c2.94 0.81 2.94 0.81 6 2l1 3c1.49 0.99 1.49 0.99 3 2v2c1.26 0.08 2.52 0.16 3.81 0.25 2.15 0.14 2.15 0.14 4.19 0.75 0.38 0.67 0.76 1.34 1.16 2.04 1.62 2.13 1.62 2.13 3.82 2.27 2.58 0.05 5.13-0.01 7.71-0.12 1.75-0.06 3.51-0.1 5.26-0.15 0.85-0.02 1.7-0.04 2.58-0.06 2.34 0.02 4.55 0.23 6.86 0.57 3.23 0.4 4.64 0.35 7.61-0.55 1.92-0.07 3.83-0.09 5.75-0.06 0.98 0.01 1.97 0.02 2.98 0.02 1.13 0.02 1.13 0.02 2.27 0.04l2-4h7l1-3c3.44-2.29 4.99-2.18 9-2v-3l2-1c0.72-1.64 1.39-3.31 2-5h4v-9l5-1c-0.02-0.65-0.05-1.3-0.07-1.98-0.1-5.06-0.1-9.33 2.07-14l2-1v-1.89c-0.02-15.2-0.04-30.4-0.05-45.6-0.01-7.35-0.01-14.7-0.03-22-0.01-6.4-0.01-12.8-0.01-19.2-0.01-3.39-0.01-6.78-0.02-10.2v-11.4c-0.01-1.13-0.01-2.25-0.01-3.41v-3.13-2.71c0.12-2.59 0.55-4.99 1.12-7.52 5.96-0.02 11.9-0.04 17.9-0.05 2.03-0.01 4.06-0.02 6.09-0.03 2.91-0.01 5.82-0.01 8.73-0.02 1.38-0.01 1.38-0.01 2.77-0.01 2.18 0 4.35 0.05 6.52 0.11 1.89 1.89 1.14 5.21 1.15 7.72 0 0.7 0 1.4 0.01 2.13 0 2.33 0.01 4.67 0.01 7.01 0 1.62 0 3.24 0.01 4.86 0 3.4 0.01 6.81 0.01 10.2 0 4.36 0.01 8.72 0.03 13.1 0.01 3.36 0.01 6.71 0.01 10.1 0 1.61 0 3.21 0.01 4.82 0.01 2.25 0.01 4.5 0 6.75 0 1.28 0.01 2.56 0.01 3.88-0.25 3.5-1.07 6.21-2.25 9.49-0.22 2.93-0.22 2.93 0.99 5.05 1.49 4.36 1.28 8.53 1.24 13.1v2.97c0 2.06-0.01 4.13-0.02 6.2-0.02 3.16-0.02 6.32-0.02 9.48-0.01 2.01-0.02 4.02-0.02 6.03 0 0.95 0 1.89-0.01 2.86-0.03 4.22-0.08 8.19-1.16 12.3h-2l-1 17h-3v8c-2.47 0.99-2.47 0.99-5 2l-1 7-4 1-1 4h-4v5l-4 1v3l-4 1c-0.06 0.62-0.12 1.24-0.19 1.88-0.27 0.7-0.53 1.4-0.81 2.12-0.78 0.31-1.57 0.62-2.38 0.94-2.82 0.82-2.82 0.82-3.93 3.5-2.19 3.32-4.22 3.74-7.95 4.79-0.57 0.25-1.15 0.51-1.74 0.77l-1 3h-9l-1 4c-11.4 0.8-22.6 1.13-34 1v3c-2.58 0.22-5.17 0.43-7.75 0.62-0.73 0.07-1.46 0.13-2.21 0.2-3.9 0.28-6.75 0.45-10-1.82v-2c-0.61 0.01-1.22 0.01-1.85 0.02-2.78 0.02-5.56 0.03-8.34 0.04-1.44 0.02-1.44 0.02-2.91 0.03-1.39 0-1.39 0-2.82 0.01-0.85 0-1.71 0.01-2.58 0.01-2.59-0.11-4.96-0.59-7.5-1.11-1.05 0.04-2.1 0.08-3.19 0.12-0.93-0.04-1.85-0.08-2.81-0.12l-2-3c-2.13-0.47-2.13-0.47-4.5-0.5-2.41-0.09-2.41-0.09-4.5-0.5l-2-3c-1.99-1.02-3.99-2.02-6-3l-1-2c-0.99-0.33-1.98-0.66-3-1-0.31-0.66-0.62-1.32-0.94-2-0.35-0.66-0.7-1.32-1.06-2-1.33-0.35-2.66-0.69-4-1-2.25-1.88-2.25-1.88-4-4v-3h-4c-0.12-1.14-0.12-1.14-0.25-2.31-0.92-3.3-2.05-3.73-4.75-5.69-0.7-1.65-1.37-3.32-2-5-0.5-0.45-0.99-0.91-1.5-1.38-2.28-2.47-2.63-5.42-3.5-8.62l-2-2c-0.67-2.33-1.33-4.67-2-7l-2-2c-0.59-2.78-0.95-5.56-1.34-8.37-0.4-2.66-0.4-2.66-2.18-3.97-2.07-2.32-1.85-3.84-1.85-6.92 0-1.09-0.01-2.18-0.01-3.31 0-1.19 0.01-2.39 0.02-3.62v-3.82c-0.01-3.46 0.01-6.92 0.02-10.4 0.02-3.62 0.02-7.24 0.02-10.9 0-6.08 0.02-12.2 0.04-18.2 0.03-7.8 0.04-15.6 0.04-23.4 0.01-6.7 0.02-13.4 0.03-20.1 0.01-2.16 0.01-4.31 0.01-6.47 0.01-4.02 0.02-8.04 0.04-12.1v-3.61c0.01-1.1 0.01-2.19 0.02-3.32 0-0.95 0.01-1.9 0.01-2.88 0.13-2.64 0.54-5.07 1.13-7.64z" fill="#008F39"/>
<path transform="translate(49,693)" d="m0 0c1.77 0.11 3.54 0.24 5.31 0.38 1.48 0.1 1.48 0.1 2.99 0.21 2.7 0.41 2.7 0.41 5.7 2.41 2.38 0.31 2.38 0.31 4.94 0.38 4.75 0.38 4.75 0.38 7.5 2.5 0.51 0.7 1.03 1.4 1.56 2.12 0.58 0.54 1.16 1.07 1.75 1.62 1.25 1.38 1.25 1.38 1.25 3.38 0.99 0.33 1.98 0.66 3 1 0.95 1.85 0.95 1.85 1.69 4.06 0.37 1.1 0.37 1.1 0.76 2.23 0.18 0.56 0.36 1.13 0.55 1.71 2.93-0.27 2.93-0.27 6-1l2-3c2.71-0.62 2.71-0.62 5.94-1 4.26-0.5 6.18-0.84 9.06-4 3.19-0.19 3.19-0.19 6 0 0.23-0.65 0.46-1.3 0.69-1.97 0.43-0.67 0.87-1.34 1.31-2.03 2.28-0.47 2.28-0.47 4.94-0.5 2.63 0.05 2.63 0.05 5.06-0.5 0.67-0.99 0.67-0.99 1.36-2 1.64-2 1.64-2 3.8-2.49h2.54c0.95 0 1.9-0.01 2.88-0.01 1.03 0.01 2.05 0.02 3.11 0.04h3.19c2.23 0.01 4.46 0.02 6.69 0.05 3.42 0.03 6.83 0.04 10.2 0.04 2.16 0.01 4.33 0.02 6.49 0.03 1.03 0.01 2.05 0.01 3.11 0.01 0.95 0.01 1.9 0.03 2.88 0.04 0.84 0.01 1.67 0.01 2.54 0.02 2.16 0.27 2.16 0.27 5.16 2.27 0.45 2.03 0.45 2.03 0.55 4.5 0.04 0.89 0.08 1.77 0.12 2.69 0.03 0.93 0.05 1.85 0.08 2.81 0.06 1.39 0.06 1.39 0.13 2.81 0.27 6.89 0.27 6.89-0.88 9.19h-4v11c-2.05 0.72-4.1 1.43-6.15 2.15-2.04 0.7-2.04 0.7-2.85 2.85-6.57 1.22-13.2 1.15-19.8 1.12-1.04 0.01-2.07 0.01-3.14 0.02-0.99 0-1.99-0.01-3.01-0.01h-2.72c-2.32-0.13-2.32-0.13-5.32-1.13l-2 5h-11l-2 5c-0.97 0.12-1.94 0.25-2.94 0.38-1.01 0.2-2.02 0.41-3.06 0.62-1.5 2.27-2.14 4.38-3 7h-4c0.1 0.76 0.21 1.53 0.31 2.31-0.1 0.89-0.2 1.78-0.31 2.69-2.31 1.62-2.31 1.62-5 3-3.15 2.45-3.91 5.22-5 9h-2c-0.59 9.01-1.14 18-1 27-1.98 0.5-1.98 0.5-4 1l-1 102c-2.31 0.33-4.62 0.66-7 1l-2 3c-3.5 0.31-3.5 0.31-7 0l-2-2c-1.98-0.43-1.98-0.43-4.25-0.56-0.83-0.08-1.67-0.15-2.53-0.23-0.88-0.07-1.76-0.14-2.66-0.21-1.73-0.14-3.45-0.28-5.18-0.44-0.77-0.06-1.54-0.12-2.33-0.18-2.05-0.38-2.05-0.38-5.05-2.38-0.3-2.72-0.4-5.2-0.37-7.92 0-0.83 0-1.66-0.01-2.51 0-2.79 0.01-5.58 0.02-8.37v-5.98c-0.01-5.43 0.01-10.8 0.02-16.3 0.02-5.67 0.02-11.4 0.02-17 0-9.53 0.02-19 0.04-28.6 0.03-12.2 0.04-24.5 0.04-36.7 0.01-10.5 0.02-21 0.03-31.5 0.01-3.39 0.01-6.77 0.01-10.2 0.01-5.32 0.02-10.6 0.03-15.9 0.01-1.96 0.01-3.91 0.01-5.86 0-2.66 0.01-5.32 0.02-7.99v-2.35c0.02-3.41 0.07-6.56 1.14-9.82z" fill="#82C027"/>
<path transform="translate(457,713)" d="m0 0c0.7-0.21 1.4-0.41 2.12-0.62 1.88-0.38 1.88-0.38 4.63 0.68 2.25 1.94 2.25 1.94 2.56 5.13-0.1 0.93-0.2 1.85-0.31 2.81 1.13 0.12 2.27 0.25 3.44 0.38 1.17 0.2 2.35 0.41 3.56 0.62 0.5 0.99 0.5 0.99 1 2h-2l2 3c1.28-0.16 2.56-0.33 3.88-0.5 3.51-0.45 5.68-0.65 9.12 0.5l-2 1c0.5 0.99 0.5 0.99 1 2l-4 1 2 3-1 2c1.98 0.66 3.96 1.32 6 2v3c-0.99 0.5-0.99 0.5-2 1l5 1c-2 2-2 2-4.06 2.5-0.96 0.25-0.96 0.25-1.94 0.5-0.5 0.99-0.5 0.99-1 2 0.99 0.5 0.99 0.5 2 1l-2 3c0.83 3.57 0.83 3.57 2 7v2l-3 2c-0.51 3.32-0.51 3.32-0.56 7.06-0.08 2.32-0.21 4.63-0.44 6.94-0.99 0.5-0.99 0.5-2 1 0.01 1.21 0.01 2.43 0.02 3.68 0.01 4.55 0.03 9.11 0.03 13.7 0.01 1.96 0.02 3.92 0.03 5.89 0.09 20.9 0.09 20.9-1.08 29.8h-3v3c0.73 0.66 0.73 0.66 1.47 1.33 2.19 2.39 1.94 4.13 1.99 7.33 0.03 1.16 0.06 2.32 0.08 3.52 0.02 1.26 0.03 2.51 0.04 3.81 0.02 1.29 0.05 2.58 0.07 3.91 0.05 2.74 0.08 5.47 0.11 8.2 0.04 3.5 0.1 6.99 0.17 10.5 0.06 3.35 0.11 6.69 0.15 10 0.02 1.25 0.05 2.5 0.07 3.79 0.01 1.17 0.02 2.34 0.03 3.55 0.02 1.03 0.03 2.05 0.04 3.11-0.24 3.24-1.08 5.9-2.22 8.94h-7l-2 4c-8.57 0.14-8.57 0.14-12-1v-2c-7.33-0.76-14.7-1.41-22-2-2.15-4.98-2.15-4.98-3-7-0.34-0.75-0.68-1.5-1.03-2.27-1.06-2.98-1.28-5.34-1.38-8.5-0.05-1.82-0.05-1.82-0.11-3.68-0.03-1.38-0.06-2.76-0.09-4.15-0.02-0.73-0.04-1.45-0.06-2.21-0.66-26.6-0.52-53.2-0.52-79.8 0-6.1-0.01-12.2-0.02-18.3-0.01-5.95-0.02-11.9-0.02-17.8 0-3.53 0-7.06-0.01-10.6-0.01-3.89-0.01-7.79 0-11.7-0.01-1.15-0.01-2.31-0.02-3.5 0-1.05 0.01-2.11 0.01-3.2v-2.78c0.26-2.58 0.94-4.22 2.25-6.44 2.4 1.6 4.7 3.26 7 5 0.6-0.33 1.2-0.66 1.81-1 2.19-1 2.19-1 5.19-1-0.27-2.93-0.27-2.93-1-6l-3-2c3.52-3.52 10.6-1.66 15-1z" fill="#008F3A"/>
<path transform="translate(743,688)" d="m0 0h33c0.5 1.49 0.5 1.49 1 3 3.42 0.66 6.76 1.08 10.2 1.21 0.74 0.03 1.48 0.06 2.24 0.09 1.54 0.05 3.07 0.09 4.6 0.13 1.99 0.08 3.96 0.32 5.93 0.57 0.99 1.49 0.99 1.49 2 3 1.88 0.65 1.88 0.65 4.06 0.94 5.39 1.04 11.5 2.6 15.5 6.61 2.37 2.33 5.31 2.68 8.47 3.45v2c0.62 0.23 1.24 0.45 1.88 0.69 2.12 1.31 2.12 1.31 3.12 3.87 0.33 0.81 0.66 1.61 1 2.44 0.62 0.14 1.24 0.29 1.88 0.44 3.36 0.89 4.26 3.74 6.12 6.56 2.53 1.75 2.53 1.75 5 3l2 2 2 1-1 3c1.47 3.18 2.76 4.83 5.62 6.88 3.19 2.84 3.08 4.96 3.38 9.12l1 3h3c0.27 0.96 0.27 0.96 0.55 1.93 0.38 1.24 0.38 1.24 0.76 2.51 0.25 0.82 0.49 1.64 0.74 2.49 0.31 0.69 0.63 1.37 0.95 2.07 0.99 0.33 1.98 0.66 3 1v8h2c1.73 3.45 1.37 7.22 1 11-1.37 3.36-2.99 5.98-5 9 0.99 0.33 1.98 0.66 3 1l1 8h-3v-3l-1-2-5 4c-2.56-2.25-2.56-2.25-5-5 0.19-2.31 0.19-2.31 1-4-1.94-1.24-1.94-1.24-3.94-0.5-2.06 0.5-2.06 0.5-5.06-0.5l-2 5c-0.63 0.06-1.25 0.12-1.9 0.18-0.82 0.09-1.63 0.17-2.48 0.26-0.81 0.08-1.62 0.16-2.46 0.24-2.2 0.21-2.2 0.21-4.16 1.32v-2c-0.99-0.33-1.98-0.66-3-1h3l1-3v3c0.93-3.01 1.04-3.87 0-7h3v-3c-0.96-0.19-0.96-0.19-1.94-0.38-1.02-0.3-1.02-0.3-2.06-0.62l-1-2c-0.99 0.33-1.98 0.66-3 1-0.82 1.96-0.82 1.96-1 4l4 4c-3.48 1.16-6.35 1-10 1-0.99 0.33-1.98 0.66-3 1-0.6-0.16-1.2-0.33-1.81-0.5-2.92-0.67-5.28-0.09-8.19 0.5l-1-3c2.99-0.87 5.64-1.11 8.75-1.06 0.8 0.01 1.6 0.02 2.42 0.02 0.61 0.02 1.21 0.03 1.83 0.04v-2c-0.99-0.33-1.98-0.66-3-1h3c0.13-2.1 0.23-4.21 0.31-6.31 0.06-1.17 0.12-2.35 0.18-3.55-0.16-1.04-0.32-2.07-0.49-3.14-2.43-1.79-2.43-1.79-5-3-0.31-2.69-0.31-2.69 0-5-0.64-0.27-1.28-0.54-1.94-0.81-2.06-1.19-2.06-1.19-3.06-4.19-0.66-0.62-1.32-1.24-2-1.88-2.29-2.43-2.48-3.89-3-7.12l-2-1v-2l-4-2v-2h-2l-1-2c-1.98-0.73-3.98-1.4-6-2v-3h-4v-2c-1.49-0.5-1.49-0.5-3-1v-2c-0.69 0.02-1.37 0.05-2.08 0.07-0.9 0.02-1.8 0.04-2.73 0.05-0.9 0.03-1.79 0.05-2.71 0.08-2.48-0.2-2.48-0.2-5.48-2.2v-3c-4.4 0.14-8.79 0.29-13.2 0.44-1.87 0.06-1.87 0.06-3.77 0.12-1.2 0.04-2.41 0.08-3.65 0.12-1.65 0.06-1.65 0.06-3.34 0.11-2.78 0.19-5.35 0.59-8.05 1.21l-1 3c-7.75 1-7.75 1-10 1l-1 4h-7v4c-1.98 0.5-1.98 0.5-4 1v4c-2.97-0.5-2.97-0.5-6-1-0.1 0.64-0.21 1.28-0.31 1.94-0.23 0.68-0.46 1.36-0.69 2.06-1.49 0.5-1.49 0.5-3 1l-1 5c-1.49 0.5-1.49 0.5-3 1-1.21 2-1.21 2-2 4h-3c-0.1 1.28-0.21 2.56-0.31 3.88-0.18 2.17-0.18 2.17-0.69 4.12-1.49 0.99-1.49 0.99-3 2-0.58 2.89-0.58 2.89-0.69 6.12-0.06 1.1-0.13 2.2-0.2 3.33-0.03 0.84-0.07 1.68-0.11 2.55 1.49-0.5 1.49-0.5 3-1 0.45 0.66 0.91 1.32 1.38 2 0.8 0.99 0.8 0.99 1.62 2h2l-1 4h-4v-4h-6c-0.12-0.64-0.25-1.28-0.38-1.94-0.2-0.68-0.41-1.36-0.62-2.06l-2-1-1-3-4 4v-4h-5c2.85-3.01 5.24-5.26 9-7 0.5-0.99 0.5-0.99 1-2h2l1-3 2-2-3-3c1.24-0.59 1.24-0.59 2.5-1.19 0.83-0.6 1.65-1.19 2.5-1.81 0.42-2.63 0.42-2.63 0-5l2 2-1-4c0.95-0.31 1.9-0.62 2.88-0.94 3.88-1.09 3.88-1.09 6.12-4.06 1.11-0.45 2.23-0.91 3.38-1.38 3.7-1.65 4.55-2.33 6.62-5.62 4.49-5.74 4.49-5.74 7-7-1.26-4.51-2.9-7.49-6-11h2c0.19-1.21 0.19-1.21 0.38-2.44 0.2-0.84 0.41-1.69 0.62-2.56 2.53-1.26 4.69-1.4 7.5-1.69 0.98-0.1 1.96-0.21 2.97-0.32 2.53 0.01 2.53 0.01 4.53 2.01 2.11-0.32 2.11-0.32 4-1l-2-1-3-2c3-2 3-2 4-2v-3h-2v2l-17-1c-1-7-1-7 0.17-8.91 2.17-1.29 3.54-1.51 6.06-1.6 0.8-0.04 1.61-0.07 2.43-0.11 0.84-0.02 1.67-0.04 2.53-0.07 1.26-0.05 1.26-0.05 2.56-0.1 2.08-0.08 4.17-0.15 6.25-0.21l2-4z" fill="#008E39"/>
<path transform="translate(535,688)" d="m0 0h27l2 4 17 1v2c0.9 0.11 1.81 0.22 2.74 0.33 1.18 0.16 2.36 0.32 3.57 0.48 1.17 0.15 2.35 0.3 3.55 0.46 3.24 0.75 4.07 1.3 6.14 3.73 2.61 0.72 2.61 0.72 5 1v2h2c2.12 1.88 2.12 1.88 4 4v2c0.59 0.25 1.17 0.5 1.78 0.75 2.53 1.42 3.93 2.96 5.78 5.19 2.47 2.94 2.47 2.94 5.15 5.69 1.29 1.37 1.29 1.37 1.29 3.37-3.57-0.55-4.89-1.67-7.06-4.5-2.06-2.67-2.63-3.4-5.94-4.5-2-2-2-2-3-5-2.07-1.22-2.07-1.22-5-1v-2c-1.07 0.04-2.14 0.08-3.25 0.12-3.52-0.11-4.83-0.45-7.75-2.12h-3v-2h-3v2c-3.41-0.79-6.69-1.87-10-3v-2c-2.54 1.36-2.54 1.36-5 3v2c0 3.11-0.54 4.35-2 7h-3c-1.95-1.95-2.85-3.53-4-6h-2c-1.06-1.81-1.06-1.81-2-4l1-3h-3l-2 2 2 2c0.71 1.98 1.39 3.98 2 6h-3c-0.5-1.49-0.5-1.49-1-3-0.99 1.49-0.99 1.49-2 3l2 1v3l-5 1 10 2 1-2c0.99 1.49 0.99 1.49 2 3l-5 1v2c1.98 0.66 3.96 1.32 6 2 0.41-0.52 0.83-1.03 1.25-1.56 0.58-0.48 1.15-0.95 1.75-1.44 1.88 0.25 1.88 0.25 4 1 0.85 0.06 1.69 0.12 2.56 0.19 2.44 0.81 2.44 0.81 4.25 3.87 0.59 1.46 0.59 1.46 1.19 2.94-3 2-3 2-6 2l-1 3 2 1 2-2 1 5 2-1 1-3c-0.99-0.33-1.98-0.66-3-1 0.69 0.02 1.37 0.05 2.08 0.07 0.9 0.02 1.8 0.04 2.73 0.05 1.34 0.04 1.34 0.04 2.71 0.08 2.73-0.02 2.73-0.02 5.48-2.2 2 2 2 2 2 5h10l1 3c-0.99 0.33-1.98 0.66-3 1l-1 3h-2l-1 3c-0.99-0.33-1.98-0.66-3-1h-3l-1 1v2l2 1 1-2c0.93 3.01 1.04 3.87 0 7l4-1c1.34 1.66 2.67 3.33 4 5l1.81 1.81c1.9 3.49 0.89 6.35 0.19 10.2h-3l-2 2c0.34 2.47 0.34 2.47 1 5v3c-1.94-0.31-1.94-0.31-4-1-1.37-4.12-0.87-7.89-0.64-12.2-0.06-2.93-0.06-2.93-2.32-4.52-0.68-0.42-1.35-0.85-2.04-1.29-0.75-2.69-0.75-2.69-1-5h-2c-2-2-2-2-2.25-4.31-1.1-3.96-3.55-5.17-6.75-7.69v-2h-2v-2c-0.6-0.12-1.2-0.25-1.81-0.38-2.19-0.62-2.19-0.62-5.19-2.62v-2c-0.64-0.05-1.28-0.1-1.93-0.15-0.83-0.07-1.66-0.15-2.51-0.23-0.82-0.06-1.64-0.13-2.49-0.21-0.69-0.13-1.37-0.27-2.07-0.41l-1-2c-3.29-0.17-6.58-0.34-9.88-0.5-0.91-0.05-1.83-0.1-2.78-0.14-6.12-0.31-12.2-0.42-18.3-0.36v3c-5.94 0.99-5.94 0.99-12 2l-1 4h-3l-1 3h-5l-1 5-5 1-1 4h-3v5c-0.99 0.33-1.98 0.66-3 1l-1 8c-1.98 0.5-1.98 0.5-4 1-0.69-1.81-0.69-1.81-1-4 0.52-0.41 1.03-0.83 1.56-1.25 0.48-0.58 0.95-1.15 1.44-1.75-0.35-2.15-0.95-4.1-1.65-6.16-0.12-0.61-0.23-1.21-0.35-1.84l2-2v-4c2.48-0.5 2.48-0.5 5-1-0.6-0.14-1.2-0.29-1.81-0.44-1.75-0.45-3.48-0.99-5.19-1.56l4-2v-2c-1.98-0.66-3.96-1.32-6-2l1-3-2-3 3-2h-2v-2c-0.56 0.35-1.11 0.7-1.69 1.06-2.85 1.16-4.4 0.75-7.31-0.06v-4l-7-2c-0.5-2.97-0.5-2.97-1-6-4.43-1.81-4.43-1.81-9-1-1.36-0.25-1.36-0.25-2.75-0.5-3.66-0.56-6.63-0.15-10.2 0.5 0.47 0.39 0.95 0.78 1.44 1.19 1.91 2.22 2.17 3.94 2.56 6.81-7.42 2.64-7.42 2.64-11 1.19-2.68-1.59-4.59-2.92-5.57-5.96-1.14-5.93-1.21-13.5 0.57-19.2 1.88-1.19 1.88-1.19 4-2 0.44-0.5 0.89-1.01 1.34-1.53 2.74-2.43 5.45-1.87 8.96-1.76 9.58 1.04 16.6 5.5 22.9 12.7 2.88 4.2 3.91 8.67 4.8 13.6l2-4h3c0.78-0.83 1.57-1.65 2.38-2.5 2.62-2.5 2.62-2.5 5.43-2.81 0.72 0.1 1.45 0.2 2.19 0.31l1-4c0.6-0.1 1.2-0.21 1.81-0.31 2.24-0.51 2.24-0.51 3.57-2.13 1.62-1.56 1.62-1.56 4.68-2.56 3.22-0.76 3.22-0.76 4.94-4 2.38-0.29 2.38-0.29 5.12-0.19 0.92 0.03 1.83 0.06 2.76 0.08 0.7 0.04 1.4 0.07 2.12 0.11l2-4c8.41-0.5 8.41-0.5 17-1l2-4zm-55 26 1 2z" fill="#008439"/>
<path transform="translate(780,721)" d="m0 0c1.81 0.81 1.81 0.81 4 2 2.32 0.39 4.66 0.73 7 1l-1-3c1.94 0.38 1.94 0.38 4 1l1 2-1 3 8-1v3h-2v4l4-1-1-2c0.99 0.33 1.98 0.66 3 1l1 3h-2v2h4c0.5 3.47 0.5 3.47 1 7 0.72-0.14 1.44-0.29 2.19-0.44 1.84-0.37 3.7-0.7 5.56-1 0.74-0.18 1.49-0.37 2.25-0.56l1-2h3l-2-2v-2c4.16-0.08 7.95 0.02 12 1-0.52 0.39-1.03 0.78-1.56 1.19-0.48 0.6-0.95 1.19-1.44 1.81 0.23 2.65 0.23 2.65 1 5v-2c2.31-0.33 4.62-0.66 7-1l-1 4h1.86 10.1c0.5 1.98 0.5 1.98 1 4 1.98-0.33 3.96-0.66 6-1-0.5-1.49-0.5-1.49-1-3h2v-4c-0.95-0.14-1.9-0.29-2.88-0.44-3.12-0.56-3.12-0.56-5.12-1.56v-2c-0.99-0.5-0.99-0.5-2-1 0.99-0.33 1.98-0.66 3-1-0.5-1.49-0.5-1.49-1-3 1.94 0.81 1.94 0.81 4 2 0.5 1.49 0.5 1.49 1 3 0.83 0.58 1.65 1.15 2.5 1.75 3.27 2.95 3.19 4.96 3.5 9.25 0.5 1.49 0.5 1.49 1 3h3c0.18 0.64 0.36 1.28 0.55 1.93 0.25 0.83 0.5 1.66 0.76 2.51 0.25 0.82 0.49 1.64 0.74 2.49 0.31 0.69 0.63 1.37 0.95 2.07 1.49 0.5 1.49 0.5 3 1v8h2c1.73 3.45 1.37 7.22 1 11-1.37 3.36-2.99 5.98-5 9 1.49 0.5 1.49 0.5 3 1 0.5 3.96 0.5 3.96 1 8h-3v-3l-1-2-5 4c-2.56-2.25-2.56-2.25-5-5 0.19-2.31 0.19-2.31 1-4-1.94-1.24-1.94-1.24-3.94-0.5-2.06 0.5-2.06 0.5-5.06-0.5l-2 5c-0.63 0.06-1.25 0.12-1.9 0.18-1.22 0.13-1.22 0.13-2.48 0.26-1.21 0.12-1.21 0.12-2.46 0.24-2.2 0.21-2.2 0.21-4.16 1.32v-2c-0.99-0.33-1.98-0.66-3-1h3c0.5-1.49 0.5-1.49 1-3v3c0.93-3.01 1.04-3.87 0-7h3v-3c-0.96-0.19-0.96-0.19-1.94-0.38-0.68-0.2-1.36-0.41-2.06-0.62l-1-2c-0.99 0.33-1.98 0.66-3 1-0.82 1.96-0.82 1.96-1 4l4 4c-3.48 1.16-6.35 1-10 1-0.99 0.33-1.98 0.66-3 1-0.6-0.16-1.2-0.33-1.81-0.5-2.92-0.67-5.28-0.09-8.19 0.5l-1-3c2.99-0.87 5.64-1.11 8.75-1.06 0.8 0.01 1.6 0.02 2.42 0.02 0.61 0.02 1.21 0.03 1.83 0.04v-2c-0.99-0.33-1.98-0.66-3-1h3c0.13-2.1 0.23-4.21 0.31-6.31 0.06-1.17 0.12-2.35 0.18-3.55-0.16-1.04-0.32-2.07-0.49-3.14-2.43-1.79-2.43-1.79-5-3-0.31-2.69-0.31-2.69 0-5-0.64-0.27-1.28-0.54-1.94-0.81-2.06-1.19-2.06-1.19-3.06-4.19-0.66-0.62-1.32-1.24-2-1.88-2.29-2.43-2.48-3.89-3-7.12l-2-1v-2l-4-2v-2h-2l-1-2c-1.98-0.73-3.98-1.4-6-2v-3h-4v-2c-0.99-0.33-1.98-0.66-3-1v-2c-1.03 0.03-1.03 0.03-2.08 0.07-1.35 0.03-1.35 0.03-2.73 0.05-0.9 0.03-1.79 0.05-2.71 0.08-2.48-0.2-2.48-0.2-5.48-2.2v-3c1.75-1.12 1.75-1.12 4-2z" fill="#008539"/>
<path transform="translate(675,731)" d="m0 0h1v6h-3c0.99 2.64 1.98 5.28 3 8l-3 3c-0.57 2.27-0.57 2.27-0.69 4.69-0.06 0.81-0.13 1.61-0.2 2.45-0.03 0.61-0.07 1.23-0.11 1.86h-4l-1 8h-2l-1-4c-0.14 0.78-0.29 1.57-0.44 2.38-0.56 2.62-0.56 2.62-1.56 4.62h-2v2c1.49-0.5 1.49-0.5 3-1l2 3c-0.44 2.06-0.44 2.06-1 4l1 2c-0.94 2.12-0.94 2.12-2 4l2 2c-1.31 1.5-1.31 1.5-3 3h-3c0.58 5.31 0.58 5.31 3 10h-3l2 4h-2c0.23 0.56 0.45 1.11 0.69 1.69 0.44 3.25-0.91 4.64-2.69 7.31l-1 3c0.56 0.04 1.11 0.08 1.69 0.12 3.48 1.32 5.04 4.01 7.31 6.88l2 1v2l-2 2c0.99-0.5 0.99-0.5 2-1 0.5-1.49 0.5-1.49 1-3l5 1 1 3c-0.62 0.39-1.24 0.78-1.88 1.19-2.44 2.09-3.14 3.78-4.12 6.81h-2l-2-2c-1.49 0.5-1.49 0.5-3 1h-3l1 5h2c0.5-0.99 0.5-0.99 1-2 1.88-0.81 1.88-0.81 4-1 1.75 1.19 1.75 1.19 3 3v4c0.62 2.01 1.28 4.02 2 6 3.47-0.5 3.47-0.5 7-1l-1 2h-3l2 3c-0.38 2.19-0.38 2.19-1 4l2 1-1 3-5-2v-4l-2-1c0.19 0.76 0.37 1.53 0.56 2.31 0.44 2.69 0.44 2.69-0.56 5.69h4v2c-2.12 0.44-2.12 0.44-5 0-1.79-1.7-3.26-3.51-4.77-5.47-0.61-0.76-0.61-0.76-1.23-1.53h-1v-5l-2-1v-2h-2c-0.04-0.69-0.07-1.37-0.11-2.08-0.07-0.9-0.13-1.8-0.2-2.73-0.06-0.9-0.12-1.79-0.18-2.71-0.28-2.53-0.28-2.53-2.03-3.93-2.72-2.85-1.91-6.98-1.98-10.7-0.16-0.93-0.33-1.85-0.5-2.81-0.66-0.38-1.32-0.76-2.01-1.15-1.99-1.85-1.99-1.85-2.44-5.59 0-1.55 0.02-3.1 0.06-4.65 0.01-0.81 0.01-1.63 0.02-2.47 0.02-2.61 0.07-5.22 0.12-7.83 0.02-1.77 0.04-3.54 0.05-5.3 0.05-4.34 0.12-8.67 0.2-13 0.65-0.27 1.29-0.54 1.96-0.82 0.67-0.39 1.35-0.78 2.04-1.18 0.71-2.88 0.71-2.88 0.75-6.12 0.06-1.1 0.11-2.2 0.17-3.33 0.03-0.84 0.05-1.68 0.08-2.55l4 1c-0.5-1.49-0.5-1.49-1-3 0.08-1.73 0.24-3.46 0.44-5.19 0.1-0.9 0.2-1.8 0.31-2.73 0.08-0.69 0.16-1.37 0.25-2.08 0.99-0.33 1.98-0.66 3-1 0.31-1.13 0.62-2.27 0.94-3.44 1.06-3.56 1.06-3.56 3.18-5 0.62-0.18 1.24-0.37 1.88-0.56-0.02-1.11-0.04-2.23-0.06-3.38 0.06-3.62 0.06-3.62 1.06-5.62h4l-1-3 5-1v-2z" fill="#008439"/>
<path transform="translate(850,732)" d="m0 0c1.94 0.81 1.94 0.81 4 2l1 3c0.83 0.58 1.65 1.15 2.5 1.75 3.27 2.95 3.19 4.96 3.5 9.25l1 3h3c0.18 0.64 0.36 1.28 0.55 1.93 0.25 0.83 0.5 1.66 0.76 2.51 0.37 1.23 0.37 1.23 0.74 2.49 0.31 0.69 0.63 1.37 0.95 2.07 0.99 0.33 1.98 0.66 3 1v8h2c1.73 3.45 1.37 7.22 1 11-1.37 3.36-2.99 5.98-5 9 0.99 0.33 1.98 0.66 3 1 0.5 3.96 0.5 3.96 1 8h-3v-3l-1-2-5 4c-2.56-2.25-2.56-2.25-5-5 0.19-2.31 0.19-2.31 1-4-1.94-1.24-1.94-1.24-3.94-0.5-2.06 0.5-2.06 0.5-5.06-0.5-0.99 2.48-0.99 2.48-2 5-0.63 0.06-1.25 0.12-1.9 0.18-0.82 0.09-1.63 0.17-2.48 0.26-0.81 0.08-1.62 0.16-2.46 0.24-2.2 0.21-2.2 0.21-4.16 1.32v-2c-0.99-0.33-1.98-0.66-3-1h3l1-3v3c0.93-3.01 1.04-3.87 0-7h3v-3l-4-1-1-4c4.67-1.21 9.21-1.09 14-1v-2l-2-1 5-4c-1.49-0.5-1.49-0.5-3-1-1.12-5.75-1.12-5.75 0-8-0.69-1.72-1.39-3.43-2.16-5.11-1.14-2.57-1.99-5.21-2.84-7.89h2l1-2 2 1v4c1.98-0.33 3.96-0.66 6-1l-1-3h2v-4c-0.95-0.14-1.9-0.29-2.88-0.44-3.12-0.56-3.12-0.56-5.12-1.56v-2l-2-1c0.99-0.33 1.98-0.66 3-1l-1-3z" fill="#008439"/>
<path transform="translate(743,688)" d="m0 0h33c0.5 1.49 0.5 1.49 1 3 4.96 0.94 9.85 1.3 14.9 1.56 0.78 0.05 1.56 0.09 2.37 0.13 1.92 0.11 3.83 0.21 5.75 0.31 0.15 0.94 0.31 1.88 0.46 2.85 0.42 2.43 0.9 4.77 1.54 7.15-0.78 0.14-1.57 0.29-2.38 0.44-2.58 0.44-2.58 0.44-4.62 1.56l2 1v3c-1.6-0.14-3.21-0.29-4.81-0.44-1.34-0.12-1.34-0.12-2.71-0.24-2.48-0.32-2.48-0.32-5.48-1.32l-1 1c-0.5-0.99-0.5-0.99-1-2h-2v-2c-0.6-0.27-1.2-0.54-1.81-0.81-2.19-1.19-2.19-1.19-3.57-2.81-1.65-1.7-1.65-1.7-4.62-1.38-3 0-3 0-4.56-1.38-0.48-0.53-0.95-1.07-1.44-1.62-2.6-1.19-2.6-1.19-5-2l-1 2h-3l-2 8h-4l3 3-1 2-4-1-1-6c-0.43 0.5-0.87 0.99-1.31 1.5-1.69 1.5-1.69 1.5-4.69 1.5v-3h-2v2l-17-1c-1-7-1-7 0.17-8.91 2.17-1.29 3.54-1.51 6.06-1.6 0.8-0.04 1.61-0.07 2.43-0.11 0.84-0.02 1.67-0.04 2.53-0.07 0.84-0.03 1.69-0.07 2.56-0.1 2.08-0.08 4.17-0.15 6.25-0.21l2-4z" fill="#00843A"/>
<path transform="translate(737,711)" d="m0 0c3.13 0.17 3.13 0.17 6 0v3l-2 1v3l-4 1c2.09 2.09 6.11 1.75 9 2h4l-1 3-5 1c-0.5 1.49-0.5 1.49-1 3-7.75 1-7.75 1-10 1l-1 4h-7v4l-4 1v4c-2.97-0.5-2.97-0.5-6-1-0.1 0.64-0.21 1.28-0.31 1.94-0.23 0.68-0.46 1.36-0.69 2.06-1.49 0.5-1.49 0.5-3 1l-1 5c-1.49 0.5-1.49 0.5-3 1-1.21 2-1.21 2-2 4h-3c-0.1 1.28-0.21 2.56-0.31 3.88-0.18 2.17-0.18 2.17-0.69 4.12l-3 2c-0.58 2.89-0.58 2.89-0.69 6.12-0.06 1.1-0.13 2.2-0.2 3.33-0.03 0.84-0.07 1.68-0.11 2.55 1.49-0.5 1.49-0.5 3-1 0.45 0.66 0.91 1.32 1.38 2 0.8 0.99 0.8 0.99 1.62 2h2l-1 4h-4v-4h-6c-0.12-0.64-0.25-1.28-0.38-1.94-0.2-0.68-0.41-1.36-0.62-2.06l-2-1-1-3-4 4v-4h-5c2.85-3.01 5.24-5.26 9-7l1-2h2l1-3 2-2-3-3c1.24-0.59 1.24-0.59 2.5-1.19 0.83-0.6 1.65-1.19 2.5-1.81 0.42-2.63 0.42-2.63 0-5l2 2-1-4c0.95-0.31 1.9-0.62 2.88-0.94 3.88-1.09 3.88-1.09 6.12-4.06 1.11-0.45 2.23-0.91 3.38-1.38 3.7-1.65 4.55-2.33 6.62-5.62 4.49-5.74 4.49-5.74 7-7-1.26-4.51-2.9-7.49-6-11h2c0.19-1.21 0.19-1.21 0.38-2.44 0.2-0.84 0.41-1.69 0.62-2.56 2.37-1.18 4.31-1.39 6.94-1.69 0.87-0.1 1.75-0.21 2.65-0.32 2.41 0.01 2.41 0.01 5.41 2.01z" fill="#008439"/>
<path transform="translate(1031,852)" d="m0 0h5c0.8 3.29 1.1 4.71 0 8v3c-5.75 1.12-5.75 1.12-8 0 0.96 2.33 0.96 2.33 4 4-2.7 1.35-5.01 1-8 1v-5h-2c0.5 2.48 0.5 2.48 1 5h-2l2 4-5 1v2c-10.4 5.71-25.7 4.31-37.1 3.31-0.94-0.08-1.87-0.15-2.83-0.23-4.74-0.5-7.36-1-11.1-4.08-2.6-1.3-5.14-1.56-8-2l-1-6c2.38 0.31 2.38 0.31 5 1 0.99 1.49 0.99 1.49 2 3 2 0.4 2 0.4 4.29 0.26 0.86-0.02 1.72-0.03 2.6-0.05 0.91-0.02 1.81-0.05 2.73-0.09 10.1-0.25 10.1-0.25 14.8 0.43 3.22 0.4 4.63 0.35 7.6-0.55 1.92-0.07 3.83-0.09 5.75-0.06 0.98 0.01 1.97 0.02 2.98 0.02 1.13 0.02 1.13 0.02 2.27 0.04l2-4h7l1-3c3.44-2.29 4.99-2.18 9-2v-3l2-1c0.72-1.64 1.39-3.31 2-5z" fill="#008439"/>
<path transform="translate(893,852)" d="m0 0 6 3 1 3 2-1c0.99 0.33 1.98 0.66 3 1 2.14-0.39 2.14-0.39 4-1 0.95 3.43 1 6.44 1 10h-4l-1-2 1 6-2 1h3v-4h2l1 9 4-1v5h4l2 2 1-3 4 4-1 3v3l4-4 2 3h3v2c2.97-0.5 2.97-0.5 6-1v8l4-3c2 3 2 3 2 5h4c0.5 2.97 0.5 2.97 1 6-2.88 0.19-2.88 0.19-6 0l-2-3c-2.13-0.47-2.13-0.47-4.5-0.5-2.41-0.09-2.41-0.09-4.5-0.5l-2-3c-1.99-1.02-3.99-2.02-6-3l-1-2c-1.49-0.5-1.49-0.5-3-1-0.31-0.66-0.62-1.32-0.94-2-0.35-0.66-0.7-1.32-1.06-2-1.33-0.35-2.66-0.69-4-1-2.25-1.88-2.25-1.88-4-4v-3h-4c-0.08-0.76-0.16-1.53-0.25-2.31-0.92-3.3-2.05-3.73-4.75-5.69-0.7-1.65-1.37-3.32-2-5-0.5-0.45-0.99-0.91-1.5-1.38-2.28-2.47-2.63-5.42-3.5-8.62l-2-2v-4z" fill="#00853A"/>
<path transform="translate(839,747)" d="m0 0h8c0.27 0.78 0.54 1.57 0.81 2.38 1.04 2.9 1.04 2.9 4.19 4.62l-1 3 1 3v7l2 1c-1 2-1 2-3 5v2c-11 1.4-11 1.4-16 1l-2-3h6c-0.19-0.64-0.37-1.28-0.56-1.94-0.15-0.68-0.29-1.36-0.44-2.06 1-1 1-1 4.06-1.06 1.46 0.03 1.46 0.03 2.94 0.06v-2c-3.96 0.5-3.96 0.5-8 1l-1 3-2-2 1-2-5-1v-2h2v-2l-2-1 1-4-5-1 1-2c4.55-0.37 4.55-0.37 6.81 1.5 0.39 0.5 0.79 0.99 1.19 1.5l2-2h1l1-7z" fill="#008E3A"/>
<path transform="translate(695,812)" d="m0 0-1 3c-0.6 5.86-0.6 5.86 1.38 11.2 0.53 0.6 1.07 1.19 1.62 1.81 0.73 1.98 1.4 3.98 2 6l1 3h2c2.32 3.25 3.44 6.06 4 10 0.99 0.33 1.98 0.66 3 1l1 3c0.99 0.5 0.99 0.5 2 1-0.99 0.33-1.98 0.66-3 1l-2-3-3-2c-0.5-1.27-0.5-1.27-1-2.56-0.33-0.81-0.66-1.61-1-2.44-0.99-0.33-1.98-0.66-3-1v-4c-1.18 0.09-1.18 0.09-2.38 0.19-0.86-0.06-1.73-0.13-2.62-0.19l-2-3 3-2c-1.16 0.13-1.16 0.13-2.34 0.25-1 0.11-2 0.21-3.04 0.31-0.99 0.11-1.99 0.21-3.02 0.32-2.6 0.12-2.6 0.12-4.6-0.88l1-4 3 2 2-2c-0.5-0.43-0.99-0.87-1.5-1.31-1.5-1.69-1.5-1.69-1.5-4.69l-1 2h-5v-2c-0.87-0.12-0.87-0.12-1.75-0.25-2.87-0.96-4.25-2.53-6.25-4.75l1-3c0.62 0.71 0.62 0.71 1.25 1.44 1.93 1.72 3.23 2.13 5.75 2.56v2h3v-2c1.29-1.37 2.62-2.71 4-4l-1-2c3.41-0.78 6.51-1.1 10-1z" fill="#008439"/>
<path transform="translate(676,872)" d="m0 0c3.38 0.25 3.38 0.25 7 1 1.44 2.06 1.44 2.06 2 4 3.47-0.5 3.47-0.5 7-1 0.25 0.62 0.5 1.24 0.75 1.88 1.46 2.47 2.63 3.07 5.25 4.12v6c0.99 0.33 1.98 0.66 3 1l-1-4h3c3 3.44 3 3.44 3 5l5 1-4 3 3 3 1-2c0.43 0.5 0.87 0.99 1.31 1.5 1.69 1.83 1.69 1.83 4.69 1.5v2h5c-0.5 1.49-0.5 1.49-1 3-2.1-0.11-4.21-0.24-6.31-0.38-1.17-0.06-2.35-0.13-3.55-0.21-3.14-0.41-3.14-0.41-6.14-2.41v-3h-3c-0.45-0.64-0.91-1.28-1.38-1.94-2.09-2.65-3.36-2.52-6.62-3.06-2.81-1.25-2.81-1.25-5-3-0.31-2.69-0.31-2.69 0-5-0.72-0.27-1.44-0.54-2.19-0.81-2.82-1.2-5.31-2.4-7.81-4.19v-3l-3-2v-2z" fill="#008439"/>
<path transform="translate(529,717)" d="m0 0c1.39 0.5 1.39 0.5 2.81 1 3.74 1.17 5.48 1.24 9.19 0l3 2c3.03 1.13 3.03 1.13 6.5 1.38 3.44 0.61 4.49 0.9 6.5 3.62-1.79 2.32-2.67 2.95-5.62 3.37-1.54 0-1.54 0-3.11-0.01h-3.43c-1.19-0.01-2.37-0.03-3.59-0.05-1.17 0.01-2.34 0.01-3.54 0.01-5.94-0.03-11.1-0.27-16.7-2.32v-3l5-1v-2c1.5-1.62 1.5-1.62 3-3z" fill="#008F3A"/>
<path transform="translate(1083,714)" d="m0 0h3c0.02 4.66 0.04 9.33 0.05 14 0.01 1.59 0.02 3.17 0.03 4.76 0.01 2.28 0.01 4.56 0.02 6.84 0 0.71 0.01 1.42 0.01 2.15 0 5.03 0 5.03-1.11 7.26h-6v-4l-3-2 5-1c0.08-3.04-0.02-5.07-1-8-0.26-4.86 0.7-8.98 2.06-13.6 1.07-3.28 1.07-3.28 0.94-6.38z" fill="#00843A"/>
<path transform="translate(843 735)" d="m0 0c1.23 0.01 1.23 0.01 2.48 0.03 0.94 0.01 0.94 0.01 1.9 0.03 0.33 0.66 0.65 1.32 1 2 1.65 0.39 3.32 0.72 5 1 0.99 0.33 1.98 0.66 3 1v2h2c-0.34 2.31-0.66 4.62-1 7 0.65 0.33 1.32 0.66 2 1-1.28 0.06-2.56 0.13-3.88 0.19-0.72 0.03-1.44 0.07-2.18 0.11-0.64-0.1-1.28-0.2-1.94-0.3-0.66-0.99-1.33-1.98-2-3h-2c-0.34-0.66-0.66-1.32-1-2-2.02-1.13-2.02-1.13-4-2 0.65-1.32 1.32-2.64 2-4-1.99 0.99-1.99 0.99-4 2-1.33-1.32-2.64-2.64-4-4 2.4-1.2 3.94-1.1 6.62-1.06z" fill="#00863A"/>
<path transform="translate(818,845)" d="m0 0c4.88 1.75 4.88 1.75 6 4-2.48-0.5-2.48-0.5-5-1l-1 5c-0.99 0.33-1.98 0.66-3 1l-1 3c-0.99 0.33-1.98 0.66-3 1l-1 3c-0.74 0.1-1.49 0.21-2.25 0.31-2.94 0.74-4.41 1.83-6.75 3.69h-2l1-8h8v-4l4-2v-3c0.8-0.31 1.61-0.62 2.44-0.94 2.45-0.82 2.45-0.82 3.56-2.06z" fill="#008239"/>
<path transform="translate(669,852)" d="m0 0c0.99 0.33 1.98 0.66 3 1v4l8 3-1 3c1.37 2.19 1.37 2.19 3 4h-5v3l8 1v1c-1.42 0.03-2.83 0.05-4.25 0.06-1.18 0.02-1.18 0.02-2.39 0.04-2.27-0.1-4.19-0.47-6.36-1.1v-2h-2v-7h3v-2h-4v-8zm5 20 2 1z" fill="#00863A"/>
<path transform="translate(594,700)" d="m0 0 8 1v2h2c2.12 1.88 2.12 1.88 4 4v2c0.88 0.37 0.88 0.37 1.78 0.75 2.53 1.42 3.93 2.96 5.78 5.19 2.47 2.94 2.47 2.94 5.15 5.69 1.29 1.37 1.29 1.37 1.29 3.37-3.57-0.55-4.89-1.67-7.06-4.5-2.06-2.67-2.63-3.4-5.94-4.5-2-2-2-2-3-5-2.07-1.22-2.07-1.22-5-1v-2h-7l2-1-2-6z" fill="#00843A"/>
<path transform="translate(888,728)" d="m0 0h1c0.85 7.69 1.12 15.3 1 23l2-3c3 1 3 1 4.69 4.06 0.43 0.97 0.86 1.94 1.31 2.94l-2 3v3c-0.99 0.5-0.99 0.5-2 1 0.28 0.96 0.28 0.96 0.56 1.94 0.15 0.68 0.29 1.36 0.44 2.06-1 1-1 1-3.56 1.06-0.81-0.02-1.61-0.04-2.44-0.06l-1 3v-7l1 3h2c-0.5-1.49-0.5-1.49-1-3h2v-2l-2-1 2-3-4 1v-30z" fill="#00843A"/>
<path transform="translate(885,698)" d="m0 0c3.69-0.23 7.31-0.37 11 0 2.31 2.06 2.31 2.06 4 4 3.07-0.16 3.07-0.16 6-1h3l1 3h-3l-1 2c-0.99 0.33-1.98 0.66-3 1l-1-3c-0.99 0.5-0.99 0.5-2 1-2.33 0.04-4.67 0.04-7 0v2l2 1h-3l-1-3c-0.99-0.33-1.98-0.66-3-1-0.56-1.94-0.56-1.94-1-4l-2-2z" fill="#00853A"/>
<path transform="translate(1069,708)" d="m0 0h7l1 3v-2h2l1 4c-2 1-2 1-5 1l3 3c-2.25 1.12-3.51 1.13-6 1.12-1.05 0.01-1.05 0.01-2.12 0.01-1.88-0.13-1.88-0.13-3.88-1.13l2 4-4 1c-0.99-1.32-1.98-2.64-3-4 0.64-0.29 1.28-0.58 1.94-0.88 2.21-0.95 2.21-0.95 3.06-3.12h2c-0.21-0.62-0.41-1.24-0.62-1.88-0.13-0.7-0.25-1.4-0.38-2.12l2-2z" fill="#00853A"/>
<path transform="translate(464,706)" d="m0 0c2.81 0.31 2.81 0.31 6 2 1.08 2.73 1.69 5.39 2.26 8.27 0.68 3.16 0.68 3.16 3.74 6.73l-10-2-1-6c-0.99-0.33-1.98-0.66-3-1 1-2 1-2 3-4-0.32-2.11-0.32-2.11-1-4z" fill="#00853A"/>
<path transform="translate(888,811)" d="m0 0h1v8l2 1h-2c0.78 3.07 0.78 3.07 3 5l-2 2c0.02 1.15 0.04 2.31 0.06 3.5-0.02 1.15-0.04 2.31-0.06 3.5l-3 2c-1.49-0.99-1.49-0.99-3-3-0.22-2.81-0.28-5.39-0.19-8.19 0.02-0.75 0.03-1.5 0.04-2.27 0.04-1.85 0.09-3.69 0.15-5.54h2l1 2 1-8z" fill="#00843A"/>
<path transform="translate(504,720)" d="m0 0h2l2 2h3c2.34 0.32 4.67 0.65 7 1 0.46 1.18 0.46 1.18 0.94 2.38 0.99 2.54 0.99 2.54 2.06 4.62-3.29 1.1-4.71 0.8-8 0l-1-4h-13l-1-3c1.98-0.33 3.96-0.66 6-1v-2z" fill="#008F3A"/>
<path transform="translate(452 713)" d="m0 0c0.45 0.54 0.91 1.07 1.38 1.62 2.6 0.73 2.6 0.73 5 1-0.33 0.66-0.67 1.33-1 2h-2v2h-2c-0.67 1.33-1.32 2.64-2 4-1.32-0.33-2.64-0.65-4-1-0.27-1.11-0.54-2.22-0.82-3.37-0.84-3.84-0.84-3.84-4.18-5.63 2.41-2.41 7.08-2.77 9.62-0.62z" fill="#008B3A"/>
<path transform="translate(1068,866)" d="m0 0c2.97 0.5 2.97 0.5 6 1l1 3-4 1-1 4h-4v5l-4 1v3h-4c1.75-3.88 1.75-3.88 4-5 0.66-2.53 0.66-2.53 1-5 0.99-0.33 1.98-0.66 3-1l-2-2c0.99-0.33 1.98-0.66 3-1 0.73-2.02 0.73-2.02 1-4z" fill="#00843A"/>
<path transform="translate(1044,824)" d="m0 0 4 2c-0.19 0.62-0.37 1.24-0.56 1.88-0.68 2.16-0.68 2.16 0.56 4.12h-2c0.21 0.56 0.41 1.11 0.62 1.69 0.49 2.97-0.35 4.63-1.62 7.31-2 0-2 0-3.62-1.12-2-2.73-1.71-4.56-1.38-7.88 0.88-3.31 0.88-3.31 2-6l2-1v-1z" fill="#00843A"/>
<path transform="translate(1043 895)" d="m0 0c1.23 0.01 1.23 0.01 2.48 0.03 0.94 0.01 0.94 0.01 1.9 0.03v2c-0.97 0.27-1.94 0.54-2.94 0.82-1.52 0.58-1.52 0.58-3.06 1.18-0.33 0.99-0.67 1.98-1 3h-9c-0.33 1.32-0.67 2.64-1 4h-2c-0.67-1.65-1.32-3.3-2-5 3.64-2.43 5.71-2.16 10-2v-3c2.4-1.2 3.94-1.1 6.62-1.06z" fill="#00843A"/>
<path transform="translate(815,704)" d="m0 0c4.26-0.2 7.12 0.26 11 2 1.33 0.36 2.66 0.7 4 1v2l2 1-2 2v-2h-7l-1 2c-0.39-0.43-0.78-0.87-1.19-1.31-2.09-1.95-4.33-3.28-6.81-4.69l1-2z" fill="#00843A"/>
<path transform="translate(743,702)" d="m0 0 5 1c-0.04 0.78-0.08 1.57-0.12 2.38-0.17 2.78-0.17 2.78 2.12 4.62-2.81 1.56-2.81 1.56-6 3-0.99-0.33-1.98-0.66-3-1l-1-3c-2-1.21-2-1.21-4-2 3-2 3-2 5-2l2-2v-1z" fill="#008C3A"/>
<path transform="translate(1045,698)" d="m0 0c1.6-0.11 3.21-0.19 4.81-0.25 0.9-0.05 1.79-0.09 2.71-0.14 2.48 0.39 2.48 0.39 4.3 2.28 1.18 2.11 1.18 2.11 1.18 4.11-3.59 1.24-6.34 0.93-10 0-1.88-1.38-1.88-1.38-3-3v-3z" fill="#00843A"/>
<path transform="translate(855,739)" d="m0 0 1 2h2l-1 7 2 1h-8c-2.18-4.36-2.18-4.36-1.38-7.25 1.67-2.12 2.75-2.4 5.38-2.75z" fill="#008E3A"/>
<path transform="translate(744,870)" d="m0 0c2.97 0.33 5.94 0.66 9 1v2h3v2l2 1c-3.73 0.88-7.17 1.09-11 1-1.21-2.33-2.17-4.5-3-7z" fill="#00873A"/>
<path transform="translate(801,696)" d="m0 0c1.63 0.28 3.25 0.58 4.88 0.88 0.9 0.16 1.8 0.32 2.74 0.49 2.38 0.63 2.38 0.63 4.38 2.63l-1 3c-1.44 0.05-2.87 0.09-4.31 0.12-0.8 0.03-1.6 0.05-2.43 0.08-2.26-0.2-2.26-0.2-5.26-2.2l1-5z" fill="#008B3A"/>
<path transform="translate(678,822)" d="m0 0 2 2c2.6-0.32 2.6-0.32 5-1l1 3 3 3v2c-2.46 0.88-3.56 1.19-6 0.12-0.66-0.37-1.32-0.74-2-1.12-1.32-0.37-2.66-0.71-4-1-0.04-2-0.04-4 0-6l1-1z" fill="#008C3A"/>
<path transform="translate(435,724)" d="m0 0c0.99 0.33 1.98 0.66 3 1v4l4 1-1 3-3-2c0.23 0.93 0.45 1.86 0.69 2.81 0.31 3.19 0.31 3.19-1.13 5.07-0.51 0.37-1.03 0.74-1.56 1.12v-2h-2c-1.12-3.36-0.83-5.58 0-9 0.19-0.93 0.37-1.86 0.56-2.81 0.15-0.72 0.29-1.45 0.44-2.19z" fill="#00843A"/>
<path transform="translate(669,852)" d="m0 0c0.99 0.33 1.98 0.66 3 1v4l4 2v5c-0.99 0.33-1.98 0.66-3 1v4h-3v-7h3v-2h-4v-8z" fill="#008E3A"/>
<path transform="translate(861,853)" d="m0 0 1 4c-0.99 0.33-1.98 0.66-3 1-1.21 2-1.21 2-2 4h-4l-1 4-4-2c3.75-3.88 3.75-3.88 6-5 0.66-2.53 0.66-2.53 1-5 2.97 0.5 2.97 0.5 6 1v-2z" fill="#007F38"/>
<path transform="translate(1061,700)" d="m0 0h11l1 5c-1.77 0.05-3.54 0.09-5.31 0.12-1.48 0.04-1.48 0.04-2.99 0.08-2.7-0.2-2.7-0.2-5.7-2.2 0.99-0.33 1.98-0.66 3-1l-1-2z" fill="#00853A"/>
<path transform="translate(781,870)" d="m0 0c3 4.38 3 4.38 3 7-3.98 1.05-6.98 0.84-11 0l1-3h2l1-3c2-1 2-1 4-1z" fill="#00853A"/>
<path transform="translate(891,791)" d="m0 0 5 1-1 10c-0.99 0.33-1.98 0.66-3 1v-2l-2-1v-2c-0.02-0.83-0.04-1.65-0.06-2.5 0.06-2.5 0.06-2.5 1.06-4.5z" fill="#00843A"/>
<path transform="translate(688,767)" d="m0 0c2.62 1.44 2.62 1.44 5 3-1.98 2.31-3.96 4.62-6 7l-1-4h-5c4.75-4.88 4.75-4.88 7-6zm2 0 2 1z" fill="#00863A"/>
<path transform="translate(1071,727)" d="m0 0-1 3 4 3c-2.18 1.32-3.43 2.07-6 1.75-2.09-0.78-4.04-1.7-6-2.75v-2c2.96-2.85 4.95-3.34 9-3z" fill="#00853A"/>
<path transform="translate(1083,710)" d="m0 0 2 2c-0.99 0.33-1.98 0.66-3 1l1-3zm-9 2 8 1c2.12 4.62 2.12 4.62 1 8-0.99 0.33-1.98 0.66-3 1-0.43-0.95-0.87-1.9-1.31-2.88-1.48-3.32-1.48-3.32-4.69-5.12v-2z" fill="#008C3A"/>
<path transform="translate(1063 698)" d="m0 0c0.7 0 1.4 0.01 2.13 0.01 1.73 0.02 3.45 0.03 5.18 0.05-2.56 2.57-4.47 2.54-8 3l1 2c-2.37 0.13-2.37 0.13-5 0l-2-2c-1.31-0.69-2.65-1.37-4-2 3.62-1.2 6.93-1.11 10.7-1.06z" fill="#008D3A"/>
<path transform="translate(436,716)" d="m0 0 6 5-2 4c-2.94-1.31-2.94-1.31-6-3l-1-3 3-3z" fill="#00873A"/>
<path transform="translate(833,886)" d="m0 0v2c-1.98 0.33-3.96 0.66-6 1l-1 4h-6c3.84-6.22 5.78-7.16 13-7z" fill="#00843A"/>
<path transform="translate(895,777)" d="m0 0c0.12 7.75 0.12 7.75-1 10l-4-1c-0.88-2.48-1.12-3.66-0.25-6.19 1.42-2.06 2.6-2.81 5.25-2.81z" fill="#00843A"/>
<path transform="translate(625,730)" d="m0 0c4.29 3.73 5.63 6.54 7 12l2 1v2h-5l-1-8h-2l-1-7z" fill="#00843A"/>
<path transform="translate(594,700)" d="m0 0 8 1v2h2l-1 3c-2.31-0.33-4.62-0.66-7-1l-2-5z" fill="#008E3A"/>
<path transform="translate(786,867)" d="m0 0c3.31-0.25 3.31-0.25 7 0 1.94 2 1.94 2 3 4h-6l-1 2c-0.99-0.33-1.98-0.66-3-1v-5z" fill="#00843A"/>
<path transform="translate(868,770)" d="m0 0c2.01 0.29 4.01 0.62 6 1v8l-1-4-4 3-2-7 1-1z" fill="#008F3A"/>
<path transform="translate(755,700)" d="m0 0c1.98 0.5 1.98 0.5 4 1v2h2v2l2 1-1 3-4-1-1-4h-3l1-4z" fill="#00843A"/>
<path transform="translate(957,903)" d="m0 0 1 2c0.54-0.21 1.07-0.41 1.62-0.62 3.21-0.51 5.39 0.47 8.38 1.62l1-2v2c0.99 0.33 1.98 0.66 3 1-2.75 0.05-5.5 0.09-8.25 0.12-0.78 0.02-1.55 0.04-2.36 0.06-7.11 0.06-7.11 0.06-10.4-2.18h6v-2z" fill="#00843A"/>
<path transform="translate(717,857)" d="m0 0h6c0.98 3.05 0.98 4.95 0 8-3.37-1.39-4.99-2.98-7-6l1-2z" fill="#00853A"/>
<path transform="translate(849,866)" d="m0 0 4 2c-0.45 0.41-0.91 0.83-1.38 1.25-1.68 1.81-2.61 3.5-3.62 5.75l-4-1v-2h2l1-4h2v-2z" fill="#00843A"/>
<path transform="translate(1042,842)" d="m0 0c0.69 1.69 0.69 1.69 1 4-1.44 2.75-1.44 2.75-3 5-2-2-2-2-3-5h-2v-3c4.75-1 4.75-1 7-1z" fill="#00853A"/>
<path transform="translate(500 727)" d="m0 0c0.79 0.08 1.59 0.16 2.41 0.24 2.09 0.45 2.09 0.45 4.09 2.45h-2l-1 2c-0.99-0.33-1.98-0.66-3-1-2-0.04-4-0.05-6 0l-1-3c2.47-1.24 3.77-0.99 6.5-0.69z" fill="#008F3A"/>
<path transform="translate(458,707)" d="m0 0 1 4c-1.86-0.03-1.86-0.03-3.75-0.06-2.91-0.01-5.46 0.13-8.25 1.06 0-2 0-2 1.56-3.62 3.25-1.84 5.78-1.59 9.44-1.38z" fill="#008D3A"/>
<path transform="translate(940,855)" d="m0 0c3 1 3 1 4 2l2-1c2.12 0.94 2.12 0.94 4 2v2h-9l-2-4 1-1z" fill="#008038"/>
<path transform="translate(844,879)" d="m0 0-1 2h-2v2c-4.46 0.5-4.46 0.5-9 1 8.11-6.95 8.11-6.95 12-5z" fill="#00843A"/>
<path transform="translate(464,706)" d="m0 0c2.94 0.75 2.94 0.75 6 2 0.88 2.12 0.88 2.12 1 4h-2v4l-2-1c-0.34-1.33-0.68-2.66-1-4l-2-2v-3z" fill="#008E3A"/>
<path transform="translate(843,754)" d="m0 0c2.21 0.43 3.98 0.99 6 2l-2 4h-5c-0.04-1.67-0.04-3.33 0-5l1-1z" fill="#00843A"/>
<path transform="translate(921,734)" d="m0 0c1.98 0.5 1.98 0.5 4 1 1.25 7.62 1.25 7.62-1 11l-2-3h2c-1.07-2.92-1.78-4.78-4-7l1-2z" fill="#00843A"/>
<path transform="translate(730,869)" d="m0 0h9l1 3c-3.31 0.69-3.31 0.69-7 1-1.94-1.38-1.94-1.38-3-3v-1z" fill="#00853A"/>
<path transform="translate(668,821)" d="m0 0 5 1 1 3c-3 2-3 2-5.19 1.62-0.6-0.2-1.19-0.41-1.81-0.62l1-5z" fill="#00883A"/>
<path transform="translate(1088,831)" d="m0 0 1 4z" fill="#0A0710"/>
<path transform="translate(113,748)" d="m0 0h2v2h-2v-2z" fill="#41A830"/>
<path transform="translate(320,732)" d="m0 0c3 1 3 1 3 1z"/>
<path transform="translate(818,893)" d="m0 0 2 1z" fill="#074628"/>
<path transform="translate(695,813)" d="m0 0 2 1z" fill="#0E0916"/>
</svg>
