<?xml version="1.0" standalone="no"?>
<!DOCTYPE svg PUBLIC "-//W3C//DTD SVG 20010904//EN"
 "http://www.w3.org/TR/2001/REC-SVG-20010904/DTD/svg10.dtd">
<svg version="1.0" xmlns="http://www.w3.org/2000/svg"
 width="597.000000pt" height="597.000000pt" viewBox="0 0 597.000000 597.000000"
 preserveAspectRatio="xMidYMid meet">
<metadata>
Created by potrace 1.14, written by Peter Selinger 2001-2017
</metadata>
<g transform="translate(0.000000,597.000000) scale(0.100000,-0.100000)"
fill="#000000" stroke="none">
<path d="M3006 5585 c-18 -18 -30 -20 -20 -2 3 6 -5 -1 -20 -17 -14 -16 -23
-33 -20 -38 3 -4 2 -8 -3 -7 -20 3 -34 -2 -28 -11 3 -5 1 -10 -4 -10 -6 0 -11
-7 -11 -16 0 -9 -5 -12 -12 -8 -8 5 -9 2 -5 -10 5 -13 3 -17 -7 -13 -9 4 -17
-2 -21 -14 -4 -10 -11 -19 -17 -19 -5 0 -7 -7 -4 -16 3 -8 2 -12 -4 -9 -6 3
-10 1 -10 -5 0 -6 -5 -8 -12 -4 -6 4 -8 3 -4 -4 3 -6 2 -13 -3 -17 -6 -3 -7
-13 -4 -22 4 -10 2 -14 -5 -9 -6 3 -13 -3 -17 -14 -4 -11 -11 -18 -16 -15 -5
3 -6 -1 -3 -9 4 -10 -1 -18 -11 -22 -13 -5 -14 -9 -3 -15 10 -7 8 -11 -9 -15
-13 -4 -20 -10 -17 -15 3 -5 0 -9 -6 -9 -6 0 -8 -4 -5 -10 3 -5 1 -10 -5 -10
-6 0 -8 -4 -5 -10 3 -5 1 -10 -6 -10 -7 0 -9 -3 -6 -7 4 -3 -1 -12 -11 -20 -9
-8 -11 -12 -4 -8 6 3 12 2 12 -3 0 -6 -7 -13 -16 -16 -9 -4 -14 -13 -10 -21 3
-8 1 -15 -5 -15 -6 0 -7 -5 -4 -10 4 -6 1 -9 -7 -8 -8 2 -13 -6 -12 -19 0 -12
-4 -19 -9 -16 -6 4 -8 -1 -4 -11 4 -9 3 -15 -1 -12 -5 3 -16 -4 -25 -15 -9
-10 -13 -19 -9 -19 4 0 0 -5 -8 -10 -10 -6 -11 -10 -2 -10 6 0 12 -5 12 -11 0
-5 -5 -7 -12 -3 -8 5 -9 2 -5 -9 3 -10 2 -17 -4 -17 -6 0 -7 -4 -4 -10 3 -5 1
-10 -6 -10 -8 0 -8 -5 2 -17 7 -10 10 -15 5 -11 -4 4 -14 1 -21 -5 -10 -9 -10
-15 -1 -26 8 -11 8 -13 -1 -8 -6 4 -14 3 -18 -3 -3 -5 0 -10 7 -11 7 0 3 -5
-9 -11 -13 -6 -23 -15 -23 -20 0 -5 4 -7 9 -4 5 4 7 -3 4 -13 -3 -11 -11 -22
-19 -25 -8 -3 -14 -12 -14 -19 0 -8 -6 -19 -12 -25 -7 -6 -12 -28 -12 -50 1
-28 -3 -42 -13 -46 -12 -5 -13 -9 -4 -20 8 -10 8 -15 1 -18 -5 -1 -12 -14 -15
-27 -2 -14 -10 -28 -17 -33 -10 -6 -9 -8 2 -8 11 -1 10 -4 -4 -15 -17 -13 -18
-17 -6 -28 10 -10 11 -9 5 2 -5 10 -4 12 4 7 6 -4 9 -12 5 -17 -3 -5 -9 -7
-14 -4 -5 3 -12 -7 -16 -22 -10 -47 -26 -83 -34 -78 -4 3 -7 -9 -6 -26 1 -17
-4 -38 -12 -45 -7 -8 -9 -14 -3 -14 6 0 11 -5 11 -11 0 -5 -6 -7 -12 -3 -10 5
-10 4 -1 -6 10 -11 9 -18 -5 -34 -9 -11 -12 -16 -6 -13 7 4 14 0 17 -8 4 -9 1
-12 -7 -9 -14 5 -15 -23 -2 -44 4 -7 2 -12 -4 -12 -6 0 -8 -5 -5 -10 4 -6 11
-7 17 -4 7 4 8 2 4 -5 -4 -6 -12 -9 -17 -6 -8 6 -14 -16 -10 -38 1 -5 -3 -6
-9 -2 -5 3 -10 2 -10 -4 0 -6 -11 -13 -25 -17 -14 -3 -25 -10 -25 -15 0 -4 -9
-6 -21 -4 -14 3 -19 0 -16 -9 4 -10 0 -12 -14 -9 -10 3 -25 1 -32 -5 -6 -5
-29 -12 -49 -16 -23 -4 -39 -14 -43 -25 -3 -11 -13 -22 -21 -25 -10 -4 -13 -2
-8 7 4 6 -3 2 -15 -10 -12 -13 -28 -23 -35 -23 -18 0 -58 -45 -49 -55 5 -4 0
-6 -9 -2 -10 3 -19 0 -22 -10 -4 -9 -13 -13 -22 -9 -14 5 -15 4 -4 -9 11 -13
10 -14 -5 -9 -13 5 -16 4 -11 -4 5 -8 0 -12 -13 -12 -11 0 -29 -12 -40 -26
-11 -14 -24 -24 -28 -21 -8 5 -38 -22 -38 -33 0 -2 -4 -5 -10 -6 -5 0 -16 -2
-23 -2 -7 -1 -10 -6 -7 -12 3 -5 1 -10 -5 -10 -7 0 -10 -6 -7 -14 3 -8 -1 -13
-11 -12 -9 0 -16 -5 -14 -12 1 -6 -4 -11 -10 -10 -7 2 -12 -2 -11 -9 2 -7 -4
-10 -12 -7 -9 4 -21 -6 -33 -25 -10 -17 -22 -28 -25 -25 -4 4 -9 -1 -13 -10
-3 -9 -10 -13 -15 -10 -5 3 -9 -2 -9 -11 0 -9 -4 -14 -9 -11 -5 3 -14 -8 -21
-24 -7 -17 -19 -30 -27 -30 -8 0 -12 -4 -9 -9 3 -5 -4 -11 -15 -14 -11 -3 -23
-15 -26 -26 -3 -12 -11 -21 -18 -21 -7 0 -19 -8 -26 -17 -13 -17 -13 -17 6 -3
19 14 19 14 6 -2 -7 -10 -21 -18 -30 -19 -11 0 -12 -2 -3 -6 9 -3 2 -14 -20
-30 -20 -16 -25 -23 -13 -19 19 6 19 5 -1 -11 -12 -10 -30 -24 -40 -31 -11 -7
-12 -10 -4 -6 12 6 13 4 3 -7 -16 -16 -17 -33 -1 -23 7 4 8 3 4 -5 -6 -9 -11
-9 -24 1 -12 10 -14 10 -8 1 4 -8 2 -13 -4 -13 -6 0 -9 -4 -5 -9 3 -6 -3 -14
-12 -20 -10 -6 -14 -11 -9 -11 4 0 -2 -9 -15 -21 -13 -11 -17 -18 -9 -14 10 4
9 2 -2 -8 -10 -8 -15 -17 -11 -20 3 -4 1 -7 -6 -7 -7 0 -9 -5 -6 -10 4 -6 1
-9 -7 -8 -7 2 -12 -3 -10 -9 1 -7 -6 -13 -15 -13 -15 0 -16 -2 -3 -10 13 -8
13 -10 -1 -10 -9 0 -20 -7 -23 -16 -4 -10 -2 -13 7 -9 6 4 1 -3 -13 -14 -17
-14 -20 -21 -10 -21 9 -1 6 -5 -7 -10 -13 -5 -23 -15 -23 -22 0 -9 3 -9 10 2
6 9 10 10 10 3 0 -7 -9 -17 -21 -23 -12 -7 -18 -18 -15 -26 3 -8 -1 -17 -9
-20 -8 -4 -15 -13 -15 -21 0 -8 -4 -11 -10 -8 -5 3 -10 -3 -10 -14 0 -11 -6
-26 -14 -34 -10 -9 -11 -18 -5 -26 5 -6 6 -9 3 -6 -6 4 -44 -32 -44 -41 0 -2
8 -1 18 2 13 4 13 2 -3 -8 -11 -7 -20 -19 -21 -25 -2 -30 -5 -34 -16 -27 -8 5
-8 2 1 -10 8 -9 10 -16 5 -14 -5 2 -10 -1 -11 -5 -1 -5 -10 -15 -20 -24 -10
-8 -12 -12 -5 -8 6 3 12 2 12 -3 0 -6 -7 -12 -15 -16 -8 -3 -15 -10 -15 -16 0
-6 6 -8 12 -5 7 4 5 0 -6 -9 -10 -8 -15 -20 -11 -25 3 -6 -1 -14 -9 -17 -9 -3
-16 -10 -16 -16 0 -5 6 -6 13 -3 6 4 5 0 -5 -7 -13 -11 -14 -18 -5 -33 10 -19
9 -19 -8 -5 -10 8 -16 10 -12 4 4 -6 0 -26 -9 -43 -9 -18 -13 -39 -10 -47 5
-12 2 -15 -10 -10 -14 5 -15 4 -5 -8 8 -10 9 -16 1 -21 -14 -9 -13 -27 3 -20
6 4 4 0 -6 -8 -24 -20 -34 -107 -12 -107 7 0 17 -4 20 -10 4 -6 -1 -7 -12 -4
-12 4 -14 3 -6 -3 16 -11 63 -9 64 3 0 5 9 18 20 30 10 11 17 23 13 26 -3 3 3
5 13 4 9 0 18 6 18 14 1 8 6 14 13 13 7 -2 12 2 12 8 0 15 26 39 34 32 5 -6
10 12 7 29 0 4 7 4 17 1 15 -6 15 -5 3 10 -12 15 -12 17 4 11 13 -5 16 -4 11
5 -4 6 -4 11 1 10 20 -3 34 2 28 11 -3 5 -1 10 5 10 6 0 8 5 4 12 -5 8 -2 9 9
5 9 -3 16 -3 15 1 -3 15 15 42 27 42 8 0 17 5 21 12 5 7 3 8 -6 3 -8 -5 -11
-4 -6 3 4 6 14 8 23 5 12 -5 15 -2 10 10 -3 9 -3 16 1 16 18 -3 33 2 29 9 -6
9 19 33 27 25 3 -4 6 2 6 12 0 10 3 15 7 12 3 -4 13 2 20 13 8 11 19 17 25 14
7 -5 9 -1 5 9 -3 9 -3 16 1 16 18 -3 33 2 29 9 -3 4 5 16 16 27 11 11 17 14
12 7 -6 -11 -3 -12 14 -2 12 6 19 15 16 21 -4 5 -1 9 5 9 6 0 8 4 5 10 -3 6 1
7 9 4 9 -3 16 -2 16 4 0 5 9 12 21 15 12 3 18 10 14 16 -3 7 3 11 15 11 12 0
18 5 15 10 -5 9 7 14 27 11 4 0 9 8 13 18 3 11 13 22 22 25 12 5 13 3 7 -7 -5
-7 -1 -4 9 6 9 11 17 16 17 12 0 -4 14 5 31 19 17 14 36 23 41 20 6 -4 8 -2 4
4 -3 6 7 16 24 24 17 7 28 18 26 24 -3 7 3 10 15 7 11 -3 19 0 19 7 0 7 6 10
13 7 7 -3 19 4 26 15 7 11 19 17 27 14 8 -3 14 0 14 6 0 6 3 9 6 5 3 -3 14 3
25 14 11 11 25 17 31 13 8 -5 9 -1 4 11 -5 15 -4 16 9 5 10 -8 15 -9 15 -2 0
6 6 9 13 6 8 -3 20 2 27 10 7 9 17 13 23 9 6 -4 8 0 4 11 -4 10 -3 15 3 11 19
-12 49 5 43 23 -4 13 -2 12 10 -3 10 -12 16 -15 17 -7 0 7 5 10 10 7 6 -3 10
-1 10 5 0 6 5 8 10 5 6 -3 10 -1 10 5 0 6 5 8 12 4 6 -4 17 1 25 11 7 11 13
14 13 8 0 -6 9 -9 20 -6 11 3 20 9 20 14 0 5 11 4 24 -1 20 -7 27 -5 41 13 9
12 13 15 9 7 -6 -12 -4 -13 7 -2 7 6 24 12 37 12 13 0 21 4 18 8 -3 5 1 9 9 9
8 0 11 -5 8 -10 -3 -6 2 -5 12 1 15 8 23 5 38 -12 10 -11 16 -15 12 -9 -4 9
-1 11 9 7 9 -3 14 -10 11 -14 -3 -5 2 -16 11 -24 9 -10 11 -16 4 -16 -6 0 -10
-6 -7 -12 2 -7 9 -12 15 -11 5 1 8 -7 4 -19 -3 -14 -1 -19 6 -14 8 5 10 2 6
-8 -3 -9 -11 -13 -18 -9 -6 4 -5 -1 2 -10 8 -9 10 -22 6 -28 -4 -8 -3 -9 4 -5
8 5 11 0 8 -16 -2 -13 4 -32 13 -42 9 -11 10 -16 4 -12 -7 4 -13 2 -13 -3 0
-6 5 -11 10 -11 6 0 10 -5 10 -11 0 -5 -5 -7 -11 -3 -6 3 -3 -6 7 -22 14 -21
15 -26 4 -19 -13 7 -13 6 -2 -7 7 -9 12 -22 11 -30 -3 -28 1 -39 14 -31 6 4 4
-6 -7 -21 -10 -16 -14 -26 -9 -23 5 3 15 -3 22 -15 7 -11 8 -17 2 -13 -6 3
-11 -1 -11 -9 0 -9 6 -16 13 -16 8 0 7 -4 -3 -10 -12 -8 -12 -10 -1 -10 11 0
11 -3 0 -17 -10 -11 -10 -14 -1 -9 13 8 16 -1 13 -52 -1 -22 4 -34 14 -39 13
-4 14 -8 4 -14 -10 -6 -9 -13 6 -30 11 -12 15 -19 9 -16 -15 9 -27 -20 -12
-29 7 -5 8 -2 3 6 -6 9 -4 11 4 5 9 -5 9 -11 3 -17 -11 -11 -5 -41 7 -34 3 2
6 -6 6 -19 0 -16 -4 -21 -15 -17 -13 5 -13 4 0 -10 8 -9 20 -13 25 -10 6 3 4
-1 -2 -9 -10 -12 -10 -18 0 -29 9 -10 9 -11 0 -6 -7 4 -13 2 -13 -3 0 -6 4
-11 8 -11 5 0 8 -17 8 -38 -1 -20 3 -40 8 -44 12 -8 17 -40 5 -32 -5 3 -9 1
-9 -5 0 -5 5 -13 10 -16 8 -5 8 -11 0 -20 -8 -10 -7 -14 2 -18 9 -4 10 -6 1
-6 -7 -1 -10 -8 -7 -16 4 -8 9 -13 13 -11 3 2 6 -13 6 -35 0 -21 -4 -39 -8
-39 -5 0 -5 -6 0 -12 4 -7 6 -21 5 -30 -2 -10 2 -18 8 -18 8 0 8 -6 0 -20 -8
-15 -8 -20 1 -20 8 0 9 -4 0 -13 -7 -10 -7 -17 0 -24 8 -8 8 -17 0 -32 -9 -16
-9 -21 0 -21 8 0 7 -5 -2 -17 -8 -9 -9 -14 -3 -10 6 3 11 0 11 -8 0 -8 -4 -12
-9 -9 -12 8 -10 -10 3 -23 8 -8 8 -17 0 -31 -14 -27 -14 -35 2 -26 8 6 8 3 -1
-9 -8 -9 -11 -21 -7 -27 3 -5 1 -10 -6 -10 -8 0 -7 -5 2 -17 12 -14 12 -15 1
-9 -11 7 -12 4 -3 -13 8 -14 8 -21 1 -21 -5 0 -10 -5 -10 -11 0 -5 6 -7 13 -3
7 5 6 1 -3 -10 -18 -23 -23 -56 -8 -56 9 0 9 -3 0 -12 -16 -16 -15 -31 1 -22
6 4 5 -1 -5 -12 -10 -12 -15 -31 -12 -52 2 -18 0 -31 -4 -28 -4 2 -9 -4 -9
-15 -1 -13 2 -17 10 -12 9 5 9 3 1 -8 -6 -8 -11 -26 -10 -41 1 -21 -1 -25 -12
-16 -10 9 -12 8 -10 -3 2 -8 8 -17 13 -21 6 -5 5 -8 -4 -8 -7 0 -11 -6 -7 -15
3 -8 0 -15 -6 -15 -6 0 -5 -6 3 -17 10 -11 10 -14 2 -9 -12 7 -18 -5 -14 -27
1 -4 -3 -17 -9 -27 -9 -16 -8 -19 7 -14 12 4 10 1 -5 -11 -13 -9 -21 -23 -18
-31 3 -8 0 -14 -6 -14 -7 0 -7 -4 1 -14 10 -11 9 -16 -5 -24 -12 -6 -15 -18
-12 -36 5 -23 3 -24 -10 -14 -13 12 -14 10 -3 -11 10 -19 10 -22 0 -16 -9 6
-11 2 -7 -13 4 -12 3 -20 -2 -17 -4 3 -11 -2 -14 -11 -3 -8 -2 -12 4 -9 6 3 7
-1 4 -9 -3 -9 -10 -13 -15 -10 -5 3 -6 -3 -2 -12 5 -12 3 -15 -6 -9 -10 6 -11
3 -2 -14 10 -18 9 -20 -6 -14 -16 6 -16 5 -4 -10 12 -15 12 -17 -3 -11 -18 7
-19 -15 -1 -28 6 -4 1 -8 -9 -8 -11 0 -16 -3 -13 -6 3 -4 0 -16 -8 -26 -7 -11
-11 -27 -8 -36 5 -11 2 -14 -10 -9 -12 4 -15 1 -12 -14 2 -10 -1 -19 -6 -19
-6 0 -8 -4 -5 -9 3 -5 -1 -12 -9 -15 -10 -4 -14 -14 -11 -31 3 -14 2 -24 -2
-21 -4 2 -16 -8 -26 -22 -11 -14 -15 -22 -9 -19 5 3 10 0 10 -7 0 -8 -7 -12
-15 -8 -10 3 -13 1 -8 -6 4 -7 2 -12 -4 -12 -7 0 -9 -7 -6 -16 3 -8 2 -13 -2
-11 -4 2 -16 -5 -26 -16 -19 -20 -19 -20 0 -14 18 7 18 7 0 -7 -10 -8 -15 -19
-11 -25 3 -7 0 -8 -9 -5 -11 4 -14 0 -11 -15 2 -12 0 -19 -5 -16 -11 7 -32
-30 -22 -40 4 -3 0 -5 -8 -3 -8 2 -14 -2 -15 -9 0 -7 -9 -19 -20 -28 -11 -9
-13 -14 -5 -10 8 4 6 -1 -5 -10 -11 -9 -19 -19 -18 -23 0 -4 -3 -6 -8 -5 -14
4 2 -25 17 -31 8 -3 12 -2 9 3 -3 5 -1 12 5 16 5 3 10 1 10 -5 0 -6 5 -8 10
-5 6 4 8 10 5 15 -3 5 -1 12 5 15 6 4 10 3 9 -2 -3 -19 2 -23 15 -11 8 7 12
16 10 20 -3 4 5 5 16 3 11 -2 24 3 28 12 5 8 12 14 15 14 23 -3 28 1 23 15 -5
14 -4 15 9 4 12 -10 16 -9 21 5 6 16 50 40 67 37 4 -1 7 5 7 15 0 9 3 13 7 10
3 -4 12 1 20 11 10 11 12 12 8 2 -4 -8 2 -5 13 7 11 13 24 23 29 23 17 0 73
57 65 66 -4 4 1 2 11 -5 14 -12 17 -11 17 3 0 9 5 16 11 16 5 0 7 5 4 10 -4 6
-3 10 2 9 22 -4 34 4 63 44 18 23 30 33 26 22 -6 -19 -6 -19 9 -1 8 10 12 23
8 29 -3 6 -1 7 6 3 6 -4 8 -12 5 -18 -5 -7 -2 -8 5 -4 7 5 10 15 7 23 -3 8 -1
11 4 8 6 -3 10 -1 10 5 0 6 5 8 10 5 6 -3 10 0 10 8 0 8 7 18 16 21 10 4 14
12 10 22 -6 15 -4 15 11 3 15 -12 16 -12 10 4 -4 11 -3 16 3 12 6 -3 10 -1 10
5 0 6 5 8 10 5 9 -6 14 8 11 28 -1 5 3 6 9 2 5 -3 10 -1 10 5 0 6 4 9 9 5 5
-3 13 5 17 17 7 25 49 68 65 68 5 0 9 5 9 11 0 5 -6 7 -12 3 -8 -4 -10 -3 -5
2 5 5 13 9 18 9 5 0 10 5 11 10 3 14 22 34 28 30 4 -2 12 6 20 18 12 21 12 21
-6 8 -10 -8 -2 1 19 21 20 19 37 40 37 46 0 6 6 15 13 19 8 4 22 24 33 43 22
40 32 54 58 80 10 10 15 23 11 29 -5 10 6 15 26 13 3 -1 5 10 3 24 -1 13 1 22
6 19 5 -3 14 8 22 25 7 16 16 30 20 30 5 0 8 7 8 15 0 8 10 24 23 36 12 12 16
19 10 15 -7 -4 -13 -3 -13 2 0 6 7 13 16 16 8 3 12 10 9 16 -3 6 0 13 9 16 8
3 17 13 20 21 6 14 4 14 -11 2 -10 -7 -5 0 10 17 19 21 25 36 21 49 -5 12 -4
16 4 11 6 -3 13 3 17 14 4 12 11 17 18 13 7 -4 5 2 -3 12 -12 15 -12 17 -1 10
11 -6 13 -4 8 8 -3 9 -2 19 4 22 5 4 7 11 4 16 -4 5 -1 9 6 9 7 0 9 3 6 7 -4
3 1 12 11 20 9 8 10 11 3 7 -9 -5 -6 4 7 23 12 17 19 33 15 37 -3 3 -1 6 7 6
10 0 10 4 -1 17 -12 14 -12 16 0 8 11 -6 13 -4 8 9 -4 10 -1 19 7 22 8 3 17
12 20 20 4 10 1 13 -7 9 -6 -4 -4 0 5 8 14 11 15 16 5 27 -8 8 -8 11 -1 7 7
-4 14 0 17 7 3 8 1 17 -6 20 -7 2 -4 5 6 5 11 1 15 6 11 12 -3 6 0 15 7 20 11
7 11 9 1 9 -7 0 -10 5 -7 10 4 6 10 8 15 5 4 -3 6 5 2 17 -3 14 -2 19 6 14 7
-4 12 -2 12 3 0 6 -4 11 -8 11 -5 0 -9 6 -9 14 0 8 3 14 6 13 3 -1 8 3 9 8 2
6 8 16 14 22 7 9 6 18 -3 30 -10 11 -10 14 -1 9 7 -4 12 -1 12 9 0 10 5 13 13
9 9 -6 9 -4 -1 8 -11 14 -10 18 5 27 10 6 14 11 8 11 -5 0 -10 11 -10 24 0 16
4 21 11 15 7 -6 10 0 9 21 -1 16 2 27 8 23 5 -3 6 4 2 17 -4 14 -3 20 3 16 6
-3 9 11 8 38 -1 25 1 43 5 40 4 -2 9 3 13 11 3 8 0 15 -7 15 -8 0 -8 3 2 9 8
5 11 16 8 26 -5 11 -3 14 5 9 7 -5 9 -2 5 9 -3 9 -1 18 6 21 9 3 9 5 0 5 -7 1
-13 6 -13 12 0 5 4 8 9 4 6 -3 8 4 6 15 -2 11 1 20 7 20 7 0 6 5 -1 14 -10 11
-8 17 6 25 14 8 15 10 3 11 -13 0 -13 1 0 10 11 7 11 10 2 10 -7 0 -10 5 -7
10 4 6 10 8 14 6 4 -3 6 12 6 32 -1 20 3 43 8 50 6 8 5 12 -4 12 -9 0 -7 5 5
11 15 9 16 13 5 20 -12 7 -12 9 0 9 10 0 11 3 2 14 -9 11 -8 18 5 31 15 14 15
18 3 26 -13 8 -6 13 13 10 4 0 5 6 2 14 -4 9 0 23 7 32 12 15 12 16 -5 10 -16
-6 -17 -5 -7 7 7 8 9 21 5 27 -4 8 -3 9 4 5 16 -10 15 7 0 23 -11 11 -10 12 1
6 11 -6 13 -4 8 8 -4 10 -2 17 5 17 7 0 7 4 -1 14 -9 10 -9 16 -1 21 6 4 8 16
4 27 -3 12 -2 18 3 15 11 -7 11 23 -1 41 -4 7 -1 15 8 18 9 3 14 9 11 13 -2 4
9 15 26 25 18 10 27 22 22 29 -4 7 0 6 10 -2 9 -7 17 -9 17 -4 0 9 23 9 60 0
54 -14 70 -20 70 -29 0 -6 6 -5 15 2 8 7 15 8 15 3 0 -5 16 -17 35 -26 32 -15
34 -15 29 1 -2 9 1 7 7 -5 7 -13 21 -23 32 -23 11 0 29 -8 40 -17 11 -10 18
-13 14 -7 -3 6 0 11 8 11 8 0 14 -3 13 -6 -2 -20 3 -31 12 -26 6 4 8 12 4 18
-3 7 4 1 15 -12 12 -13 21 -20 21 -16 0 3 7 -1 16 -9 8 -9 20 -14 25 -10 5 3
12 -1 15 -10 3 -8 12 -12 20 -9 7 3 17 -2 20 -11 3 -9 15 -16 26 -16 10 0 17
-4 13 -9 -3 -6 4 -8 15 -6 11 2 20 -1 20 -6 0 -5 8 -13 18 -16 9 -4 23 -13 30
-20 8 -7 18 -11 23 -8 5 4 9 -1 9 -9 0 -8 5 -18 12 -22 7 -5 8 -3 3 5 -6 10
-3 11 14 1 12 -6 25 -18 28 -26 3 -8 11 -14 18 -14 7 0 16 -7 19 -16 4 -10 14
-14 25 -11 15 3 18 1 14 -11 -5 -11 -2 -14 10 -9 12 4 17 1 17 -11 0 -15 2
-15 10 -2 8 13 10 13 10 -1 0 -9 15 -24 34 -34 19 -11 33 -21 31 -24 -1 -4 3
-12 11 -19 11 -10 14 -10 14 0 1 7 6 3 13 -10 7 -12 16 -19 20 -16 4 4 7 2 7
-5 0 -7 4 -9 10 -6 6 3 7 -1 4 -10 -4 -9 -3 -15 2 -14 5 1 18 1 29 0 17 -1 18
-3 5 -11 -13 -9 -7 -14 13 -11 4 0 7 -6 7 -15 0 -9 5 -12 12 -8 8 5 9 2 4 -11
-5 -15 -4 -16 9 -5 13 11 16 11 13 -1 -2 -8 2 -13 7 -13 6 1 19 -7 30 -19 11
-11 13 -16 5 -12 -8 5 -1 -5 15 -21 17 -16 32 -28 34 -27 2 2 14 -9 26 -23 13
-16 28 -23 35 -19 7 4 10 1 8 -11 -2 -13 3 -19 14 -18 10 1 15 -3 12 -8 -3 -5
2 -16 12 -24 11 -9 13 -13 4 -9 -8 4 -6 0 4 -9 10 -8 22 -13 26 -11 4 3 7 -3
6 -12 0 -9 9 -22 21 -28 13 -7 20 -15 16 -18 -3 -4 1 -7 10 -7 10 0 17 -6 17
-14 0 -7 8 -20 18 -27 16 -13 16 -13 2 6 -14 19 -14 19 3 6 9 -7 17 -20 17
-28 0 -8 5 -11 10 -8 6 3 10 -3 10 -14 0 -12 7 -21 15 -21 8 0 15 -4 15 -10 0
-5 7 -10 15 -10 13 0 19 12 16 32 0 4 6 5 15 1 19 -7 15 17 -6 34 -13 12 -13
12 1 8 12 -5 14 1 11 30 -2 19 -9 35 -14 35 -6 0 -8 9 -5 20 3 11 -2 27 -10
35 -8 9 -12 22 -9 30 3 8 0 15 -7 15 -8 0 -6 4 3 10 13 8 13 10 -2 10 -12 0
-15 5 -11 17 4 11 3 14 -5 9 -8 -5 -10 -2 -6 8 4 10 1 16 -7 16 -12 0 -12 2 0
9 9 6 10 11 2 15 -6 4 -11 16 -11 28 0 15 -4 18 -16 14 -14 -5 -15 -4 -5 8 10
11 8 17 -6 25 -14 8 -15 10 -3 11 12 0 12 2 2 9 -8 5 -15 20 -15 34 -1 14 -5
23 -9 20 -5 -2 -8 1 -8 7 0 6 -4 9 -8 6 -5 -3 -9 1 -9 9 0 8 4 12 9 9 4 -3 3
6 -3 20 -7 14 -17 23 -22 19 -6 -4 -8 0 -4 10 3 10 2 17 -4 17 -6 0 -7 4 -4
10 3 6 1 10 -5 10 -6 0 -8 5 -5 10 3 5 -1 10 -9 10 -9 0 -16 5 -16 11 0 5 5 7
11 3 8 -4 7 0 -1 15 -6 12 -16 18 -22 15 -6 -4 -8 -3 -4 4 3 6 -1 18 -10 26
-10 11 -11 16 -3 16 7 0 2 9 -10 19 -13 11 -24 28 -26 38 -1 10 -7 17 -12 16
-6 -1 -10 8 -9 20 1 12 -6 28 -16 35 -10 7 -18 18 -18 23 0 10 -34 62 -56 86
-7 7 -15 9 -18 5 -4 -3 -4 1 0 11 3 10 1 17 -6 17 -6 0 -9 4 -6 9 3 5 -3 11
-15 14 -13 3 -19 12 -17 23 2 11 -7 23 -22 31 -15 7 -19 13 -10 14 10 0 7 4
-7 11 -12 6 -24 19 -26 30 -3 11 -10 17 -16 13 -7 -4 -8 0 -4 11 5 13 3 15 -7
9 -10 -6 -12 -4 -7 8 3 9 1 19 -5 23 -7 5 -8 2 -3 -6 5 -9 4 -11 -3 -6 -7 4
-12 14 -12 23 0 9 -2 14 -5 11 -9 -9 -66 53 -59 64 3 5 -3 12 -15 15 -12 3
-21 12 -21 20 0 8 -4 11 -10 8 -5 -3 -10 -2 -10 2 0 5 -7 18 -15 29 -15 19
-15 19 -10 -1 3 -11 -1 -8 -8 8 -7 15 -16 24 -20 21 -4 -4 -7 1 -7 10 0 13 -5
16 -17 12 -10 -4 -14 -4 -11 0 8 7 -37 54 -52 54 -6 0 -8 5 -5 10 3 6 -1 10
-9 10 -8 0 -29 20 -46 44 -25 34 -36 42 -52 38 -14 -3 -19 -1 -14 6 4 7 1 12
-7 12 -8 0 -18 7 -21 16 -4 9 -9 14 -13 11 -3 -4 -14 2 -24 14 -12 14 -18 16
-22 7 -3 -7 -6 -3 -6 10 -1 13 -5 20 -11 17 -5 -3 -10 -1 -10 5 0 6 -4 8 -10
5 -5 -3 -10 -1 -10 4 0 6 -7 11 -16 11 -8 0 -13 4 -10 8 3 5 -7 15 -22 23 -15
8 -33 22 -41 32 -7 10 -19 16 -27 13 -8 -3 -13 -2 -13 2 3 19 -2 23 -16 12
-12 -10 -15 -9 -15 5 0 11 -5 15 -16 11 -8 -3 -12 -2 -9 4 3 6 1 10 -4 10 -6
0 -11 8 -11 17 0 9 -3 13 -7 10 -3 -4 -12 1 -20 11 -14 16 -14 16 -8 -2 5 -18
4 -19 -12 -4 -10 8 -26 14 -35 13 -10 -2 -21 2 -25 7 -4 7 -1 8 7 3 8 -5 11
-4 7 3 -4 5 -16 8 -26 5 -13 -3 -23 2 -31 17 -8 14 -18 20 -31 17 -18 -5 -22
12 -6 24 4 3 -2 14 -12 26 -11 11 -21 31 -23 44 -1 13 -7 27 -13 32 -6 4 -6
10 2 15 10 6 10 12 -1 27 -8 11 -11 26 -8 34 4 10 1 12 -9 6 -11 -7 -11 -5 1
10 9 11 10 16 3 11 -7 -4 -13 -3 -13 3 0 5 5 13 10 16 6 4 5 12 -4 21 -9 8
-13 21 -10 29 4 8 2 15 -3 15 -5 0 -10 14 -11 31 -1 17 -9 38 -17 46 -17 16
-20 27 -6 19 5 -4 7 3 4 14 -3 11 -10 17 -15 14 -6 -4 -5 3 1 14 9 17 8 23 -6
31 -10 6 -14 11 -9 11 5 0 2 8 -5 17 -12 15 -12 16 1 8 13 -8 13 -6 2 8 -8 9
-11 21 -7 27 3 5 2 10 -2 10 -5 0 -9 8 -10 18 -3 46 -8 62 -20 66 -7 3 -13 12
-13 21 0 8 -4 15 -8 15 -4 0 -9 12 -10 27 -1 14 -10 35 -20 46 -9 11 -11 17
-4 13 6 -4 12 -3 12 2 0 5 -9 12 -20 15 -13 3 -18 10 -14 21 3 9 1 16 -6 16
-6 0 -8 5 -5 10 3 6 2 10 -3 10 -6 0 -13 7 -16 16 -6 15 -4 15 11 3 14 -11 14
-9 -2 11 -11 14 -24 28 -30 32 -6 5 -5 8 3 8 7 0 10 5 7 10 -4 6 -11 7 -17 4
-6 -4 -8 -2 -4 4 10 17 -12 64 -26 56 -8 -5 -7 0 2 11 9 11 10 16 3 11 -12 -6
-18 5 -14 27 0 4 -3 7 -9 7 -5 0 -10 7 -10 15 0 8 -4 15 -9 15 -5 0 -12 7 -15
16 -5 12 -3 14 7 8 7 -5 5 -2 -5 8 -10 9 -18 21 -18 27 0 6 -4 11 -10 11 -5 0
-10 7 -10 16 0 16 -24 46 -32 39 -2 -2 -5 5 -5 17 -1 12 -8 25 -15 29 -7 5 -8
9 -3 9 6 0 2 5 -7 11 -10 5 -18 15 -18 21 0 6 -9 18 -19 27 -11 10 -21 24 -23
32 -2 7 -10 20 -18 27 -13 12 -13 13 0 6 13 -7 8 2 -29 46 -2 3 -1 -3 2 -13 4
-11 3 -16 -3 -12 -6 3 -10 15 -10 26 0 10 -4 19 -10 19 -5 0 -10 7 -10 16 0 8
-4 12 -10 9 -5 -3 -10 1 -10 10 0 9 -3 14 -7 12 -10 -6 -34 19 -26 27 4 3 -1
6 -11 6 -9 0 -14 5 -11 10 3 6 -4 10 -17 10 -13 0 -29 5 -36 12 -8 8 -15 8
-28 -3 -12 -9 -15 -10 -10 -1 10 17 1 15 -18 -3z m-539 -900 c0 -8 -4 -12 -9
-9 -5 3 -6 10 -3 15 9 13 12 11 12 -6z m-866 -1108 c-10 -9 -11 -8 -5 6 3 10
9 15 12 12 3 -3 0 -11 -7 -18z"/>
<path d="M879 2213 c-13 -16 -12 -17 4 -4 9 7 17 15 17 17 0 8 -8 3 -21 -13z"/>
</g>
</svg>
